G04 #@! TF.GenerationSoftware,KiCad,Pcbnew,5.1.5-5.1.5*
G04 #@! TF.CreationDate,2020-09-06T13:46:07+10:00*
G04 #@! TF.ProjectId,7segment,37736567-6d65-46e7-942e-6b696361645f,rev?*
G04 #@! TF.SameCoordinates,PX292dfe0PY1d11680*
G04 #@! TF.FileFunction,Legend,Top*
G04 #@! TF.FilePolarity,Positive*
%FSLAX46Y46*%
G04 Gerber Fmt 4.6, Leading zero omitted, Abs format (unit mm)*
G04 Created by KiCad (PCBNEW 5.1.5-5.1.5) date 2020-09-06 13:46:07*
%MOMM*%
%LPD*%
G04 APERTURE LIST*
%ADD10C,0.120000*%
%ADD11C,0.150000*%
G04 APERTURE END LIST*
D10*
X88907018Y-30440832D02*
X89061855Y-30459844D01*
X91205755Y-30723082D02*
X91360592Y-30742093D01*
X89457159Y-27251773D02*
G75*
G03X88907499Y-30440891I866762J-1791318D01*
G01*
X91598295Y-27514670D02*
G75*
G02X91360112Y-30742034I-1274374J-1528421D01*
G01*
X89379015Y-27878122D02*
G75*
G03X89125110Y-29944674I944906J-1164969D01*
G01*
X91522591Y-28141320D02*
G75*
G02X91269010Y-30207911I-1198670J-901771D01*
G01*
X88287922Y-35482967D02*
X88442759Y-35501978D01*
X90586659Y-35765216D02*
X90741496Y-35784228D01*
X88838062Y-32293906D02*
G75*
G03X88288402Y-35483026I866763J-1791319D01*
G01*
X90979201Y-32556804D02*
G75*
G02X90741016Y-35784169I-1274376J-1528421D01*
G01*
X88759919Y-32920256D02*
G75*
G03X88506014Y-34986808I944906J-1164969D01*
G01*
X90903495Y-33183454D02*
G75*
G02X90649914Y-35250046I-1198670J-901771D01*
G01*
X86724704Y-48214356D02*
X86879541Y-48233368D01*
X89023441Y-48496606D02*
X89178278Y-48515617D01*
X87274845Y-45025296D02*
G75*
G03X86725184Y-48214415I866762J-1791319D01*
G01*
X89415981Y-45288194D02*
G75*
G02X89177798Y-48515558I-1274374J-1528421D01*
G01*
X87196701Y-45651646D02*
G75*
G03X86942796Y-47718198I944906J-1164969D01*
G01*
X89340277Y-45914844D02*
G75*
G02X89086696Y-47981435I-1198670J-901771D01*
G01*
X88388867Y-53664793D02*
X88543704Y-53683805D01*
X86090130Y-53382544D02*
X86244967Y-53401556D01*
X88705703Y-51083032D02*
G75*
G02X88452122Y-53149623I-1198670J-901771D01*
G01*
X86562128Y-50819835D02*
G75*
G03X86308222Y-52886385I944905J-1164968D01*
G01*
X88781407Y-50456382D02*
G75*
G02X88543224Y-53683746I-1274374J-1528421D01*
G01*
X86640271Y-50193485D02*
G75*
G03X86090611Y-53382603I866762J-1791318D01*
G01*
X26160000Y-49840000D02*
X24700000Y-49840000D01*
X26160000Y-46680000D02*
X24000000Y-46680000D01*
X26160000Y-46680000D02*
X26160000Y-47610000D01*
X26160000Y-49840000D02*
X26160000Y-48910000D01*
X26160000Y-32060000D02*
X24700000Y-32060000D01*
X26160000Y-28900000D02*
X24000000Y-28900000D01*
X26160000Y-28900000D02*
X26160000Y-29830000D01*
X26160000Y-32060000D02*
X26160000Y-31130000D01*
X28700000Y-19360000D02*
X27240000Y-19360000D01*
X28700000Y-16200000D02*
X26540000Y-16200000D01*
X28700000Y-16200000D02*
X28700000Y-17130000D01*
X28700000Y-19360000D02*
X28700000Y-18430000D01*
X22858000Y-60000000D02*
X21398000Y-60000000D01*
X22858000Y-56840000D02*
X20698000Y-56840000D01*
X22858000Y-56840000D02*
X22858000Y-57770000D01*
X22858000Y-60000000D02*
X22858000Y-59070000D01*
X65530000Y-60000000D02*
X64070000Y-60000000D01*
X65530000Y-56840000D02*
X63370000Y-56840000D01*
X65530000Y-56840000D02*
X65530000Y-57770000D01*
X65530000Y-60000000D02*
X65530000Y-59070000D01*
X69340000Y-49840000D02*
X67880000Y-49840000D01*
X69340000Y-46680000D02*
X67180000Y-46680000D01*
X69340000Y-46680000D02*
X69340000Y-47610000D01*
X69340000Y-49840000D02*
X69340000Y-48910000D01*
X69340000Y-32060000D02*
X67880000Y-32060000D01*
X69340000Y-28900000D02*
X67180000Y-28900000D01*
X69340000Y-28900000D02*
X69340000Y-29830000D01*
X69340000Y-32060000D02*
X69340000Y-31130000D01*
X71880000Y-19360000D02*
X70420000Y-19360000D01*
X71880000Y-16200000D02*
X69720000Y-16200000D01*
X71880000Y-16200000D02*
X71880000Y-17130000D01*
X71880000Y-19360000D02*
X71880000Y-18430000D01*
X55916000Y-41876000D02*
X55916000Y-41720000D01*
X55916000Y-39560000D02*
X55916000Y-39404000D01*
X52683665Y-41718608D02*
G75*
G03X55916000Y-41875516I1672335J1078608D01*
G01*
X52683665Y-39561392D02*
G75*
G02X55916000Y-39404484I1672335J-1078608D01*
G01*
X53314870Y-41719837D02*
G75*
G03X55396961Y-41720000I1041130J1079837D01*
G01*
X53314870Y-39560163D02*
G75*
G02X55396961Y-39560000I1041130J-1079837D01*
G01*
X63536000Y-41876000D02*
X63536000Y-41720000D01*
X63536000Y-39560000D02*
X63536000Y-39404000D01*
X60303665Y-41718608D02*
G75*
G03X63536000Y-41875516I1672335J1078608D01*
G01*
X60303665Y-39561392D02*
G75*
G02X63536000Y-39404484I1672335J-1078608D01*
G01*
X60934870Y-41719837D02*
G75*
G03X63016961Y-41720000I1041130J1079837D01*
G01*
X60934870Y-39560163D02*
G75*
G02X63016961Y-39560000I1041130J-1079837D01*
G01*
X71283000Y-41876000D02*
X71283000Y-41720000D01*
X71283000Y-39560000D02*
X71283000Y-39404000D01*
X68050665Y-41718608D02*
G75*
G03X71283000Y-41875516I1672335J1078608D01*
G01*
X68050665Y-39561392D02*
G75*
G02X71283000Y-39404484I1672335J-1078608D01*
G01*
X68681870Y-41719837D02*
G75*
G03X70763961Y-41720000I1041130J1079837D01*
G01*
X68681870Y-39560163D02*
G75*
G02X70763961Y-39560000I1041130J-1079837D01*
G01*
X79030000Y-39560000D02*
X79030000Y-39404000D01*
X79030000Y-41876000D02*
X79030000Y-41720000D01*
X76428870Y-39560163D02*
G75*
G02X78510961Y-39560000I1041130J-1079837D01*
G01*
X76428870Y-41719837D02*
G75*
G03X78510961Y-41720000I1041130J1079837D01*
G01*
X75797665Y-39561392D02*
G75*
G02X79030000Y-39404484I1672335J-1078608D01*
G01*
X75797665Y-41718608D02*
G75*
G03X79030000Y-41875516I1672335J1078608D01*
G01*
X52839018Y-14819832D02*
X52993855Y-14838844D01*
X55137755Y-15102082D02*
X55292592Y-15121093D01*
X53389159Y-11630773D02*
G75*
G03X52839499Y-14819891I866762J-1791318D01*
G01*
X55530295Y-11893670D02*
G75*
G02X55292112Y-15121034I-1274374J-1528421D01*
G01*
X53311015Y-12257122D02*
G75*
G03X53057110Y-14323674I944906J-1164969D01*
G01*
X55454591Y-12520320D02*
G75*
G02X55201010Y-14586911I-1198670J-901771D01*
G01*
X51910374Y-22383034D02*
X52065211Y-22402046D01*
X54209111Y-22665283D02*
X54363948Y-22684295D01*
X52460514Y-19193973D02*
G75*
G03X51910854Y-22383093I866763J-1791319D01*
G01*
X54601653Y-19456872D02*
G75*
G02X54363467Y-22684236I-1274376J-1528420D01*
G01*
X52382371Y-19820323D02*
G75*
G03X52128466Y-21886875I944906J-1164969D01*
G01*
X54525947Y-20083521D02*
G75*
G02X54272366Y-22150113I-1198670J-901771D01*
G01*
X50966252Y-30072289D02*
X51121089Y-30091301D01*
X53264989Y-30354538D02*
X53419826Y-30373550D01*
X51516392Y-26883228D02*
G75*
G03X50966732Y-30072348I866763J-1791319D01*
G01*
X53657531Y-27146126D02*
G75*
G02X53419346Y-30373491I-1274376J-1528421D01*
G01*
X51438249Y-27509578D02*
G75*
G03X51184344Y-29576130I944906J-1164969D01*
G01*
X53581825Y-27772776D02*
G75*
G02X53328244Y-29839368I-1198670J-901771D01*
G01*
X52320867Y-38043793D02*
X52475704Y-38062805D01*
X50022130Y-37761544D02*
X50176967Y-37780556D01*
X52637703Y-35462032D02*
G75*
G02X52384122Y-37528623I-1198670J-901771D01*
G01*
X50494128Y-35198835D02*
G75*
G03X50240222Y-37265385I944905J-1164968D01*
G01*
X52713407Y-34835382D02*
G75*
G02X52475224Y-38062746I-1274374J-1528421D01*
G01*
X50572271Y-34572485D02*
G75*
G03X50022611Y-37761603I866762J-1791318D01*
G01*
X49537018Y-45953332D02*
X49691855Y-45972344D01*
X51835755Y-46235582D02*
X51990592Y-46254593D01*
X50087159Y-42764273D02*
G75*
G03X49537499Y-45953391I866762J-1791318D01*
G01*
X52228295Y-43027170D02*
G75*
G02X51990112Y-46254534I-1274374J-1528421D01*
G01*
X50009015Y-43390622D02*
G75*
G03X49755110Y-45457174I944906J-1164969D01*
G01*
X52152591Y-43653820D02*
G75*
G02X51899010Y-45720411I-1198670J-901771D01*
G01*
X48608374Y-53516534D02*
X48763211Y-53535546D01*
X50907111Y-53798783D02*
X51061948Y-53817795D01*
X49158514Y-50327473D02*
G75*
G03X48608854Y-53516593I866763J-1791319D01*
G01*
X51299653Y-50590372D02*
G75*
G02X51061467Y-53817736I-1274376J-1528420D01*
G01*
X49080371Y-50953823D02*
G75*
G03X48826466Y-53020375I944906J-1164969D01*
G01*
X51223947Y-51217021D02*
G75*
G02X50970366Y-53283613I-1198670J-901771D01*
G01*
X47664252Y-61205789D02*
X47819089Y-61224801D01*
X49962989Y-61488038D02*
X50117826Y-61507050D01*
X48214392Y-58016728D02*
G75*
G03X47664732Y-61205848I866763J-1791319D01*
G01*
X50355531Y-58279626D02*
G75*
G02X50117346Y-61506991I-1274376J-1528421D01*
G01*
X48136249Y-58643078D02*
G75*
G03X47882344Y-60709630I944906J-1164969D01*
G01*
X50279825Y-58906276D02*
G75*
G02X50026244Y-60972868I-1198670J-901771D01*
G01*
X49018867Y-69177293D02*
X49173704Y-69196305D01*
X46720130Y-68895044D02*
X46874967Y-68914056D01*
X49335703Y-66595532D02*
G75*
G02X49082122Y-68662123I-1198670J-901771D01*
G01*
X47192128Y-66332335D02*
G75*
G03X46938222Y-68398885I944905J-1164968D01*
G01*
X49411407Y-65968882D02*
G75*
G02X49173224Y-69196246I-1274374J-1528421D01*
G01*
X47270271Y-65705985D02*
G75*
G03X46720611Y-68895103I866762J-1791318D01*
G01*
X52868000Y-71975000D02*
X52868000Y-71819000D01*
X52868000Y-69659000D02*
X52868000Y-69503000D01*
X49635665Y-71817608D02*
G75*
G03X52868000Y-71974516I1672335J1078608D01*
G01*
X49635665Y-69660392D02*
G75*
G02X52868000Y-69503484I1672335J-1078608D01*
G01*
X50266870Y-71818837D02*
G75*
G03X52348961Y-71819000I1041130J1079837D01*
G01*
X50266870Y-69659163D02*
G75*
G02X52348961Y-69659000I1041130J-1079837D01*
G01*
X60488000Y-71975000D02*
X60488000Y-71819000D01*
X60488000Y-69659000D02*
X60488000Y-69503000D01*
X57255665Y-71817608D02*
G75*
G03X60488000Y-71974516I1672335J1078608D01*
G01*
X57255665Y-69660392D02*
G75*
G02X60488000Y-69503484I1672335J-1078608D01*
G01*
X57886870Y-71818837D02*
G75*
G03X59968961Y-71819000I1041130J1079837D01*
G01*
X57886870Y-69659163D02*
G75*
G02X59968961Y-69659000I1041130J-1079837D01*
G01*
X68235000Y-71975000D02*
X68235000Y-71819000D01*
X68235000Y-69659000D02*
X68235000Y-69503000D01*
X65002665Y-71817608D02*
G75*
G03X68235000Y-71974516I1672335J1078608D01*
G01*
X65002665Y-69660392D02*
G75*
G02X68235000Y-69503484I1672335J-1078608D01*
G01*
X65633870Y-71818837D02*
G75*
G03X67715961Y-71819000I1041130J1079837D01*
G01*
X65633870Y-69659163D02*
G75*
G02X67715961Y-69659000I1041130J-1079837D01*
G01*
X75982000Y-69659000D02*
X75982000Y-69503000D01*
X75982000Y-71975000D02*
X75982000Y-71819000D01*
X73380870Y-69659163D02*
G75*
G02X75462961Y-69659000I1041130J-1079837D01*
G01*
X73380870Y-71818837D02*
G75*
G03X75462961Y-71819000I1041130J1079837D01*
G01*
X72749665Y-69660392D02*
G75*
G02X75982000Y-69503484I1672335J-1078608D01*
G01*
X72749665Y-71817608D02*
G75*
G03X75982000Y-71974516I1672335J1078608D01*
G01*
X79763018Y-45807832D02*
X79917855Y-45826844D01*
X82061755Y-46090082D02*
X82216592Y-46109093D01*
X80313159Y-42618773D02*
G75*
G03X79763499Y-45807891I866762J-1791318D01*
G01*
X82454295Y-42881670D02*
G75*
G02X82216112Y-46109034I-1274374J-1528421D01*
G01*
X80235015Y-43245122D02*
G75*
G03X79981110Y-45311674I944906J-1164969D01*
G01*
X82378591Y-43508320D02*
G75*
G02X82125010Y-45574911I-1198670J-901771D01*
G01*
X78834374Y-53371034D02*
X78989211Y-53390046D01*
X81133111Y-53653283D02*
X81287948Y-53672295D01*
X79384514Y-50181973D02*
G75*
G03X78834854Y-53371093I866763J-1791319D01*
G01*
X81525653Y-50444872D02*
G75*
G02X81287467Y-53672236I-1274376J-1528420D01*
G01*
X79306371Y-50808323D02*
G75*
G03X79052466Y-52874875I944906J-1164969D01*
G01*
X81449947Y-51071521D02*
G75*
G02X81196366Y-53138113I-1198670J-901771D01*
G01*
X77890252Y-61060289D02*
X78045089Y-61079301D01*
X80188989Y-61342538D02*
X80343826Y-61361550D01*
X78440392Y-57871228D02*
G75*
G03X77890732Y-61060348I866763J-1791319D01*
G01*
X80581531Y-58134126D02*
G75*
G02X80343346Y-61361491I-1274376J-1528421D01*
G01*
X78362249Y-58497578D02*
G75*
G03X78108344Y-60564130I944906J-1164969D01*
G01*
X80505825Y-58760776D02*
G75*
G02X80252244Y-60827368I-1198670J-901771D01*
G01*
X79244867Y-69031793D02*
X79399704Y-69050805D01*
X76946130Y-68749544D02*
X77100967Y-68768556D01*
X79561703Y-66450032D02*
G75*
G02X79308122Y-68516623I-1198670J-901771D01*
G01*
X77418128Y-66186835D02*
G75*
G03X77164222Y-68253385I944905J-1164968D01*
G01*
X79637407Y-65823382D02*
G75*
G02X79399224Y-69050746I-1274374J-1528421D01*
G01*
X77496271Y-65560485D02*
G75*
G03X76946611Y-68749603I866762J-1791318D01*
G01*
X83319018Y-15327832D02*
X83473855Y-15346844D01*
X85617755Y-15610082D02*
X85772592Y-15629093D01*
X83869159Y-12138773D02*
G75*
G03X83319499Y-15327891I866762J-1791318D01*
G01*
X86010295Y-12401670D02*
G75*
G02X85772112Y-15629034I-1274374J-1528421D01*
G01*
X83791015Y-12765122D02*
G75*
G03X83537110Y-14831674I944906J-1164969D01*
G01*
X85934591Y-13028320D02*
G75*
G02X85681010Y-15094911I-1198670J-901771D01*
G01*
X82390374Y-22891034D02*
X82545211Y-22910046D01*
X84689111Y-23173283D02*
X84843948Y-23192295D01*
X82940514Y-19701973D02*
G75*
G03X82390854Y-22891093I866763J-1791319D01*
G01*
X85081653Y-19964872D02*
G75*
G02X84843467Y-23192236I-1274376J-1528420D01*
G01*
X82862371Y-20328323D02*
G75*
G03X82608466Y-22394875I944906J-1164969D01*
G01*
X85005947Y-20591521D02*
G75*
G02X84752366Y-22658113I-1198670J-901771D01*
G01*
X81446252Y-30580289D02*
X81601089Y-30599301D01*
X83744989Y-30862538D02*
X83899826Y-30881550D01*
X81996392Y-27391228D02*
G75*
G03X81446732Y-30580348I866763J-1791319D01*
G01*
X84137531Y-27654126D02*
G75*
G02X83899346Y-30881491I-1274376J-1528421D01*
G01*
X81918249Y-28017578D02*
G75*
G03X81664344Y-30084130I944906J-1164969D01*
G01*
X84061825Y-28280776D02*
G75*
G02X83808244Y-30347368I-1198670J-901771D01*
G01*
X82800867Y-38551793D02*
X82955704Y-38570805D01*
X80502130Y-38269544D02*
X80656967Y-38288556D01*
X83117703Y-35970032D02*
G75*
G02X82864122Y-38036623I-1198670J-901771D01*
G01*
X80974128Y-35706835D02*
G75*
G03X80720222Y-37773385I944905J-1164968D01*
G01*
X83193407Y-35343382D02*
G75*
G02X82955224Y-38570746I-1274374J-1528421D01*
G01*
X81052271Y-35080485D02*
G75*
G03X80502611Y-38269603I866762J-1791318D01*
G01*
X59980000Y-11396000D02*
X59980000Y-11240000D01*
X59980000Y-9080000D02*
X59980000Y-8924000D01*
X56747665Y-11238608D02*
G75*
G03X59980000Y-11395516I1672335J1078608D01*
G01*
X56747665Y-9081392D02*
G75*
G02X59980000Y-8924484I1672335J-1078608D01*
G01*
X57378870Y-11239837D02*
G75*
G03X59460961Y-11240000I1041130J1079837D01*
G01*
X57378870Y-9080163D02*
G75*
G02X59460961Y-9080000I1041130J-1079837D01*
G01*
X67600000Y-11396000D02*
X67600000Y-11240000D01*
X67600000Y-9080000D02*
X67600000Y-8924000D01*
X64367665Y-11238608D02*
G75*
G03X67600000Y-11395516I1672335J1078608D01*
G01*
X64367665Y-9081392D02*
G75*
G02X67600000Y-8924484I1672335J-1078608D01*
G01*
X64998870Y-11239837D02*
G75*
G03X67080961Y-11240000I1041130J1079837D01*
G01*
X64998870Y-9080163D02*
G75*
G02X67080961Y-9080000I1041130J-1079837D01*
G01*
X75347000Y-11396000D02*
X75347000Y-11240000D01*
X75347000Y-9080000D02*
X75347000Y-8924000D01*
X72114665Y-11238608D02*
G75*
G03X75347000Y-11395516I1672335J1078608D01*
G01*
X72114665Y-9081392D02*
G75*
G02X75347000Y-8924484I1672335J-1078608D01*
G01*
X72745870Y-11239837D02*
G75*
G03X74827961Y-11240000I1041130J1079837D01*
G01*
X72745870Y-9080163D02*
G75*
G02X74827961Y-9080000I1041130J-1079837D01*
G01*
X83094000Y-9080000D02*
X83094000Y-8924000D01*
X83094000Y-11396000D02*
X83094000Y-11240000D01*
X80492870Y-9080163D02*
G75*
G02X82574961Y-9080000I1041130J-1079837D01*
G01*
X80492870Y-11239837D02*
G75*
G03X82574961Y-11240000I1041130J1079837D01*
G01*
X79861665Y-9081392D02*
G75*
G02X83094000Y-8924484I1672335J-1078608D01*
G01*
X79861665Y-11238608D02*
G75*
G03X83094000Y-11395516I1672335J1078608D01*
G01*
X14260000Y-42130000D02*
X14260000Y-41974000D01*
X14260000Y-39814000D02*
X14260000Y-39658000D01*
X11027665Y-41972608D02*
G75*
G03X14260000Y-42129516I1672335J1078608D01*
G01*
X11027665Y-39815392D02*
G75*
G02X14260000Y-39658484I1672335J-1078608D01*
G01*
X11658870Y-41973837D02*
G75*
G03X13740961Y-41974000I1041130J1079837D01*
G01*
X11658870Y-39814163D02*
G75*
G02X13740961Y-39814000I1041130J-1079837D01*
G01*
X21880000Y-42130000D02*
X21880000Y-41974000D01*
X21880000Y-39814000D02*
X21880000Y-39658000D01*
X18647665Y-41972608D02*
G75*
G03X21880000Y-42129516I1672335J1078608D01*
G01*
X18647665Y-39815392D02*
G75*
G02X21880000Y-39658484I1672335J-1078608D01*
G01*
X19278870Y-41973837D02*
G75*
G03X21360961Y-41974000I1041130J1079837D01*
G01*
X19278870Y-39814163D02*
G75*
G02X21360961Y-39814000I1041130J-1079837D01*
G01*
X29627000Y-42130000D02*
X29627000Y-41974000D01*
X29627000Y-39814000D02*
X29627000Y-39658000D01*
X26394665Y-41972608D02*
G75*
G03X29627000Y-42129516I1672335J1078608D01*
G01*
X26394665Y-39815392D02*
G75*
G02X29627000Y-39658484I1672335J-1078608D01*
G01*
X27025870Y-41973837D02*
G75*
G03X29107961Y-41974000I1041130J1079837D01*
G01*
X27025870Y-39814163D02*
G75*
G02X29107961Y-39814000I1041130J-1079837D01*
G01*
X37374000Y-39814000D02*
X37374000Y-39658000D01*
X37374000Y-42130000D02*
X37374000Y-41974000D01*
X34772870Y-39814163D02*
G75*
G02X36854961Y-39814000I1041130J-1079837D01*
G01*
X34772870Y-41973837D02*
G75*
G03X36854961Y-41974000I1041130J1079837D01*
G01*
X34141665Y-39815392D02*
G75*
G02X37374000Y-39658484I1672335J-1078608D01*
G01*
X34141665Y-41972608D02*
G75*
G03X37374000Y-42129516I1672335J1078608D01*
G01*
X10720718Y-15835832D02*
X10875555Y-15854844D01*
X13019455Y-16118082D02*
X13174292Y-16137093D01*
X11270859Y-12646773D02*
G75*
G03X10721199Y-15835891I866762J-1791318D01*
G01*
X13411995Y-12909670D02*
G75*
G02X13173812Y-16137034I-1274374J-1528421D01*
G01*
X11192715Y-13273122D02*
G75*
G03X10938810Y-15339674I944906J-1164969D01*
G01*
X13336291Y-13536320D02*
G75*
G02X13082710Y-15602911I-1198670J-901771D01*
G01*
X9792074Y-23399034D02*
X9946911Y-23418046D01*
X12090811Y-23681283D02*
X12245648Y-23700295D01*
X10342214Y-20209973D02*
G75*
G03X9792554Y-23399093I866763J-1791319D01*
G01*
X12483353Y-20472872D02*
G75*
G02X12245167Y-23700236I-1274376J-1528420D01*
G01*
X10264071Y-20836323D02*
G75*
G03X10010166Y-22902875I944906J-1164969D01*
G01*
X12407647Y-21099521D02*
G75*
G02X12154066Y-23166113I-1198670J-901771D01*
G01*
X8847952Y-31088289D02*
X9002789Y-31107301D01*
X11146689Y-31370538D02*
X11301526Y-31389550D01*
X9398092Y-27899228D02*
G75*
G03X8848432Y-31088348I866763J-1791319D01*
G01*
X11539231Y-28162126D02*
G75*
G02X11301046Y-31389491I-1274376J-1528421D01*
G01*
X9319949Y-28525578D02*
G75*
G03X9066044Y-30592130I944906J-1164969D01*
G01*
X11463525Y-28788776D02*
G75*
G02X11209944Y-30855368I-1198670J-901771D01*
G01*
X10202567Y-39059793D02*
X10357404Y-39078805D01*
X7903830Y-38777544D02*
X8058667Y-38796556D01*
X10519403Y-36478032D02*
G75*
G02X10265822Y-38544623I-1198670J-901771D01*
G01*
X8375828Y-36214835D02*
G75*
G03X8121922Y-38281385I944905J-1164968D01*
G01*
X10595107Y-35851382D02*
G75*
G02X10356924Y-39078746I-1274374J-1528421D01*
G01*
X8453971Y-35588485D02*
G75*
G03X7904311Y-38777603I866762J-1791318D01*
G01*
X7119018Y-45680832D02*
X7273855Y-45699844D01*
X9417755Y-45963082D02*
X9572592Y-45982093D01*
X7669159Y-42491773D02*
G75*
G03X7119499Y-45680891I866762J-1791318D01*
G01*
X9810295Y-42754670D02*
G75*
G02X9572112Y-45982034I-1274374J-1528421D01*
G01*
X7591015Y-43118122D02*
G75*
G03X7337110Y-45184674I944906J-1164969D01*
G01*
X9734591Y-43381320D02*
G75*
G02X9481010Y-45447911I-1198670J-901771D01*
G01*
X6190374Y-53244034D02*
X6345211Y-53263046D01*
X8489111Y-53526283D02*
X8643948Y-53545295D01*
X6740514Y-50054973D02*
G75*
G03X6190854Y-53244093I866763J-1791319D01*
G01*
X8881653Y-50317872D02*
G75*
G02X8643467Y-53545236I-1274376J-1528420D01*
G01*
X6662371Y-50681323D02*
G75*
G03X6408466Y-52747875I944906J-1164969D01*
G01*
X8805947Y-50944521D02*
G75*
G02X8552366Y-53011113I-1198670J-901771D01*
G01*
X5246252Y-60933289D02*
X5401089Y-60952301D01*
X7544989Y-61215538D02*
X7699826Y-61234550D01*
X5796392Y-57744228D02*
G75*
G03X5246732Y-60933348I866763J-1791319D01*
G01*
X7937531Y-58007126D02*
G75*
G02X7699346Y-61234491I-1274376J-1528421D01*
G01*
X5718249Y-58370578D02*
G75*
G03X5464344Y-60437130I944906J-1164969D01*
G01*
X7861825Y-58633776D02*
G75*
G02X7608244Y-60700368I-1198670J-901771D01*
G01*
X6600867Y-68904793D02*
X6755704Y-68923805D01*
X4302130Y-68622544D02*
X4456967Y-68641556D01*
X6917703Y-66323032D02*
G75*
G02X6664122Y-68389623I-1198670J-901771D01*
G01*
X4774128Y-66059835D02*
G75*
G03X4520222Y-68126385I944905J-1164968D01*
G01*
X6993407Y-65696382D02*
G75*
G02X6755224Y-68923746I-1274374J-1528421D01*
G01*
X4852271Y-65433485D02*
G75*
G03X4302611Y-68622603I866762J-1791318D01*
G01*
X10704000Y-72483000D02*
X10704000Y-72327000D01*
X10704000Y-70167000D02*
X10704000Y-70011000D01*
X7471665Y-72325608D02*
G75*
G03X10704000Y-72482516I1672335J1078608D01*
G01*
X7471665Y-70168392D02*
G75*
G02X10704000Y-70011484I1672335J-1078608D01*
G01*
X8102870Y-72326837D02*
G75*
G03X10184961Y-72327000I1041130J1079837D01*
G01*
X8102870Y-70167163D02*
G75*
G02X10184961Y-70167000I1041130J-1079837D01*
G01*
X18324000Y-72483000D02*
X18324000Y-72327000D01*
X18324000Y-70167000D02*
X18324000Y-70011000D01*
X15091665Y-72325608D02*
G75*
G03X18324000Y-72482516I1672335J1078608D01*
G01*
X15091665Y-70168392D02*
G75*
G02X18324000Y-70011484I1672335J-1078608D01*
G01*
X15722870Y-72326837D02*
G75*
G03X17804961Y-72327000I1041130J1079837D01*
G01*
X15722870Y-70167163D02*
G75*
G02X17804961Y-70167000I1041130J-1079837D01*
G01*
X26071000Y-72483000D02*
X26071000Y-72327000D01*
X26071000Y-70167000D02*
X26071000Y-70011000D01*
X22838665Y-72325608D02*
G75*
G03X26071000Y-72482516I1672335J1078608D01*
G01*
X22838665Y-70168392D02*
G75*
G02X26071000Y-70011484I1672335J-1078608D01*
G01*
X23469870Y-72326837D02*
G75*
G03X25551961Y-72327000I1041130J1079837D01*
G01*
X23469870Y-70167163D02*
G75*
G02X25551961Y-70167000I1041130J-1079837D01*
G01*
X33818000Y-70167000D02*
X33818000Y-70011000D01*
X33818000Y-72483000D02*
X33818000Y-72327000D01*
X31216870Y-70167163D02*
G75*
G02X33298961Y-70167000I1041130J-1079837D01*
G01*
X31216870Y-72326837D02*
G75*
G03X33298961Y-72327000I1041130J1079837D01*
G01*
X30585665Y-70168392D02*
G75*
G02X33818000Y-70011484I1672335J-1078608D01*
G01*
X30585665Y-72325608D02*
G75*
G03X33818000Y-72482516I1672335J1078608D01*
G01*
X37599018Y-46315832D02*
X37753855Y-46334844D01*
X39897755Y-46598082D02*
X40052592Y-46617093D01*
X38149159Y-43126773D02*
G75*
G03X37599499Y-46315891I866762J-1791318D01*
G01*
X40290295Y-43389670D02*
G75*
G02X40052112Y-46617034I-1274374J-1528421D01*
G01*
X38071015Y-43753122D02*
G75*
G03X37817110Y-45819674I944906J-1164969D01*
G01*
X40214591Y-44016320D02*
G75*
G02X39961010Y-46082911I-1198670J-901771D01*
G01*
X36670374Y-53879034D02*
X36825211Y-53898046D01*
X38969111Y-54161283D02*
X39123948Y-54180295D01*
X37220514Y-50689973D02*
G75*
G03X36670854Y-53879093I866763J-1791319D01*
G01*
X39361653Y-50952872D02*
G75*
G02X39123467Y-54180236I-1274376J-1528420D01*
G01*
X37142371Y-51316323D02*
G75*
G03X36888466Y-53382875I944906J-1164969D01*
G01*
X39285947Y-51579521D02*
G75*
G02X39032366Y-53646113I-1198670J-901771D01*
G01*
X35726252Y-61568289D02*
X35881089Y-61587301D01*
X38024989Y-61850538D02*
X38179826Y-61869550D01*
X36276392Y-58379228D02*
G75*
G03X35726732Y-61568348I866763J-1791319D01*
G01*
X38417531Y-58642126D02*
G75*
G02X38179346Y-61869491I-1274376J-1528421D01*
G01*
X36198249Y-59005578D02*
G75*
G03X35944344Y-61072130I944906J-1164969D01*
G01*
X38341825Y-59268776D02*
G75*
G02X38088244Y-61335368I-1198670J-901771D01*
G01*
X37080867Y-69539793D02*
X37235704Y-69558805D01*
X34782130Y-69257544D02*
X34936967Y-69276556D01*
X37397703Y-66958032D02*
G75*
G02X37144122Y-69024623I-1198670J-901771D01*
G01*
X35254128Y-66694835D02*
G75*
G03X35000222Y-68761385I944905J-1164968D01*
G01*
X37473407Y-66331382D02*
G75*
G02X37235224Y-69558746I-1274374J-1528421D01*
G01*
X35332271Y-66068485D02*
G75*
G03X34782611Y-69257603I866762J-1791318D01*
G01*
X41155018Y-15835832D02*
X41309855Y-15854844D01*
X43453755Y-16118082D02*
X43608592Y-16137093D01*
X41705159Y-12646773D02*
G75*
G03X41155499Y-15835891I866762J-1791318D01*
G01*
X43846295Y-12909670D02*
G75*
G02X43608112Y-16137034I-1274374J-1528421D01*
G01*
X41627015Y-13273122D02*
G75*
G03X41373110Y-15339674I944906J-1164969D01*
G01*
X43770591Y-13536320D02*
G75*
G02X43517010Y-15602911I-1198670J-901771D01*
G01*
X40226374Y-23399034D02*
X40381211Y-23418046D01*
X42525111Y-23681283D02*
X42679948Y-23700295D01*
X40776514Y-20209973D02*
G75*
G03X40226854Y-23399093I866763J-1791319D01*
G01*
X42917653Y-20472872D02*
G75*
G02X42679467Y-23700236I-1274376J-1528420D01*
G01*
X40698371Y-20836323D02*
G75*
G03X40444466Y-22902875I944906J-1164969D01*
G01*
X42841947Y-21099521D02*
G75*
G02X42588366Y-23166113I-1198670J-901771D01*
G01*
X39282252Y-31088289D02*
X39437089Y-31107301D01*
X41580989Y-31370538D02*
X41735826Y-31389550D01*
X39832392Y-27899228D02*
G75*
G03X39282732Y-31088348I866763J-1791319D01*
G01*
X41973531Y-28162126D02*
G75*
G02X41735346Y-31389491I-1274376J-1528421D01*
G01*
X39754249Y-28525578D02*
G75*
G03X39500344Y-30592130I944906J-1164969D01*
G01*
X41897825Y-28788776D02*
G75*
G02X41644244Y-30855368I-1198670J-901771D01*
G01*
X40636867Y-39059793D02*
X40791704Y-39078805D01*
X38338130Y-38777544D02*
X38492967Y-38796556D01*
X40953703Y-36478032D02*
G75*
G02X40700122Y-38544623I-1198670J-901771D01*
G01*
X38810128Y-36214835D02*
G75*
G03X38556222Y-38281385I944905J-1164968D01*
G01*
X41029407Y-35851382D02*
G75*
G02X40791224Y-39078746I-1274374J-1528421D01*
G01*
X38888271Y-35588485D02*
G75*
G03X38338611Y-38777603I866762J-1791318D01*
G01*
X17816000Y-11523000D02*
X17816000Y-11367000D01*
X17816000Y-9207000D02*
X17816000Y-9051000D01*
X14583665Y-11365608D02*
G75*
G03X17816000Y-11522516I1672335J1078608D01*
G01*
X14583665Y-9208392D02*
G75*
G02X17816000Y-9051484I1672335J-1078608D01*
G01*
X15214870Y-11366837D02*
G75*
G03X17296961Y-11367000I1041130J1079837D01*
G01*
X15214870Y-9207163D02*
G75*
G02X17296961Y-9207000I1041130J-1079837D01*
G01*
X25436000Y-11523000D02*
X25436000Y-11367000D01*
X25436000Y-9207000D02*
X25436000Y-9051000D01*
X22203665Y-11365608D02*
G75*
G03X25436000Y-11522516I1672335J1078608D01*
G01*
X22203665Y-9208392D02*
G75*
G02X25436000Y-9051484I1672335J-1078608D01*
G01*
X22834870Y-11366837D02*
G75*
G03X24916961Y-11367000I1041130J1079837D01*
G01*
X22834870Y-9207163D02*
G75*
G02X24916961Y-9207000I1041130J-1079837D01*
G01*
X33183000Y-11523000D02*
X33183000Y-11367000D01*
X33183000Y-9207000D02*
X33183000Y-9051000D01*
X29950665Y-11365608D02*
G75*
G03X33183000Y-11522516I1672335J1078608D01*
G01*
X29950665Y-9208392D02*
G75*
G02X33183000Y-9051484I1672335J-1078608D01*
G01*
X30581870Y-11366837D02*
G75*
G03X32663961Y-11367000I1041130J1079837D01*
G01*
X30581870Y-9207163D02*
G75*
G02X32663961Y-9207000I1041130J-1079837D01*
G01*
X40930000Y-9207000D02*
X40930000Y-9051000D01*
X40930000Y-11523000D02*
X40930000Y-11367000D01*
X38328870Y-9207163D02*
G75*
G02X40410961Y-9207000I1041130J-1079837D01*
G01*
X38328870Y-11366837D02*
G75*
G03X40410961Y-11367000I1041130J1079837D01*
G01*
X37697665Y-9208392D02*
G75*
G02X40930000Y-9051484I1672335J-1078608D01*
G01*
X37697665Y-11365608D02*
G75*
G03X40930000Y-11522516I1672335J1078608D01*
G01*
D11*
X85797583Y-41482475D02*
X84805037Y-41360606D01*
X84834054Y-41124286D01*
X84898728Y-40988297D01*
X85004862Y-40905375D01*
X85105194Y-40869718D01*
X85300054Y-40845667D01*
X85441846Y-40863077D01*
X85625099Y-40933554D01*
X85713824Y-40992425D01*
X85796746Y-41098559D01*
X85826600Y-41246155D01*
X85797583Y-41482475D01*
X85983289Y-39970024D02*
X85913649Y-40537193D01*
X85948469Y-40253609D02*
X84955923Y-40131739D01*
X85086109Y-40243678D01*
X85169030Y-40349812D01*
X85204688Y-40450144D01*
X85485759Y-39333215D02*
X85426889Y-39421940D01*
X85373821Y-39463401D01*
X85273490Y-39499059D01*
X85226226Y-39493255D01*
X85137501Y-39434385D01*
X85096040Y-39381317D01*
X85060382Y-39280986D01*
X85083596Y-39091929D01*
X85142466Y-39003204D01*
X85195534Y-38961744D01*
X85295865Y-38926086D01*
X85343129Y-38931889D01*
X85431854Y-38990760D01*
X85473315Y-39043827D01*
X85508973Y-39144159D01*
X85485759Y-39333215D01*
X85521417Y-39433547D01*
X85562878Y-39486614D01*
X85651603Y-39545485D01*
X85840659Y-39568698D01*
X85940990Y-39533041D01*
X85994058Y-39491580D01*
X86052929Y-39402855D01*
X86076142Y-39213799D01*
X86040484Y-39113467D01*
X85999023Y-39060400D01*
X85910299Y-39001529D01*
X85721242Y-38978316D01*
X85620911Y-39013973D01*
X85567843Y-39055434D01*
X85508973Y-39144159D01*
X24638095Y-45212380D02*
X24638095Y-46021904D01*
X24685714Y-46117142D01*
X24733333Y-46164761D01*
X24828571Y-46212380D01*
X25019047Y-46212380D01*
X25114285Y-46164761D01*
X25161904Y-46117142D01*
X25209523Y-46021904D01*
X25209523Y-45212380D01*
X25828571Y-45640952D02*
X25733333Y-45593333D01*
X25685714Y-45545714D01*
X25638095Y-45450476D01*
X25638095Y-45402857D01*
X25685714Y-45307619D01*
X25733333Y-45260000D01*
X25828571Y-45212380D01*
X26019047Y-45212380D01*
X26114285Y-45260000D01*
X26161904Y-45307619D01*
X26209523Y-45402857D01*
X26209523Y-45450476D01*
X26161904Y-45545714D01*
X26114285Y-45593333D01*
X26019047Y-45640952D01*
X25828571Y-45640952D01*
X25733333Y-45688571D01*
X25685714Y-45736190D01*
X25638095Y-45831428D01*
X25638095Y-46021904D01*
X25685714Y-46117142D01*
X25733333Y-46164761D01*
X25828571Y-46212380D01*
X26019047Y-46212380D01*
X26114285Y-46164761D01*
X26161904Y-46117142D01*
X26209523Y-46021904D01*
X26209523Y-45831428D01*
X26161904Y-45736190D01*
X26114285Y-45688571D01*
X26019047Y-45640952D01*
X24638095Y-27432380D02*
X24638095Y-28241904D01*
X24685714Y-28337142D01*
X24733333Y-28384761D01*
X24828571Y-28432380D01*
X25019047Y-28432380D01*
X25114285Y-28384761D01*
X25161904Y-28337142D01*
X25209523Y-28241904D01*
X25209523Y-27432380D01*
X25590476Y-27432380D02*
X26257142Y-27432380D01*
X25828571Y-28432380D01*
X27178095Y-14732380D02*
X27178095Y-15541904D01*
X27225714Y-15637142D01*
X27273333Y-15684761D01*
X27368571Y-15732380D01*
X27559047Y-15732380D01*
X27654285Y-15684761D01*
X27701904Y-15637142D01*
X27749523Y-15541904D01*
X27749523Y-14732380D01*
X28654285Y-14732380D02*
X28463809Y-14732380D01*
X28368571Y-14780000D01*
X28320952Y-14827619D01*
X28225714Y-14970476D01*
X28178095Y-15160952D01*
X28178095Y-15541904D01*
X28225714Y-15637142D01*
X28273333Y-15684761D01*
X28368571Y-15732380D01*
X28559047Y-15732380D01*
X28654285Y-15684761D01*
X28701904Y-15637142D01*
X28749523Y-15541904D01*
X28749523Y-15303809D01*
X28701904Y-15208571D01*
X28654285Y-15160952D01*
X28559047Y-15113333D01*
X28368571Y-15113333D01*
X28273333Y-15160952D01*
X28225714Y-15208571D01*
X28178095Y-15303809D01*
X21336095Y-55372380D02*
X21336095Y-56181904D01*
X21383714Y-56277142D01*
X21431333Y-56324761D01*
X21526571Y-56372380D01*
X21717047Y-56372380D01*
X21812285Y-56324761D01*
X21859904Y-56277142D01*
X21907523Y-56181904D01*
X21907523Y-55372380D01*
X22859904Y-55372380D02*
X22383714Y-55372380D01*
X22336095Y-55848571D01*
X22383714Y-55800952D01*
X22478952Y-55753333D01*
X22717047Y-55753333D01*
X22812285Y-55800952D01*
X22859904Y-55848571D01*
X22907523Y-55943809D01*
X22907523Y-56181904D01*
X22859904Y-56277142D01*
X22812285Y-56324761D01*
X22717047Y-56372380D01*
X22478952Y-56372380D01*
X22383714Y-56324761D01*
X22336095Y-56277142D01*
X64008095Y-55372380D02*
X64008095Y-56181904D01*
X64055714Y-56277142D01*
X64103333Y-56324761D01*
X64198571Y-56372380D01*
X64389047Y-56372380D01*
X64484285Y-56324761D01*
X64531904Y-56277142D01*
X64579523Y-56181904D01*
X64579523Y-55372380D01*
X65484285Y-55705714D02*
X65484285Y-56372380D01*
X65246190Y-55324761D02*
X65008095Y-56039047D01*
X65627142Y-56039047D01*
X67818095Y-45212380D02*
X67818095Y-46021904D01*
X67865714Y-46117142D01*
X67913333Y-46164761D01*
X68008571Y-46212380D01*
X68199047Y-46212380D01*
X68294285Y-46164761D01*
X68341904Y-46117142D01*
X68389523Y-46021904D01*
X68389523Y-45212380D01*
X68770476Y-45212380D02*
X69389523Y-45212380D01*
X69056190Y-45593333D01*
X69199047Y-45593333D01*
X69294285Y-45640952D01*
X69341904Y-45688571D01*
X69389523Y-45783809D01*
X69389523Y-46021904D01*
X69341904Y-46117142D01*
X69294285Y-46164761D01*
X69199047Y-46212380D01*
X68913333Y-46212380D01*
X68818095Y-46164761D01*
X68770476Y-46117142D01*
X67818095Y-27432380D02*
X67818095Y-28241904D01*
X67865714Y-28337142D01*
X67913333Y-28384761D01*
X68008571Y-28432380D01*
X68199047Y-28432380D01*
X68294285Y-28384761D01*
X68341904Y-28337142D01*
X68389523Y-28241904D01*
X68389523Y-27432380D01*
X68818095Y-27527619D02*
X68865714Y-27480000D01*
X68960952Y-27432380D01*
X69199047Y-27432380D01*
X69294285Y-27480000D01*
X69341904Y-27527619D01*
X69389523Y-27622857D01*
X69389523Y-27718095D01*
X69341904Y-27860952D01*
X68770476Y-28432380D01*
X69389523Y-28432380D01*
X70358095Y-14732380D02*
X70358095Y-15541904D01*
X70405714Y-15637142D01*
X70453333Y-15684761D01*
X70548571Y-15732380D01*
X70739047Y-15732380D01*
X70834285Y-15684761D01*
X70881904Y-15637142D01*
X70929523Y-15541904D01*
X70929523Y-14732380D01*
X71929523Y-15732380D02*
X71358095Y-15732380D01*
X71643809Y-15732380D02*
X71643809Y-14732380D01*
X71548571Y-14875238D01*
X71453333Y-14970476D01*
X71358095Y-15018095D01*
X64825714Y-44521380D02*
X64825714Y-43521380D01*
X65063809Y-43521380D01*
X65206666Y-43569000D01*
X65301904Y-43664238D01*
X65349523Y-43759476D01*
X65397142Y-43949952D01*
X65397142Y-44092809D01*
X65349523Y-44283285D01*
X65301904Y-44378523D01*
X65206666Y-44473761D01*
X65063809Y-44521380D01*
X64825714Y-44521380D01*
X66349523Y-44521380D02*
X65778095Y-44521380D01*
X66063809Y-44521380D02*
X66063809Y-43521380D01*
X65968571Y-43664238D01*
X65873333Y-43759476D01*
X65778095Y-43807095D01*
X66682857Y-43521380D02*
X67349523Y-43521380D01*
X66920952Y-44521380D01*
X49729583Y-25861475D02*
X48737037Y-25739606D01*
X48766054Y-25503286D01*
X48830728Y-25367297D01*
X48936862Y-25284375D01*
X49037194Y-25248718D01*
X49232054Y-25224667D01*
X49373846Y-25242077D01*
X49557099Y-25312554D01*
X49645824Y-25371425D01*
X49728746Y-25477559D01*
X49758600Y-25625155D01*
X49729583Y-25861475D01*
X49915289Y-24349024D02*
X49845649Y-24916193D01*
X49880469Y-24632609D02*
X48887923Y-24510739D01*
X49018109Y-24622678D01*
X49101030Y-24728812D01*
X49136688Y-24829144D01*
X49027202Y-23376401D02*
X49003989Y-23565457D01*
X49039647Y-23665789D01*
X49081107Y-23718856D01*
X49211293Y-23830794D01*
X49394546Y-23901272D01*
X49772659Y-23947698D01*
X49872990Y-23912041D01*
X49926058Y-23870580D01*
X49984929Y-23781855D01*
X50008142Y-23592799D01*
X49972484Y-23492467D01*
X49931023Y-23439400D01*
X49842299Y-23380529D01*
X49605978Y-23351512D01*
X49505647Y-23387170D01*
X49452579Y-23428631D01*
X49393708Y-23517356D01*
X49370495Y-23706412D01*
X49406153Y-23806744D01*
X49447614Y-23859811D01*
X49536338Y-23918682D01*
X46427583Y-56994975D02*
X45435037Y-56873106D01*
X45464054Y-56636786D01*
X45528728Y-56500797D01*
X45634862Y-56417875D01*
X45735194Y-56382218D01*
X45930054Y-56358167D01*
X46071846Y-56375577D01*
X46255099Y-56446054D01*
X46343824Y-56504925D01*
X46426746Y-56611059D01*
X46456600Y-56758655D01*
X46427583Y-56994975D01*
X46613289Y-55482524D02*
X46543649Y-56049693D01*
X46578469Y-55766109D02*
X45585923Y-55644239D01*
X45716109Y-55756178D01*
X45799030Y-55862312D01*
X45834688Y-55962644D01*
X45731006Y-54462637D02*
X45672973Y-54935278D01*
X46139810Y-55040575D01*
X46098349Y-54987508D01*
X46062692Y-54887176D01*
X46091708Y-54650856D01*
X46150579Y-54562131D01*
X46203647Y-54520670D01*
X46303978Y-54485012D01*
X46540299Y-54514029D01*
X46629023Y-54572900D01*
X46670484Y-54625967D01*
X46706142Y-54726299D01*
X46677125Y-54962619D01*
X46618255Y-55051344D01*
X46565187Y-55092805D01*
X61777714Y-74620380D02*
X61777714Y-73620380D01*
X62015809Y-73620380D01*
X62158666Y-73668000D01*
X62253904Y-73763238D01*
X62301523Y-73858476D01*
X62349142Y-74048952D01*
X62349142Y-74191809D01*
X62301523Y-74382285D01*
X62253904Y-74477523D01*
X62158666Y-74572761D01*
X62015809Y-74620380D01*
X61777714Y-74620380D01*
X63301523Y-74620380D02*
X62730095Y-74620380D01*
X63015809Y-74620380D02*
X63015809Y-73620380D01*
X62920571Y-73763238D01*
X62825333Y-73858476D01*
X62730095Y-73906095D01*
X64158666Y-73953714D02*
X64158666Y-74620380D01*
X63920571Y-73572761D02*
X63682476Y-74287047D01*
X64301523Y-74287047D01*
X76653583Y-56849475D02*
X75661037Y-56727606D01*
X75690054Y-56491286D01*
X75754728Y-56355297D01*
X75860862Y-56272375D01*
X75961194Y-56236718D01*
X76156054Y-56212667D01*
X76297846Y-56230077D01*
X76481099Y-56300554D01*
X76569824Y-56359425D01*
X76652746Y-56465559D01*
X76682600Y-56613155D01*
X76653583Y-56849475D01*
X76839289Y-55337024D02*
X76769649Y-55904193D01*
X76804469Y-55620609D02*
X75811923Y-55498739D01*
X75942109Y-55610678D01*
X76025030Y-55716812D01*
X76060688Y-55817144D01*
X75887366Y-54884306D02*
X75962809Y-54269873D01*
X76300299Y-54647148D01*
X76317708Y-54505356D01*
X76376579Y-54416631D01*
X76429647Y-54375170D01*
X76529978Y-54339512D01*
X76766299Y-54368529D01*
X76855023Y-54427400D01*
X76896484Y-54480467D01*
X76932142Y-54580799D01*
X76897322Y-54864383D01*
X76838451Y-54953108D01*
X76785384Y-54994569D01*
X80209583Y-26369475D02*
X79217037Y-26247606D01*
X79246054Y-26011286D01*
X79310728Y-25875297D01*
X79416862Y-25792375D01*
X79517194Y-25756718D01*
X79712054Y-25732667D01*
X79853846Y-25750077D01*
X80037099Y-25820554D01*
X80125824Y-25879425D01*
X80208746Y-25985559D01*
X80238600Y-26133155D01*
X80209583Y-26369475D01*
X80395289Y-24857024D02*
X80325649Y-25424193D01*
X80360469Y-25140609D02*
X79367923Y-25018739D01*
X79498109Y-25130678D01*
X79581030Y-25236812D01*
X79616688Y-25337144D01*
X79543697Y-24368649D02*
X79502237Y-24315581D01*
X79466579Y-24215250D01*
X79495596Y-23978929D01*
X79554466Y-23890204D01*
X79607534Y-23848744D01*
X79707865Y-23813086D01*
X79802393Y-23824693D01*
X79938382Y-23889367D01*
X80435912Y-24526175D01*
X80511355Y-23911742D01*
X68889714Y-14041380D02*
X68889714Y-13041380D01*
X69127809Y-13041380D01*
X69270666Y-13089000D01*
X69365904Y-13184238D01*
X69413523Y-13279476D01*
X69461142Y-13469952D01*
X69461142Y-13612809D01*
X69413523Y-13803285D01*
X69365904Y-13898523D01*
X69270666Y-13993761D01*
X69127809Y-14041380D01*
X68889714Y-14041380D01*
X70413523Y-14041380D02*
X69842095Y-14041380D01*
X70127809Y-14041380D02*
X70127809Y-13041380D01*
X70032571Y-13184238D01*
X69937333Y-13279476D01*
X69842095Y-13327095D01*
X71365904Y-14041380D02*
X70794476Y-14041380D01*
X71080190Y-14041380D02*
X71080190Y-13041380D01*
X70984952Y-13184238D01*
X70889714Y-13279476D01*
X70794476Y-13327095D01*
X23645904Y-44775380D02*
X23645904Y-43775380D01*
X23884000Y-43775380D01*
X24026857Y-43823000D01*
X24122095Y-43918238D01*
X24169714Y-44013476D01*
X24217333Y-44203952D01*
X24217333Y-44346809D01*
X24169714Y-44537285D01*
X24122095Y-44632523D01*
X24026857Y-44727761D01*
X23884000Y-44775380D01*
X23645904Y-44775380D01*
X24550666Y-43775380D02*
X25217333Y-43775380D01*
X24788761Y-44775380D01*
X7669316Y-26404834D02*
X6676770Y-26282965D01*
X6705787Y-26046645D01*
X6770461Y-25910656D01*
X6876595Y-25827734D01*
X6976927Y-25792076D01*
X7171787Y-25768026D01*
X7313579Y-25785436D01*
X7496832Y-25855913D01*
X7585557Y-25914784D01*
X7668479Y-26020918D01*
X7698333Y-26168514D01*
X7669316Y-26404834D01*
X6850869Y-24865042D02*
X6827656Y-25054098D01*
X6863313Y-25154430D01*
X6904774Y-25207497D01*
X7034960Y-25319435D01*
X7218213Y-25389913D01*
X7596326Y-25436339D01*
X7696657Y-25400682D01*
X7749725Y-25359221D01*
X7808596Y-25270496D01*
X7831809Y-25081440D01*
X7796151Y-24981108D01*
X7754690Y-24928041D01*
X7665966Y-24869170D01*
X7429645Y-24840153D01*
X7329314Y-24875811D01*
X7276246Y-24917272D01*
X7217375Y-25005997D01*
X7194162Y-25195053D01*
X7229820Y-25295385D01*
X7271281Y-25348452D01*
X7360005Y-25407323D01*
X4067616Y-56249834D02*
X3075070Y-56127965D01*
X3104087Y-55891645D01*
X3168761Y-55755656D01*
X3274895Y-55672734D01*
X3375227Y-55637076D01*
X3570087Y-55613026D01*
X3711879Y-55630436D01*
X3895132Y-55700913D01*
X3983857Y-55759784D01*
X4066779Y-55865918D01*
X4096633Y-56013514D01*
X4067616Y-56249834D01*
X3254973Y-54662778D02*
X3196939Y-55135419D01*
X3663777Y-55240716D01*
X3622316Y-55187649D01*
X3586659Y-55087317D01*
X3615675Y-54850997D01*
X3674546Y-54762272D01*
X3727614Y-54720811D01*
X3827945Y-54685153D01*
X4064266Y-54714170D01*
X4152990Y-54773041D01*
X4194451Y-54826108D01*
X4230109Y-54926440D01*
X4201092Y-55162760D01*
X4142222Y-55251485D01*
X4089154Y-55292946D01*
X20089904Y-75128380D02*
X20089904Y-74128380D01*
X20328000Y-74128380D01*
X20470857Y-74176000D01*
X20566095Y-74271238D01*
X20613714Y-74366476D01*
X20661333Y-74556952D01*
X20661333Y-74699809D01*
X20613714Y-74890285D01*
X20566095Y-74985523D01*
X20470857Y-75080761D01*
X20328000Y-75128380D01*
X20089904Y-75128380D01*
X21518476Y-74461714D02*
X21518476Y-75128380D01*
X21280380Y-74080761D02*
X21042285Y-74795047D01*
X21661333Y-74795047D01*
X34547616Y-56884834D02*
X33555070Y-56762965D01*
X33584087Y-56526645D01*
X33648761Y-56390656D01*
X33754895Y-56307734D01*
X33855227Y-56272076D01*
X34050087Y-56248026D01*
X34191879Y-56265436D01*
X34375132Y-56335913D01*
X34463857Y-56394784D01*
X34546779Y-56500918D01*
X34576633Y-56648514D01*
X34547616Y-56884834D01*
X33665333Y-55864947D02*
X33740776Y-55250514D01*
X34078266Y-55627789D01*
X34095675Y-55485997D01*
X34154546Y-55397272D01*
X34207614Y-55355811D01*
X34307945Y-55320153D01*
X34544266Y-55349170D01*
X34632990Y-55408041D01*
X34674451Y-55461108D01*
X34710109Y-55561440D01*
X34675289Y-55845024D01*
X34616418Y-55933749D01*
X34563351Y-55975210D01*
X38103616Y-26404834D02*
X37111070Y-26282965D01*
X37140087Y-26046645D01*
X37204761Y-25910656D01*
X37310895Y-25827734D01*
X37411227Y-25792076D01*
X37606087Y-25768026D01*
X37747879Y-25785436D01*
X37931132Y-25855913D01*
X38019857Y-25914784D01*
X38102779Y-26020918D01*
X38132633Y-26168514D01*
X38103616Y-26404834D01*
X37321664Y-25349290D02*
X37280204Y-25296222D01*
X37244546Y-25195891D01*
X37273563Y-24959570D01*
X37332433Y-24870845D01*
X37385501Y-24829385D01*
X37485832Y-24793727D01*
X37580360Y-24805334D01*
X37716349Y-24870008D01*
X38213879Y-25506817D01*
X38289322Y-24892383D01*
X27201904Y-14168380D02*
X27201904Y-13168380D01*
X27440000Y-13168380D01*
X27582857Y-13216000D01*
X27678095Y-13311238D01*
X27725714Y-13406476D01*
X27773333Y-13596952D01*
X27773333Y-13739809D01*
X27725714Y-13930285D01*
X27678095Y-14025523D01*
X27582857Y-14120761D01*
X27440000Y-14168380D01*
X27201904Y-14168380D01*
X28725714Y-14168380D02*
X28154285Y-14168380D01*
X28440000Y-14168380D02*
X28440000Y-13168380D01*
X28344761Y-13311238D01*
X28249523Y-13406476D01*
X28154285Y-13454095D01*
M02*
