M48
; DRILL file {KiCad 5.1.5-5.1.5} date Sun 06 Sep 2020 13:46:10 AEST
; FORMAT={3:3/ absolute / metric / suppress trailing zeros}
; #@! TF.CreationDate,2020-09-06T13:46:10+10:00
; #@! TF.GenerationSoftware,Kicad,Pcbnew,5.1.5-5.1.5
; #@! TF.FileFunction,Plated,1,2,PTH
FMAT,2
METRIC,LZ
T1C0.400
T2C0.750
T3C0.800
T4C0.900
T5C1.000
T6C1.016
%
G90
G05
T1
X046829Y-055835
T2
X06223Y-06477
X0635Y-06604
X06477Y-06477
X06477Y-05334
X06604Y-05461
X06731Y-05334
X025146Y-02286
X026416Y-02413
X027686Y-02286
X067564Y-02286
X068834Y-02413
X070104Y-02286
X02159Y-03556
X02286Y-03683
X02413Y-03556
X01397Y-00127
X01524Y0
X01524Y-00254
X021336Y-05334
X022606Y-05461
X023876Y-05334
X01905Y-06477
X02032Y-06604
X02159Y-06477
X07366Y-00127
X07493Y0
X07493Y-00254
X06477Y-03556
X06604Y-03683
X06731Y-03556
T3
X05334Y-00254
X06604Y-00254
X058674Y-05842
X071374Y-05842
X04572Y-08382
X05842Y-08382
X01778Y-03048
X03048Y-03048
X0127Y-0889
X0254Y-0889
X0635Y-07874
X0762Y-07874
X03556Y-0762
X03806Y-0762
X0127Y-08382
X0254Y-08382
X01778Y-04826
X03048Y-04826
X04572Y-0762
X05072Y-0762
X06096Y-04826
X07366Y-04826
X02032Y-01778
X03302Y-01778
X02286Y00127
X03556Y00127
X0127Y-07874
X0254Y-07874
X0635Y-08382
X0762Y-08382
X05334Y00127
X06604Y00127
X06096Y-03048
X07366Y-03048
X02286Y-00254
X03556Y-00254
X0635Y-0889
X0762Y-0889
X01524Y-05842
X02794Y-05842
X03048Y-08382
X04318Y-08382
X0635Y-01778
X0762Y-01778
T4
X053086Y-04064
X055626Y-04064
X060706Y-04064
X063246Y-04064
X068453Y-04064
X070993Y-04064
X0762Y-04064
X07874Y-04064
X05715Y-01016
X05969Y-01016
X06477Y-01016
X06731Y-01016
X072517Y-01016
X075057Y-01016
X080264Y-01016
X082804Y-01016
X087352Y-053245
X087662Y-050724
X087987Y-048077
X088296Y-045556
X08955Y-035346
X08986Y-032825
X090169Y-030304
X090479Y-027783
X047982Y-068758
X048292Y-066237
X048926Y-061069
X049236Y-058548
X049871Y-053379
X05018Y-050858
X050799Y-045816
X051109Y-043295
X051284Y-037624
X051594Y-035103
X052228Y-029935
X052538Y-027414
X053173Y-022246
X053482Y-019725
X054101Y-014683
X054411Y-012162
X050038Y-070739
X052578Y-070739
X057658Y-070739
X060198Y-070739
X065405Y-070739
X067945Y-070739
X073152Y-070739
X075692Y-070739
X014986Y-010287
X017526Y-010287
X022606Y-010287
X025146Y-010287
X030353Y-010287
X032893Y-010287
X0381Y-010287
X04064Y-010287
X0396Y-03864
X03991Y-036119
X040544Y-030951
X040854Y-02843
X041489Y-023262
X041798Y-020741
X042417Y-015699
X042727Y-013178
X078208Y-068612
X078518Y-066091
X079152Y-060923
X079462Y-058402
X080097Y-053234
X080406Y-050713
X081025Y-045671
X081335Y-04315
X036044Y-06912
X036354Y-066599
X036988Y-061431
X037298Y-05891
X037933Y-053742
X038242Y-051221
X038861Y-046179
X039171Y-043658
X009166Y-03864
X009476Y-036119
X01011Y-030951
X01042Y-02843
X011054Y-023262
X011364Y-020741
X011983Y-015699
X012292Y-013178
X01143Y-040894
X01397Y-040894
X01905Y-040894
X02159Y-040894
X026797Y-040894
X029337Y-040894
X034544Y-040894
X037084Y-040894
X005564Y-068485
X005874Y-065964
X006508Y-060796
X006818Y-058275
X007453Y-053107
X007762Y-050586
X008381Y-045544
X008691Y-043023
X007874Y-071247
X010414Y-071247
X015494Y-071247
X018034Y-071247
X023241Y-071247
X025781Y-071247
X030988Y-071247
X033528Y-071247
X081764Y-038132
X082074Y-035611
X082708Y-030443
X083018Y-027922
X083653Y-022754
X083962Y-020233
X084581Y-015191
X084891Y-01267
T5
X00508Y-00762
X00508Y-01016
X00508Y-0127
X00508Y-01524
X00508Y-01778
X00508Y-02032
X09144Y-00762
X09144Y-01016
X09144Y-0127
X09144Y-01524
X09144Y-01778
X09144Y-02032
X-00254Y-05588
X-00254Y-05842
X-00254Y-06096
X-00254Y-0635
X-00254Y-06604
X-00254Y-06858
X-00254Y-07112
X-00254Y-07366
X-00254Y-0762
X-00254Y-07874
X-00254Y-08128
X-00254Y-08382
X08382Y-05588
X08382Y-05842
X08382Y-06096
X08382Y-0635
X08382Y-06604
X08382Y-06858
X08382Y-07112
X08382Y-07366
X08382Y-0762
X08382Y-07874
X08382Y-08128
X08382Y-08382
X03048Y-0889
X03302Y-0889
X03556Y-0889
X0381Y-0889
X04064Y-0889
X04318Y-0889
X04572Y-0889
X04826Y-0889
X0508Y-0889
X05334Y-0889
X05588Y-0889
X05842Y-0889
T6
X04318Y0
X04318Y-00254
X04318Y-00508
X04572Y0
X04572Y-00254
X04572Y-00508
T0
M30
