G04 #@! TF.GenerationSoftware,KiCad,Pcbnew,5.1.5-5.1.5*
G04 #@! TF.CreationDate,2020-09-06T13:46:06+10:00*
G04 #@! TF.ProjectId,7segment,37736567-6d65-46e7-942e-6b696361645f,rev?*
G04 #@! TF.SameCoordinates,PX292dfe0PY1d11680*
G04 #@! TF.FileFunction,Copper,L1,Top*
G04 #@! TF.FilePolarity,Positive*
%FSLAX46Y46*%
G04 Gerber Fmt 4.6, Leading zero omitted, Abs format (unit mm)*
G04 Created by KiCad (PCBNEW 5.1.5-5.1.5) date 2020-09-06 13:46:06*
%MOMM*%
%LPD*%
G04 APERTURE LIST*
%ADD10C,1.600000*%
%ADD11R,1.600000X1.600000*%
%ADD12O,1.700000X1.700000*%
%ADD13R,1.700000X1.700000*%
%ADD14C,0.100000*%
%ADD15C,1.800000*%
%ADD16C,1.879600*%
%ADD17O,1.600000X1.600000*%
%ADD18R,0.900000X0.800000*%
%ADD19R,1.300000X1.300000*%
%ADD20C,1.300000*%
%ADD21R,1.800000X1.800000*%
%ADD22C,0.800000*%
%ADD23C,0.250000*%
%ADD24C,0.500000*%
%ADD25C,0.254000*%
G04 APERTURE END LIST*
D10*
X38060000Y-76200000D03*
D11*
X35560000Y-76200000D03*
D10*
X50720000Y-76200000D03*
X45720000Y-76200000D03*
D12*
X83820000Y-83820000D03*
X83820000Y-81280000D03*
X83820000Y-78740000D03*
X83820000Y-76200000D03*
X83820000Y-73660000D03*
X83820000Y-71120000D03*
X83820000Y-68580000D03*
X83820000Y-66040000D03*
X83820000Y-63500000D03*
X83820000Y-60960000D03*
X83820000Y-58420000D03*
D13*
X83820000Y-55880000D03*
G04 #@! TA.AperFunction,ComponentPad*
D14*
G36*
X90952756Y-31306598D02*
G01*
X89166173Y-31087233D01*
X89385538Y-29300650D01*
X91172121Y-29520015D01*
X90952756Y-31306598D01*
G37*
G04 #@! TD.AperFunction*
D15*
X90478695Y-27782557D03*
G04 #@! TA.AperFunction,ComponentPad*
D14*
G36*
X90333660Y-36348733D02*
G01*
X88547077Y-36129368D01*
X88766442Y-34342785D01*
X90553025Y-34562150D01*
X90333660Y-36348733D01*
G37*
G04 #@! TD.AperFunction*
D15*
X89859599Y-32824692D03*
G04 #@! TA.AperFunction,ComponentPad*
D14*
G36*
X88770442Y-49080122D02*
G01*
X86983859Y-48860757D01*
X87203224Y-47074174D01*
X88989807Y-47293539D01*
X88770442Y-49080122D01*
G37*
G04 #@! TD.AperFunction*
D15*
X88296381Y-45556081D03*
X87661807Y-50724269D03*
G04 #@! TA.AperFunction,ComponentPad*
D14*
G36*
X88135868Y-54248310D02*
G01*
X86349285Y-54028945D01*
X86568650Y-52242362D01*
X88355233Y-52461727D01*
X88135868Y-54248310D01*
G37*
G04 #@! TD.AperFunction*
D16*
X45720000Y0D03*
X43180000Y0D03*
X45720000Y-2540000D03*
X43180000Y-2540000D03*
X45720000Y-5080000D03*
X43180000Y-5080000D03*
D12*
X-2540000Y-83820000D03*
X-2540000Y-81280000D03*
X-2540000Y-78740000D03*
X-2540000Y-76200000D03*
X-2540000Y-73660000D03*
X-2540000Y-71120000D03*
X-2540000Y-68580000D03*
X-2540000Y-66040000D03*
X-2540000Y-63500000D03*
X-2540000Y-60960000D03*
X-2540000Y-58420000D03*
D13*
X-2540000Y-55880000D03*
D12*
X91440000Y-7620000D03*
X91440000Y-10160000D03*
X91440000Y-12700000D03*
X91440000Y-15240000D03*
X91440000Y-17780000D03*
D13*
X91440000Y-20320000D03*
D12*
X5080000Y-7620000D03*
X5080000Y-10160000D03*
X5080000Y-12700000D03*
X5080000Y-15240000D03*
X5080000Y-17780000D03*
D13*
X5080000Y-20320000D03*
D17*
X66040000Y1270000D03*
D10*
X53340000Y1270000D03*
D17*
X22860000Y1270000D03*
D10*
X35560000Y1270000D03*
D18*
X26400000Y-48260000D03*
X24400000Y-49210000D03*
X24400000Y-47310000D03*
X26400000Y-30480000D03*
X24400000Y-31430000D03*
X24400000Y-29530000D03*
X28940000Y-17780000D03*
X26940000Y-18730000D03*
X26940000Y-16830000D03*
X23098000Y-58420000D03*
X21098000Y-59370000D03*
X21098000Y-57470000D03*
X65770000Y-58420000D03*
X63770000Y-59370000D03*
X63770000Y-57470000D03*
X69580000Y-48260000D03*
X67580000Y-49210000D03*
X67580000Y-47310000D03*
X69580000Y-30480000D03*
X67580000Y-31430000D03*
X67580000Y-29530000D03*
X72120000Y-17780000D03*
X70120000Y-18730000D03*
X70120000Y-16830000D03*
D17*
X53340000Y-2540000D03*
D10*
X66040000Y-2540000D03*
D17*
X35560000Y-2540000D03*
D10*
X22860000Y-2540000D03*
D19*
X74930000Y0D03*
D20*
X74930000Y-2540000D03*
X73660000Y-1270000D03*
D19*
X15240000Y0D03*
D20*
X15240000Y-2540000D03*
X13970000Y-1270000D03*
D17*
X25400000Y-88900000D03*
D10*
X12700000Y-88900000D03*
D17*
X25400000Y-83820000D03*
D10*
X12700000Y-83820000D03*
D17*
X25400000Y-78740000D03*
D10*
X12700000Y-78740000D03*
D17*
X43180000Y-83820000D03*
D10*
X30480000Y-83820000D03*
D17*
X45720000Y-83820000D03*
D10*
X58420000Y-83820000D03*
D17*
X63500000Y-78740000D03*
D10*
X76200000Y-78740000D03*
D17*
X63500000Y-83820000D03*
D10*
X76200000Y-83820000D03*
D17*
X63500000Y-88900000D03*
D10*
X76200000Y-88900000D03*
D17*
X30480000Y-48260000D03*
D10*
X17780000Y-48260000D03*
D17*
X30480000Y-30480000D03*
D10*
X17780000Y-30480000D03*
D17*
X33020000Y-17780000D03*
D10*
X20320000Y-17780000D03*
D17*
X27940000Y-58420000D03*
D10*
X15240000Y-58420000D03*
D17*
X71374000Y-58420000D03*
D10*
X58674000Y-58420000D03*
D17*
X73660000Y-48260000D03*
D10*
X60960000Y-48260000D03*
D17*
X73660000Y-30480000D03*
D10*
X60960000Y-30480000D03*
D17*
X76200000Y-17780000D03*
D10*
X63500000Y-17780000D03*
D12*
X30480000Y-88900000D03*
X33020000Y-88900000D03*
X35560000Y-88900000D03*
X38100000Y-88900000D03*
X40640000Y-88900000D03*
X43180000Y-88900000D03*
X45720000Y-88900000D03*
X48260000Y-88900000D03*
X50800000Y-88900000D03*
X53340000Y-88900000D03*
X55880000Y-88900000D03*
D13*
X58420000Y-88900000D03*
D19*
X21336000Y-53340000D03*
D20*
X23876000Y-53340000D03*
X22606000Y-54610000D03*
D19*
X21590000Y-35560000D03*
D20*
X24130000Y-35560000D03*
X22860000Y-36830000D03*
D19*
X25146000Y-22860000D03*
D20*
X27686000Y-22860000D03*
X26416000Y-24130000D03*
D19*
X19050000Y-64770000D03*
D20*
X21590000Y-64770000D03*
X20320000Y-66040000D03*
D19*
X62230000Y-64770000D03*
D20*
X64770000Y-64770000D03*
X63500000Y-66040000D03*
D19*
X64770000Y-53340000D03*
D20*
X67310000Y-53340000D03*
X66040000Y-54610000D03*
D19*
X64770000Y-35560000D03*
D20*
X67310000Y-35560000D03*
X66040000Y-36830000D03*
D19*
X67564000Y-22860000D03*
D20*
X70104000Y-22860000D03*
X68834000Y-24130000D03*
D21*
X55626000Y-40640000D03*
D15*
X53086000Y-40640000D03*
D21*
X63246000Y-40640000D03*
D15*
X60706000Y-40640000D03*
D21*
X70993000Y-40640000D03*
D15*
X68453000Y-40640000D03*
X76200000Y-40640000D03*
D21*
X78740000Y-40640000D03*
G04 #@! TA.AperFunction,ComponentPad*
D14*
G36*
X54884756Y-15685598D02*
G01*
X53098173Y-15466233D01*
X53317538Y-13679650D01*
X55104121Y-13899015D01*
X54884756Y-15685598D01*
G37*
G04 #@! TD.AperFunction*
D15*
X54410695Y-12161557D03*
G04 #@! TA.AperFunction,ComponentPad*
D14*
G36*
X53956112Y-23248800D02*
G01*
X52169529Y-23029435D01*
X52388894Y-21242852D01*
X54175477Y-21462217D01*
X53956112Y-23248800D01*
G37*
G04 #@! TD.AperFunction*
D15*
X53482051Y-19724759D03*
G04 #@! TA.AperFunction,ComponentPad*
D14*
G36*
X53011990Y-30938055D02*
G01*
X51225407Y-30718690D01*
X51444772Y-28932107D01*
X53231355Y-29151472D01*
X53011990Y-30938055D01*
G37*
G04 #@! TD.AperFunction*
D15*
X52537929Y-27414014D03*
X51593807Y-35103269D03*
G04 #@! TA.AperFunction,ComponentPad*
D14*
G36*
X52067868Y-38627310D02*
G01*
X50281285Y-38407945D01*
X50500650Y-36621362D01*
X52287233Y-36840727D01*
X52067868Y-38627310D01*
G37*
G04 #@! TD.AperFunction*
G04 #@! TA.AperFunction,ComponentPad*
G36*
X51582756Y-46819098D02*
G01*
X49796173Y-46599733D01*
X50015538Y-44813150D01*
X51802121Y-45032515D01*
X51582756Y-46819098D01*
G37*
G04 #@! TD.AperFunction*
D15*
X51108695Y-43295057D03*
G04 #@! TA.AperFunction,ComponentPad*
D14*
G36*
X50654112Y-54382300D02*
G01*
X48867529Y-54162935D01*
X49086894Y-52376352D01*
X50873477Y-52595717D01*
X50654112Y-54382300D01*
G37*
G04 #@! TD.AperFunction*
D15*
X50180051Y-50858259D03*
G04 #@! TA.AperFunction,ComponentPad*
D14*
G36*
X49709990Y-62071555D02*
G01*
X47923407Y-61852190D01*
X48142772Y-60065607D01*
X49929355Y-60284972D01*
X49709990Y-62071555D01*
G37*
G04 #@! TD.AperFunction*
D15*
X49235929Y-58547514D03*
X48291807Y-66236769D03*
G04 #@! TA.AperFunction,ComponentPad*
D14*
G36*
X48765868Y-69760810D02*
G01*
X46979285Y-69541445D01*
X47198650Y-67754862D01*
X48985233Y-67974227D01*
X48765868Y-69760810D01*
G37*
G04 #@! TD.AperFunction*
D21*
X52578000Y-70739000D03*
D15*
X50038000Y-70739000D03*
D21*
X60198000Y-70739000D03*
D15*
X57658000Y-70739000D03*
D21*
X67945000Y-70739000D03*
D15*
X65405000Y-70739000D03*
X73152000Y-70739000D03*
D21*
X75692000Y-70739000D03*
G04 #@! TA.AperFunction,ComponentPad*
D14*
G36*
X81808756Y-46673598D02*
G01*
X80022173Y-46454233D01*
X80241538Y-44667650D01*
X82028121Y-44887015D01*
X81808756Y-46673598D01*
G37*
G04 #@! TD.AperFunction*
D15*
X81334695Y-43149557D03*
G04 #@! TA.AperFunction,ComponentPad*
D14*
G36*
X80880112Y-54236800D02*
G01*
X79093529Y-54017435D01*
X79312894Y-52230852D01*
X81099477Y-52450217D01*
X80880112Y-54236800D01*
G37*
G04 #@! TD.AperFunction*
D15*
X80406051Y-50712759D03*
G04 #@! TA.AperFunction,ComponentPad*
D14*
G36*
X79935990Y-61926055D02*
G01*
X78149407Y-61706690D01*
X78368772Y-59920107D01*
X80155355Y-60139472D01*
X79935990Y-61926055D01*
G37*
G04 #@! TD.AperFunction*
D15*
X79461929Y-58402014D03*
X78517807Y-66091269D03*
G04 #@! TA.AperFunction,ComponentPad*
D14*
G36*
X78991868Y-69615310D02*
G01*
X77205285Y-69395945D01*
X77424650Y-67609362D01*
X79211233Y-67828727D01*
X78991868Y-69615310D01*
G37*
G04 #@! TD.AperFunction*
G04 #@! TA.AperFunction,ComponentPad*
G36*
X85364756Y-16193598D02*
G01*
X83578173Y-15974233D01*
X83797538Y-14187650D01*
X85584121Y-14407015D01*
X85364756Y-16193598D01*
G37*
G04 #@! TD.AperFunction*
D15*
X84890695Y-12669557D03*
G04 #@! TA.AperFunction,ComponentPad*
D14*
G36*
X84436112Y-23756800D02*
G01*
X82649529Y-23537435D01*
X82868894Y-21750852D01*
X84655477Y-21970217D01*
X84436112Y-23756800D01*
G37*
G04 #@! TD.AperFunction*
D15*
X83962051Y-20232759D03*
G04 #@! TA.AperFunction,ComponentPad*
D14*
G36*
X83491990Y-31446055D02*
G01*
X81705407Y-31226690D01*
X81924772Y-29440107D01*
X83711355Y-29659472D01*
X83491990Y-31446055D01*
G37*
G04 #@! TD.AperFunction*
D15*
X83017929Y-27922014D03*
X82073807Y-35611269D03*
G04 #@! TA.AperFunction,ComponentPad*
D14*
G36*
X82547868Y-39135310D02*
G01*
X80761285Y-38915945D01*
X80980650Y-37129362D01*
X82767233Y-37348727D01*
X82547868Y-39135310D01*
G37*
G04 #@! TD.AperFunction*
D21*
X59690000Y-10160000D03*
D15*
X57150000Y-10160000D03*
D21*
X67310000Y-10160000D03*
D15*
X64770000Y-10160000D03*
D21*
X75057000Y-10160000D03*
D15*
X72517000Y-10160000D03*
X80264000Y-10160000D03*
D21*
X82804000Y-10160000D03*
X13970000Y-40894000D03*
D15*
X11430000Y-40894000D03*
D21*
X21590000Y-40894000D03*
D15*
X19050000Y-40894000D03*
D21*
X29337000Y-40894000D03*
D15*
X26797000Y-40894000D03*
X34544000Y-40894000D03*
D21*
X37084000Y-40894000D03*
G04 #@! TA.AperFunction,ComponentPad*
D14*
G36*
X12766456Y-16701598D02*
G01*
X10979873Y-16482233D01*
X11199238Y-14695650D01*
X12985821Y-14915015D01*
X12766456Y-16701598D01*
G37*
G04 #@! TD.AperFunction*
D15*
X12292395Y-13177557D03*
G04 #@! TA.AperFunction,ComponentPad*
D14*
G36*
X11837812Y-24264800D02*
G01*
X10051229Y-24045435D01*
X10270594Y-22258852D01*
X12057177Y-22478217D01*
X11837812Y-24264800D01*
G37*
G04 #@! TD.AperFunction*
D15*
X11363751Y-20740759D03*
G04 #@! TA.AperFunction,ComponentPad*
D14*
G36*
X10893690Y-31954055D02*
G01*
X9107107Y-31734690D01*
X9326472Y-29948107D01*
X11113055Y-30167472D01*
X10893690Y-31954055D01*
G37*
G04 #@! TD.AperFunction*
D15*
X10419629Y-28430014D03*
X9475507Y-36119269D03*
G04 #@! TA.AperFunction,ComponentPad*
D14*
G36*
X9949568Y-39643310D02*
G01*
X8162985Y-39423945D01*
X8382350Y-37637362D01*
X10168933Y-37856727D01*
X9949568Y-39643310D01*
G37*
G04 #@! TD.AperFunction*
G04 #@! TA.AperFunction,ComponentPad*
G36*
X9164756Y-46546598D02*
G01*
X7378173Y-46327233D01*
X7597538Y-44540650D01*
X9384121Y-44760015D01*
X9164756Y-46546598D01*
G37*
G04 #@! TD.AperFunction*
D15*
X8690695Y-43022557D03*
G04 #@! TA.AperFunction,ComponentPad*
D14*
G36*
X8236112Y-54109800D02*
G01*
X6449529Y-53890435D01*
X6668894Y-52103852D01*
X8455477Y-52323217D01*
X8236112Y-54109800D01*
G37*
G04 #@! TD.AperFunction*
D15*
X7762051Y-50585759D03*
G04 #@! TA.AperFunction,ComponentPad*
D14*
G36*
X7291990Y-61799055D02*
G01*
X5505407Y-61579690D01*
X5724772Y-59793107D01*
X7511355Y-60012472D01*
X7291990Y-61799055D01*
G37*
G04 #@! TD.AperFunction*
D15*
X6817929Y-58275014D03*
X5873807Y-65964269D03*
G04 #@! TA.AperFunction,ComponentPad*
D14*
G36*
X6347868Y-69488310D02*
G01*
X4561285Y-69268945D01*
X4780650Y-67482362D01*
X6567233Y-67701727D01*
X6347868Y-69488310D01*
G37*
G04 #@! TD.AperFunction*
D21*
X10414000Y-71247000D03*
D15*
X7874000Y-71247000D03*
D21*
X18034000Y-71247000D03*
D15*
X15494000Y-71247000D03*
D21*
X25781000Y-71247000D03*
D15*
X23241000Y-71247000D03*
X30988000Y-71247000D03*
D21*
X33528000Y-71247000D03*
G04 #@! TA.AperFunction,ComponentPad*
D14*
G36*
X39644756Y-47181598D02*
G01*
X37858173Y-46962233D01*
X38077538Y-45175650D01*
X39864121Y-45395015D01*
X39644756Y-47181598D01*
G37*
G04 #@! TD.AperFunction*
D15*
X39170695Y-43657557D03*
G04 #@! TA.AperFunction,ComponentPad*
D14*
G36*
X38716112Y-54744800D02*
G01*
X36929529Y-54525435D01*
X37148894Y-52738852D01*
X38935477Y-52958217D01*
X38716112Y-54744800D01*
G37*
G04 #@! TD.AperFunction*
D15*
X38242051Y-51220759D03*
G04 #@! TA.AperFunction,ComponentPad*
D14*
G36*
X37771990Y-62434055D02*
G01*
X35985407Y-62214690D01*
X36204772Y-60428107D01*
X37991355Y-60647472D01*
X37771990Y-62434055D01*
G37*
G04 #@! TD.AperFunction*
D15*
X37297929Y-58910014D03*
X36353807Y-66599269D03*
G04 #@! TA.AperFunction,ComponentPad*
D14*
G36*
X36827868Y-70123310D02*
G01*
X35041285Y-69903945D01*
X35260650Y-68117362D01*
X37047233Y-68336727D01*
X36827868Y-70123310D01*
G37*
G04 #@! TD.AperFunction*
G04 #@! TA.AperFunction,ComponentPad*
G36*
X43200756Y-16701598D02*
G01*
X41414173Y-16482233D01*
X41633538Y-14695650D01*
X43420121Y-14915015D01*
X43200756Y-16701598D01*
G37*
G04 #@! TD.AperFunction*
D15*
X42726695Y-13177557D03*
G04 #@! TA.AperFunction,ComponentPad*
D14*
G36*
X42272112Y-24264800D02*
G01*
X40485529Y-24045435D01*
X40704894Y-22258852D01*
X42491477Y-22478217D01*
X42272112Y-24264800D01*
G37*
G04 #@! TD.AperFunction*
D15*
X41798051Y-20740759D03*
G04 #@! TA.AperFunction,ComponentPad*
D14*
G36*
X41327990Y-31954055D02*
G01*
X39541407Y-31734690D01*
X39760772Y-29948107D01*
X41547355Y-30167472D01*
X41327990Y-31954055D01*
G37*
G04 #@! TD.AperFunction*
D15*
X40853929Y-28430014D03*
X39909807Y-36119269D03*
G04 #@! TA.AperFunction,ComponentPad*
D14*
G36*
X40383868Y-39643310D02*
G01*
X38597285Y-39423945D01*
X38816650Y-37637362D01*
X40603233Y-37856727D01*
X40383868Y-39643310D01*
G37*
G04 #@! TD.AperFunction*
D21*
X17526000Y-10287000D03*
D15*
X14986000Y-10287000D03*
D21*
X25146000Y-10287000D03*
D15*
X22606000Y-10287000D03*
D21*
X32893000Y-10287000D03*
D15*
X30353000Y-10287000D03*
X38100000Y-10287000D03*
D21*
X40640000Y-10287000D03*
D22*
X46829100Y-55835200D03*
D23*
X11430000Y-41663900D02*
X10049400Y-41663900D01*
X10049400Y-41663900D02*
X8690700Y-43022600D01*
X39170700Y-43657600D02*
X13423700Y-43657600D01*
X13423700Y-43657600D02*
X11430000Y-41663900D01*
X11430000Y-41663900D02*
X11430000Y-40894000D01*
X5080000Y-7620000D02*
X6255300Y-7620000D01*
X6255300Y-7620000D02*
X6255300Y-7179300D01*
X6255300Y-7179300D02*
X15861100Y2426500D01*
X15861100Y2426500D02*
X43293500Y2426500D01*
X43293500Y2426500D02*
X45720000Y0D01*
X45720000Y0D02*
X53677400Y0D01*
X53677400Y0D02*
X57407800Y-3730400D01*
X57407800Y-3730400D02*
X86375100Y-3730400D01*
X86375100Y-3730400D02*
X90264700Y-7620000D01*
X91440000Y-7620000D02*
X90264700Y-7620000D01*
X43180000Y0D02*
X44450000Y-1270000D01*
X44450000Y-1270000D02*
X50478400Y-1270000D01*
X50478400Y-1270000D02*
X53389200Y-4180800D01*
X53389200Y-4180800D02*
X84285500Y-4180800D01*
X84285500Y-4180800D02*
X90264700Y-10160000D01*
X91440000Y-10160000D02*
X90264700Y-10160000D01*
X6255300Y-10160000D02*
X12743600Y-3671700D01*
X12743600Y-3671700D02*
X23535000Y-3671700D01*
X23535000Y-3671700D02*
X26387200Y-819500D01*
X26387200Y-819500D02*
X42360500Y-819500D01*
X42360500Y-819500D02*
X43180000Y0D01*
X5080000Y-10160000D02*
X6255300Y-10160000D01*
X5080000Y-12700000D02*
X6255300Y-12700000D01*
X6255300Y-12700000D02*
X14337800Y-4617500D01*
X14337800Y-4617500D02*
X30793400Y-4617500D01*
X30793400Y-4617500D02*
X34140900Y-1270000D01*
X34140900Y-1270000D02*
X43756200Y-1270000D01*
X43756200Y-1270000D02*
X45026200Y-2540000D01*
X45026200Y-2540000D02*
X45720000Y-2540000D01*
X45720000Y-2540000D02*
X51034700Y-2540000D01*
X51034700Y-2540000D02*
X53871200Y-5376500D01*
X53871200Y-5376500D02*
X82941200Y-5376500D01*
X82941200Y-5376500D02*
X90264700Y-12700000D01*
X91440000Y-12700000D02*
X90264700Y-12700000D01*
X6255300Y-15240000D02*
X16196000Y-5299300D01*
X16196000Y-5299300D02*
X36173200Y-5299300D01*
X36173200Y-5299300D02*
X38932500Y-2540000D01*
X38932500Y-2540000D02*
X43180000Y-2540000D01*
X43180000Y-2540000D02*
X43873800Y-2540000D01*
X43873800Y-2540000D02*
X45143800Y-3810000D01*
X45143800Y-3810000D02*
X51539300Y-3810000D01*
X51539300Y-3810000D02*
X53819900Y-6090600D01*
X53819900Y-6090600D02*
X82969400Y-6090600D01*
X82969400Y-6090600D02*
X90943500Y-14064700D01*
X90943500Y-14064700D02*
X91440000Y-14064700D01*
X91440000Y-15240000D02*
X91440000Y-14064700D01*
X5080000Y-15240000D02*
X6255300Y-15240000D01*
X45720000Y-5080000D02*
X47180900Y-6540900D01*
X47180900Y-6540900D02*
X82145900Y-6540900D01*
X82145900Y-6540900D02*
X90264700Y-14659700D01*
X90264700Y-14659700D02*
X90264700Y-15796800D01*
X90264700Y-15796800D02*
X91072600Y-16604700D01*
X91072600Y-16604700D02*
X91440000Y-16604700D01*
X5080000Y-17780000D02*
X14248800Y-8611200D01*
X14248800Y-8611200D02*
X35948100Y-8611200D01*
X35948100Y-8611200D02*
X40749300Y-3810000D01*
X40749300Y-3810000D02*
X44450000Y-3810000D01*
X44450000Y-3810000D02*
X45720000Y-5080000D01*
X91440000Y-17780000D02*
X91440000Y-16604700D01*
X43180000Y-5080000D02*
X45849300Y-7749300D01*
X45849300Y-7749300D02*
X82712100Y-7749300D01*
X82712100Y-7749300D02*
X87924800Y-12962000D01*
X87924800Y-12962000D02*
X87924800Y-15996800D01*
X87924800Y-15996800D02*
X91072700Y-19144700D01*
X91072700Y-19144700D02*
X91440000Y-19144700D01*
X5080000Y-19144700D02*
X5447400Y-19144700D01*
X5447400Y-19144700D02*
X6255300Y-18336800D01*
X6255300Y-18336800D02*
X6255300Y-17241600D01*
X6255300Y-17241600D02*
X14435300Y-9061600D01*
X14435300Y-9061600D02*
X39198400Y-9061600D01*
X39198400Y-9061600D02*
X43180000Y-5080000D01*
X91440000Y-20320000D02*
X91440000Y-19144700D01*
X5080000Y-20320000D02*
X5080000Y-19144700D01*
X54410700Y-12161600D02*
X56412300Y-10160000D01*
X56412300Y-10160000D02*
X57150000Y-10160000D01*
X82804000Y-10160000D02*
X81578700Y-10160000D01*
X81578700Y-10160000D02*
X81578700Y-10619600D01*
X81578700Y-10619600D02*
X80813000Y-11385300D01*
X80813000Y-11385300D02*
X77198900Y-11385300D01*
X77198900Y-11385300D02*
X70579500Y-18004700D01*
X70579500Y-18004700D02*
X70120000Y-18004700D01*
X70120000Y-18730000D02*
X70120000Y-18004700D01*
X63500000Y-17780000D02*
X69895300Y-17780000D01*
X69895300Y-17780000D02*
X70120000Y-18004700D01*
X40640000Y-10287000D02*
X47439100Y-10287000D01*
X47439100Y-10287000D02*
X54932100Y-17780000D01*
X54932100Y-17780000D02*
X63500000Y-17780000D01*
X40640000Y-10287000D02*
X39414700Y-10287000D01*
X39414700Y-10287000D02*
X39414700Y-10746600D01*
X39414700Y-10746600D02*
X38649000Y-11512300D01*
X38649000Y-11512300D02*
X24992700Y-11512300D01*
X24992700Y-11512300D02*
X12637300Y-23867700D01*
X12637300Y-23867700D02*
X12637300Y-30707100D01*
X12637300Y-30707100D02*
X-2540000Y-45884400D01*
X-2540000Y-45884400D02*
X-2540000Y-55880000D01*
X82644700Y-58420000D02*
X80509200Y-56284500D01*
X80509200Y-56284500D02*
X60696500Y-56284500D01*
X60696500Y-56284500D02*
X60246200Y-56734800D01*
X60246200Y-56734800D02*
X320500Y-56734800D01*
X320500Y-56734800D02*
X-1364700Y-58420000D01*
X67580000Y-31430000D02*
X67580000Y-32155300D01*
X81764300Y-38132300D02*
X80398800Y-37964600D01*
X80398800Y-37964600D02*
X74114600Y-37964600D01*
X74114600Y-37964600D02*
X68305300Y-32155300D01*
X68305300Y-32155300D02*
X67580000Y-32155300D01*
X60960000Y-31035500D02*
X66410200Y-31035500D01*
X66410200Y-31035500D02*
X66804700Y-31430000D01*
X39600300Y-38640300D02*
X46649500Y-31591100D01*
X46649500Y-31591100D02*
X60404400Y-31591100D01*
X60404400Y-31591100D02*
X60960000Y-31035500D01*
X60960000Y-31035500D02*
X60960000Y-30480000D01*
X67580000Y-31430000D02*
X66804700Y-31430000D01*
X83820000Y-58420000D02*
X82644700Y-58420000D01*
X-2540000Y-58420000D02*
X-1364700Y-58420000D01*
X46829100Y-55835200D02*
X53384800Y-55835200D01*
X53384800Y-55835200D02*
X60960000Y-48260000D01*
X67580000Y-49210000D02*
X61910000Y-49210000D01*
X61910000Y-49210000D02*
X60960000Y-48260000D01*
X-2540000Y-60960000D02*
X-1364700Y-60960000D01*
X36044300Y-69120300D02*
X34678800Y-68952600D01*
X34678800Y-68952600D02*
X34678800Y-68952500D01*
X34678800Y-68952500D02*
X28050900Y-62324600D01*
X28050900Y-62324600D02*
X-100Y-62324600D01*
X-100Y-62324600D02*
X-1364700Y-60960000D01*
X67580000Y-49210000D02*
X67580000Y-49935300D01*
X67580000Y-49935300D02*
X72678700Y-55034000D01*
X72678700Y-55034000D02*
X79895600Y-55034000D01*
X79895600Y-55034000D02*
X81917000Y-57055400D01*
X81917000Y-57055400D02*
X84117700Y-57055400D01*
X84117700Y-57055400D02*
X85001200Y-57938900D01*
X85001200Y-57938900D02*
X85001200Y-58968800D01*
X85001200Y-58968800D02*
X84185300Y-59784700D01*
X84185300Y-59784700D02*
X83820000Y-59784700D01*
X83820000Y-60960000D02*
X83820000Y-59784700D01*
X33528000Y-71247000D02*
X32302700Y-71247000D01*
X32302700Y-71247000D02*
X32302700Y-70787500D01*
X32302700Y-70787500D02*
X25015200Y-63500000D01*
X25015200Y-63500000D02*
X-2540000Y-63500000D01*
X33528000Y-71247000D02*
X47747000Y-71247000D01*
X47747000Y-71247000D02*
X57336800Y-61657200D01*
X57336800Y-61657200D02*
X59624000Y-59370000D01*
X74466700Y-70739000D02*
X74466700Y-70279400D01*
X74466700Y-70279400D02*
X73701000Y-69513700D01*
X73701000Y-69513700D02*
X65193200Y-69513700D01*
X65193200Y-69513700D02*
X57336800Y-61657200D01*
X75692000Y-70739000D02*
X74466700Y-70739000D01*
X59624000Y-59370000D02*
X58674000Y-58420000D01*
X63770000Y-59370000D02*
X59624000Y-59370000D01*
X5564300Y-68485300D02*
X4198800Y-68317600D01*
X4198800Y-68317600D02*
X4198800Y-68317500D01*
X4198800Y-68317500D02*
X1921300Y-66040000D01*
X1921300Y-66040000D02*
X-2540000Y-66040000D01*
X83820000Y-66040000D02*
X82011600Y-66040000D01*
X82011600Y-66040000D02*
X72706400Y-56734800D01*
X72706400Y-56734800D02*
X61108400Y-56734800D01*
X61108400Y-56734800D02*
X60658000Y-57185200D01*
X60658000Y-57185200D02*
X58237300Y-57185200D01*
X58237300Y-57185200D02*
X50072500Y-65350000D01*
X50072500Y-65350000D02*
X50072500Y-66667600D01*
X50072500Y-66667600D02*
X47982300Y-68757800D01*
X47982300Y-68757800D02*
X46616800Y-68590100D01*
X15240000Y-58420000D02*
X16190000Y-59370000D01*
X16190000Y-59370000D02*
X21098000Y-59370000D01*
X46616800Y-68590100D02*
X46616800Y-68590000D01*
X46616800Y-68590000D02*
X41981700Y-63954900D01*
X41981700Y-63954900D02*
X31883300Y-63954900D01*
X31883300Y-63954900D02*
X27298400Y-59370000D01*
X27298400Y-59370000D02*
X21098000Y-59370000D01*
X51284300Y-37624300D02*
X51116600Y-38989800D01*
X50832500Y-40708000D02*
X50832500Y-39273800D01*
X50832500Y-39273800D02*
X51116500Y-38989800D01*
X51116500Y-38989800D02*
X51116600Y-38989800D01*
X50832500Y-40708000D02*
X51989800Y-41865300D01*
X51989800Y-41865300D02*
X81796100Y-41865300D01*
X81796100Y-41865300D02*
X86521200Y-46590400D01*
X86521200Y-46590400D02*
X86521200Y-48891000D01*
X86521200Y-48891000D02*
X87035700Y-49405500D01*
X87035700Y-49405500D02*
X88098700Y-49405500D01*
X88098700Y-49405500D02*
X88901600Y-50208400D01*
X88901600Y-50208400D02*
X88901600Y-62690400D01*
X88901600Y-62690400D02*
X84187300Y-67404700D01*
X84187300Y-67404700D02*
X83820000Y-67404700D01*
X16215400Y-32722200D02*
X23090600Y-39597400D01*
X23090600Y-39597400D02*
X27249400Y-39597400D01*
X27249400Y-39597400D02*
X28111600Y-40459600D01*
X28111600Y-40459600D02*
X28111600Y-41969700D01*
X28111600Y-41969700D02*
X28267400Y-42125500D01*
X28267400Y-42125500D02*
X49415000Y-42125500D01*
X49415000Y-42125500D02*
X50832500Y-40708000D01*
X20320000Y-18730000D02*
X20320000Y-17780000D01*
X16215400Y-32722200D02*
X16215400Y-22834600D01*
X16215400Y-22834600D02*
X20320000Y-18730000D01*
X20320000Y-18730000D02*
X26164700Y-18730000D01*
X26940000Y-18730000D02*
X26164700Y-18730000D01*
X83820000Y-68580000D02*
X83820000Y-67404700D01*
X9166000Y-38640300D02*
X15084100Y-32722200D01*
X15084100Y-32722200D02*
X16215400Y-32722200D01*
X78740000Y-40640000D02*
X85156900Y-40640000D01*
X85156900Y-40640000D02*
X89543800Y-45026900D01*
X89543800Y-45026900D02*
X89543800Y-64588200D01*
X89543800Y-64588200D02*
X84187300Y-69944700D01*
X84187300Y-69944700D02*
X83820000Y-69944700D01*
X24400000Y-31067300D02*
X18367300Y-31067300D01*
X18367300Y-31067300D02*
X17780000Y-30480000D01*
X24400000Y-31067300D02*
X24400000Y-30704700D01*
X24400000Y-31430000D02*
X24400000Y-31067300D01*
X37790600Y-40009800D02*
X37790600Y-36178300D01*
X37790600Y-36178300D02*
X30930600Y-29318300D01*
X30930600Y-29318300D02*
X26236400Y-29318300D01*
X26236400Y-29318300D02*
X24850000Y-30704700D01*
X24850000Y-30704700D02*
X24400000Y-30704700D01*
X37084000Y-40894000D02*
X37790600Y-40187400D01*
X37790600Y-40187400D02*
X37790600Y-40009800D01*
X77514700Y-40640000D02*
X77514700Y-40180400D01*
X77514700Y-40180400D02*
X76749000Y-39414700D01*
X76749000Y-39414700D02*
X57873700Y-39414700D01*
X57873700Y-39414700D02*
X52303300Y-33844300D01*
X52303300Y-33844300D02*
X46831300Y-33844300D01*
X46831300Y-33844300D02*
X40665800Y-40009800D01*
X40665800Y-40009800D02*
X37790600Y-40009800D01*
X78740000Y-40640000D02*
X77514700Y-40640000D01*
X83820000Y-71120000D02*
X83820000Y-69944700D01*
X24400000Y-49210000D02*
X25175300Y-49210000D01*
X25175300Y-49210000D02*
X25371600Y-49406300D01*
X25371600Y-49406300D02*
X40049400Y-49406300D01*
X40049400Y-49406300D02*
X42205900Y-47249800D01*
X42205900Y-47249800D02*
X55770200Y-47249800D01*
X55770200Y-47249800D02*
X55931200Y-47088800D01*
X55931200Y-47088800D02*
X63488700Y-47088800D01*
X63488700Y-47088800D02*
X64435300Y-48035400D01*
X64435300Y-48035400D02*
X67721300Y-48035400D01*
X67721300Y-48035400D02*
X74248000Y-54562100D01*
X74248000Y-54562100D02*
X86236800Y-54562100D01*
X86236800Y-54562100D02*
X86285500Y-54610800D01*
X86285500Y-54610800D02*
X87184600Y-54610800D01*
X17780000Y-48260000D02*
X18730000Y-49210000D01*
X18730000Y-49210000D02*
X24400000Y-49210000D01*
X87352300Y-53245300D02*
X87184600Y-54610800D01*
D24*
X19050000Y-66327300D02*
X19050000Y-64770000D01*
X38060000Y-76200000D02*
X35615500Y-73755500D01*
X35615500Y-73755500D02*
X31489000Y-73755500D01*
X31489000Y-73755500D02*
X24969900Y-67236400D01*
X24969900Y-67236400D02*
X19959100Y-67236400D01*
X19959100Y-67236400D02*
X19050000Y-66327300D01*
X19050000Y-66327300D02*
X10182500Y-66327300D01*
X10182500Y-66327300D02*
X309800Y-76200000D01*
X309800Y-76200000D02*
X-2540000Y-76200000D01*
X50720000Y-76200000D02*
X82519700Y-76200000D01*
X83820000Y-76200000D02*
X82519700Y-76200000D01*
D23*
X25400000Y-83820000D02*
X26525300Y-83820000D01*
X43180000Y-88900000D02*
X42004700Y-88900000D01*
X42004700Y-88900000D02*
X42004700Y-88532700D01*
X42004700Y-88532700D02*
X38417300Y-84945300D01*
X38417300Y-84945300D02*
X27650600Y-84945300D01*
X27650600Y-84945300D02*
X26525300Y-83820000D01*
X45720000Y-88900000D02*
X44544700Y-88900000D01*
X44544700Y-88900000D02*
X44544700Y-88532700D01*
X44544700Y-88532700D02*
X34752000Y-78740000D01*
X34752000Y-78740000D02*
X25400000Y-78740000D01*
X43180000Y-83820000D02*
X44305300Y-83820000D01*
X48260000Y-88900000D02*
X48260000Y-87724700D01*
X48260000Y-87724700D02*
X47928700Y-87724700D01*
X47928700Y-87724700D02*
X44305300Y-84101300D01*
X44305300Y-84101300D02*
X44305300Y-83820000D01*
X45720000Y-83820000D02*
X46845300Y-83820000D01*
X50800000Y-88900000D02*
X50800000Y-87724700D01*
X50800000Y-87724700D02*
X50750000Y-87724700D01*
X50750000Y-87724700D02*
X46845300Y-83820000D01*
X53340000Y-88900000D02*
X54515300Y-88900000D01*
X54515300Y-88900000D02*
X54515300Y-88532600D01*
X54515300Y-88532600D02*
X55323200Y-87724700D01*
X55323200Y-87724700D02*
X56148200Y-87724700D01*
X56148200Y-87724700D02*
X63500000Y-80372900D01*
X63500000Y-80372900D02*
X63500000Y-78740000D01*
X55880000Y-88900000D02*
X57055300Y-88900000D01*
X57055300Y-88900000D02*
X57055300Y-88092000D01*
X57055300Y-88092000D02*
X61327300Y-83820000D01*
X61327300Y-83820000D02*
X63500000Y-83820000D01*
X58420000Y-88900000D02*
X63500000Y-88900000D01*
D24*
X15240000Y0D02*
X34290000Y0D01*
X34290000Y0D02*
X35560000Y1270000D01*
X74930000Y0D02*
X54610000Y0D01*
X54610000Y0D02*
X53340000Y1270000D01*
X45720000Y-76200000D02*
X47009500Y-77489500D01*
X47009500Y-77489500D02*
X81269200Y-77489500D01*
X81269200Y-77489500D02*
X82519700Y-78740000D01*
X83820000Y-78740000D02*
X82519700Y-78740000D01*
X45720000Y-76200000D02*
X44468600Y-77451400D01*
X44468600Y-77451400D02*
X36811400Y-77451400D01*
X36811400Y-77451400D02*
X35560000Y-76200000D01*
X-1239700Y-78740000D02*
X1300300Y-76200000D01*
X1300300Y-76200000D02*
X34309700Y-76200000D01*
X35560000Y-76200000D02*
X34309700Y-76200000D01*
X-2540000Y-78740000D02*
X-1239700Y-78740000D01*
D23*
X72120000Y-17780000D02*
X75074700Y-17780000D01*
X76200000Y-17780000D02*
X75074700Y-17780000D01*
X70104000Y-22860000D02*
X72120000Y-20844000D01*
X72120000Y-20844000D02*
X72120000Y-17780000D01*
X69580000Y-30480000D02*
X73660000Y-30480000D01*
X69580000Y-48260000D02*
X72534700Y-48260000D01*
X73660000Y-48260000D02*
X72534700Y-48260000D01*
X65770000Y-58420000D02*
X70248700Y-58420000D01*
X71374000Y-58420000D02*
X70248700Y-58420000D01*
X65770000Y-58420000D02*
X65770000Y-63770000D01*
X65770000Y-63770000D02*
X64770000Y-64770000D01*
X23098000Y-58420000D02*
X27940000Y-58420000D01*
X27686000Y-22860000D02*
X28940000Y-21606000D01*
X28940000Y-21606000D02*
X28940000Y-17780000D01*
X28940000Y-17780000D02*
X31894700Y-17780000D01*
X33020000Y-17780000D02*
X31894700Y-17780000D01*
X24130000Y-35560000D02*
X26400000Y-33290000D01*
X26400000Y-33290000D02*
X26400000Y-30480000D01*
X26400000Y-30480000D02*
X29354700Y-30480000D01*
X30480000Y-30480000D02*
X29354700Y-30480000D01*
X26400000Y-48260000D02*
X29354700Y-48260000D01*
X30480000Y-48260000D02*
X29354700Y-48260000D01*
X38100000Y-10287000D02*
X32893000Y-10287000D01*
X34544000Y-40894000D02*
X29337000Y-40894000D01*
X80264000Y-10160000D02*
X75057000Y-10160000D01*
X82708400Y-30443100D02*
X82540700Y-31808600D01*
X82073800Y-35611300D02*
X82540700Y-35144400D01*
X82540700Y-35144400D02*
X82540700Y-31808600D01*
X73152000Y-70739000D02*
X67945000Y-70739000D01*
X76200000Y-40640000D02*
X70993000Y-40640000D01*
X22606000Y-10287000D02*
X17526000Y-10287000D01*
X30353000Y-10287000D02*
X25146000Y-10287000D01*
X41488500Y-23261800D02*
X41320800Y-24627300D01*
X40853900Y-28430000D02*
X41320800Y-27963100D01*
X41320800Y-27963100D02*
X41320800Y-24627300D01*
X15494000Y-71247000D02*
X10414000Y-71247000D01*
X23241000Y-71247000D02*
X18034000Y-71247000D01*
X11054200Y-23261800D02*
X10886500Y-24627300D01*
X10419600Y-28430000D02*
X10886500Y-27963100D01*
X10886500Y-27963100D02*
X10886500Y-24627300D01*
X64770000Y-10160000D02*
X59690000Y-10160000D01*
X72517000Y-10160000D02*
X67310000Y-10160000D01*
X84581100Y-15190600D02*
X84413400Y-16556100D01*
X83962100Y-20232800D02*
X84413400Y-19781500D01*
X84413400Y-19781500D02*
X84413400Y-16556100D01*
X81025100Y-45670600D02*
X80857400Y-47036100D01*
X80406100Y-50712800D02*
X80857400Y-50261500D01*
X80857400Y-50261500D02*
X80857400Y-47036100D01*
X57658000Y-70739000D02*
X52578000Y-70739000D01*
X65405000Y-70739000D02*
X60198000Y-70739000D01*
X26797000Y-40894000D02*
X21590000Y-40894000D01*
X60706000Y-40640000D02*
X55626000Y-40640000D01*
X68453000Y-40640000D02*
X63246000Y-40640000D01*
X90169100Y-30303600D02*
X90001400Y-31669100D01*
X89859600Y-32824700D02*
X90001400Y-32682900D01*
X90001400Y-32682900D02*
X90001400Y-31669100D01*
X29892400Y-88900000D02*
X31565100Y-90572700D01*
X31565100Y-90572700D02*
X76185800Y-90572700D01*
X76185800Y-90572700D02*
X82644700Y-84113800D01*
X82644700Y-84113800D02*
X82644700Y-83820000D01*
X29892400Y-88900000D02*
X28767000Y-87774600D01*
X28767000Y-87774600D02*
X12524600Y-87774600D01*
X12524600Y-87774600D02*
X8570000Y-83820000D01*
X8570000Y-83820000D02*
X-2540000Y-83820000D01*
X83820000Y-83820000D02*
X82644700Y-83820000D01*
X30480000Y-88900000D02*
X29892400Y-88900000D01*
X31844700Y-88900000D02*
X31844700Y-88534700D01*
X31844700Y-88534700D02*
X30085300Y-86775300D01*
X30085300Y-86775300D02*
X20811400Y-86775300D01*
X20811400Y-86775300D02*
X15316100Y-81280000D01*
X15316100Y-81280000D02*
X-2540000Y-81280000D01*
X33020000Y-88900000D02*
X34195300Y-88900000D01*
X83820000Y-81280000D02*
X73540400Y-81280000D01*
X73540400Y-81280000D02*
X64723300Y-90097100D01*
X64723300Y-90097100D02*
X35078900Y-90097100D01*
X35078900Y-90097100D02*
X34195300Y-89213500D01*
X34195300Y-89213500D02*
X34195300Y-88900000D01*
X33020000Y-88900000D02*
X31844700Y-88900000D01*
D25*
G36*
X54368300Y-18291002D02*
G01*
X54392099Y-18320001D01*
X54507824Y-18414974D01*
X54639853Y-18485546D01*
X54783114Y-18529003D01*
X54894767Y-18540000D01*
X54894776Y-18540000D01*
X54932099Y-18543676D01*
X54969422Y-18540000D01*
X62281957Y-18540000D01*
X62385363Y-18694759D01*
X62585241Y-18894637D01*
X62820273Y-19051680D01*
X63081426Y-19159853D01*
X63358665Y-19215000D01*
X63641335Y-19215000D01*
X63918574Y-19159853D01*
X64179727Y-19051680D01*
X64414759Y-18894637D01*
X64614637Y-18694759D01*
X64718043Y-18540000D01*
X69031928Y-18540000D01*
X69031928Y-19130000D01*
X69044188Y-19254482D01*
X69080498Y-19374180D01*
X69139463Y-19484494D01*
X69218815Y-19581185D01*
X69315506Y-19660537D01*
X69425820Y-19719502D01*
X69545518Y-19755812D01*
X69670000Y-19768072D01*
X70570000Y-19768072D01*
X70694482Y-19755812D01*
X70814180Y-19719502D01*
X70924494Y-19660537D01*
X71021185Y-19581185D01*
X71100537Y-19484494D01*
X71159502Y-19374180D01*
X71195812Y-19254482D01*
X71208072Y-19130000D01*
X71208072Y-18618095D01*
X71218815Y-18631185D01*
X71315506Y-18710537D01*
X71360001Y-18734320D01*
X71360000Y-20529198D01*
X70300322Y-21588876D01*
X70230561Y-21575000D01*
X69977439Y-21575000D01*
X69729179Y-21624381D01*
X69495324Y-21721247D01*
X69284860Y-21861875D01*
X69105875Y-22040860D01*
X68965247Y-22251324D01*
X68868381Y-22485179D01*
X68852072Y-22567172D01*
X68852072Y-22210000D01*
X68839812Y-22085518D01*
X68803502Y-21965820D01*
X68744537Y-21855506D01*
X68665185Y-21758815D01*
X68568494Y-21679463D01*
X68458180Y-21620498D01*
X68338482Y-21584188D01*
X68214000Y-21571928D01*
X66914000Y-21571928D01*
X66789518Y-21584188D01*
X66669820Y-21620498D01*
X66559506Y-21679463D01*
X66462815Y-21758815D01*
X66383463Y-21855506D01*
X66324498Y-21965820D01*
X66288188Y-22085518D01*
X66275928Y-22210000D01*
X66275928Y-23510000D01*
X66288188Y-23634482D01*
X66324498Y-23754180D01*
X66383463Y-23864494D01*
X66462815Y-23961185D01*
X66559506Y-24040537D01*
X66669820Y-24099502D01*
X66789518Y-24135812D01*
X66914000Y-24148072D01*
X67549000Y-24148072D01*
X67549000Y-24256561D01*
X67598381Y-24504821D01*
X67695247Y-24738676D01*
X67835875Y-24949140D01*
X68014860Y-25128125D01*
X68225324Y-25268753D01*
X68459179Y-25365619D01*
X68707439Y-25415000D01*
X68960561Y-25415000D01*
X69208821Y-25365619D01*
X69442676Y-25268753D01*
X69653140Y-25128125D01*
X69832125Y-24949140D01*
X69972753Y-24738676D01*
X70069619Y-24504821D01*
X70119000Y-24256561D01*
X70119000Y-24145000D01*
X70230561Y-24145000D01*
X70478821Y-24095619D01*
X70712676Y-23998753D01*
X70923140Y-23858125D01*
X71102125Y-23679140D01*
X71242753Y-23468676D01*
X71339619Y-23234821D01*
X71389000Y-22986561D01*
X71389000Y-22733439D01*
X71375124Y-22663678D01*
X72631004Y-21407798D01*
X72660001Y-21384001D01*
X72754974Y-21268276D01*
X72825546Y-21136247D01*
X72869003Y-20992986D01*
X72880000Y-20881333D01*
X72880000Y-20881332D01*
X72883677Y-20844000D01*
X72880000Y-20806667D01*
X72880000Y-18734320D01*
X72924494Y-18710537D01*
X73021185Y-18631185D01*
X73096018Y-18540000D01*
X74981957Y-18540000D01*
X75085363Y-18694759D01*
X75285241Y-18894637D01*
X75520273Y-19051680D01*
X75781426Y-19159853D01*
X76058665Y-19215000D01*
X76341335Y-19215000D01*
X76618574Y-19159853D01*
X76879727Y-19051680D01*
X77114759Y-18894637D01*
X77314637Y-18694759D01*
X77471680Y-18459727D01*
X77579853Y-18198574D01*
X77635000Y-17921335D01*
X77635000Y-17638665D01*
X77579853Y-17361426D01*
X77471680Y-17100273D01*
X77314637Y-16865241D01*
X77114759Y-16665363D01*
X76879727Y-16508320D01*
X76618574Y-16400147D01*
X76341335Y-16345000D01*
X76058665Y-16345000D01*
X75781426Y-16400147D01*
X75520273Y-16508320D01*
X75285241Y-16665363D01*
X75085363Y-16865241D01*
X74981957Y-17020000D01*
X73096018Y-17020000D01*
X73021185Y-16928815D01*
X72924494Y-16849463D01*
X72849581Y-16809420D01*
X77513702Y-12145300D01*
X80775678Y-12145300D01*
X80813000Y-12148976D01*
X80850322Y-12145300D01*
X80850333Y-12145300D01*
X80961986Y-12134303D01*
X81105247Y-12090846D01*
X81237276Y-12020274D01*
X81353001Y-11925301D01*
X81376803Y-11896298D01*
X81636216Y-11636885D01*
X81659820Y-11649502D01*
X81779518Y-11685812D01*
X81904000Y-11698072D01*
X83693692Y-11698072D01*
X83530396Y-11942462D01*
X83414684Y-12221814D01*
X83355695Y-12518373D01*
X83355695Y-12820741D01*
X83414684Y-13117300D01*
X83530396Y-13396652D01*
X83645889Y-13569500D01*
X83627021Y-13572784D01*
X83510343Y-13617865D01*
X83404702Y-13684842D01*
X83314157Y-13771142D01*
X83242188Y-13873448D01*
X83191562Y-13987829D01*
X83164222Y-14109889D01*
X82944857Y-15896472D01*
X82941856Y-16021519D01*
X82963307Y-16144750D01*
X83008388Y-16261428D01*
X83075365Y-16367069D01*
X83161665Y-16457614D01*
X83263971Y-16529583D01*
X83378352Y-16580209D01*
X83500412Y-16607549D01*
X83653401Y-16626334D01*
X83653400Y-18729081D01*
X83514308Y-18756748D01*
X83234956Y-18872460D01*
X82983546Y-19040447D01*
X82769739Y-19254254D01*
X82601752Y-19505664D01*
X82486040Y-19785016D01*
X82427051Y-20081575D01*
X82427051Y-20383943D01*
X82486040Y-20680502D01*
X82601752Y-20959854D01*
X82717245Y-21132702D01*
X82698377Y-21135986D01*
X82581699Y-21181067D01*
X82476058Y-21248044D01*
X82385513Y-21334344D01*
X82313544Y-21436650D01*
X82262918Y-21551031D01*
X82235578Y-21673091D01*
X82016213Y-23459674D01*
X82013212Y-23584721D01*
X82034663Y-23707952D01*
X82079744Y-23824630D01*
X82146721Y-23930271D01*
X82233021Y-24020816D01*
X82335327Y-24092785D01*
X82449708Y-24143411D01*
X82571768Y-24170751D01*
X84358351Y-24390116D01*
X84483398Y-24393117D01*
X84606629Y-24371666D01*
X84723307Y-24326585D01*
X84828948Y-24259608D01*
X84919493Y-24173308D01*
X84991462Y-24071002D01*
X85042088Y-23956621D01*
X85069428Y-23834561D01*
X85288793Y-22047978D01*
X85291794Y-21922931D01*
X85270343Y-21799700D01*
X85225262Y-21683022D01*
X85158285Y-21577381D01*
X85071985Y-21486836D01*
X84969679Y-21414867D01*
X84956565Y-21409062D01*
X85154363Y-21211264D01*
X85322350Y-20959854D01*
X85438062Y-20680502D01*
X85497051Y-20383943D01*
X85497051Y-20081575D01*
X85438062Y-19785016D01*
X85322350Y-19505664D01*
X85173400Y-19282745D01*
X85173400Y-16812966D01*
X85286995Y-16826914D01*
X85412042Y-16829915D01*
X85535273Y-16808464D01*
X85651951Y-16763383D01*
X85757592Y-16696406D01*
X85848137Y-16610106D01*
X85920106Y-16507800D01*
X85970732Y-16393419D01*
X85998072Y-16271359D01*
X86217437Y-14484776D01*
X86220438Y-14359729D01*
X86198987Y-14236498D01*
X86153906Y-14119820D01*
X86086929Y-14014179D01*
X86000629Y-13923634D01*
X85898323Y-13851665D01*
X85885209Y-13845860D01*
X86083007Y-13648062D01*
X86250994Y-13396652D01*
X86366706Y-13117300D01*
X86425695Y-12820741D01*
X86425695Y-12537697D01*
X87164800Y-13276802D01*
X87164801Y-15959468D01*
X87161124Y-15996800D01*
X87175798Y-16145785D01*
X87219254Y-16289046D01*
X87289826Y-16421076D01*
X87361001Y-16507802D01*
X87384800Y-16536801D01*
X87413798Y-16560599D01*
X90027849Y-19174651D01*
X90000498Y-19225820D01*
X89964188Y-19345518D01*
X89951928Y-19470000D01*
X89951928Y-21170000D01*
X89964188Y-21294482D01*
X90000498Y-21414180D01*
X90059463Y-21524494D01*
X90138815Y-21621185D01*
X90235506Y-21700537D01*
X90345820Y-21759502D01*
X90465518Y-21795812D01*
X90590000Y-21808072D01*
X91313000Y-21808072D01*
X91313000Y-26493894D01*
X91205790Y-26422258D01*
X90926438Y-26306546D01*
X90629879Y-26247557D01*
X90327511Y-26247557D01*
X90030952Y-26306546D01*
X89751600Y-26422258D01*
X89500190Y-26590245D01*
X89286383Y-26804052D01*
X89118396Y-27055462D01*
X89002684Y-27334814D01*
X88943695Y-27631373D01*
X88943695Y-27933741D01*
X89002684Y-28230300D01*
X89118396Y-28509652D01*
X89233889Y-28682500D01*
X89215021Y-28685784D01*
X89098343Y-28730865D01*
X88992702Y-28797842D01*
X88902157Y-28884142D01*
X88830188Y-28986448D01*
X88779562Y-29100829D01*
X88752222Y-29222889D01*
X88532857Y-31009472D01*
X88529856Y-31134519D01*
X88551307Y-31257750D01*
X88596388Y-31374428D01*
X88663365Y-31480069D01*
X88749665Y-31570614D01*
X88851971Y-31642583D01*
X88865086Y-31648388D01*
X88667287Y-31846187D01*
X88499300Y-32097597D01*
X88383588Y-32376949D01*
X88324599Y-32673508D01*
X88324599Y-32975876D01*
X88383588Y-33272435D01*
X88499300Y-33551787D01*
X88614793Y-33724635D01*
X88595925Y-33727919D01*
X88479247Y-33773000D01*
X88373606Y-33839977D01*
X88283061Y-33926277D01*
X88211092Y-34028583D01*
X88160466Y-34142964D01*
X88133126Y-34265024D01*
X87913761Y-36051607D01*
X87910760Y-36176654D01*
X87932211Y-36299885D01*
X87977292Y-36416563D01*
X88044269Y-36522204D01*
X88130569Y-36612749D01*
X88232875Y-36684718D01*
X88347256Y-36735344D01*
X88469316Y-36762684D01*
X90255899Y-36982049D01*
X90380946Y-36985050D01*
X90504177Y-36963599D01*
X90620855Y-36918518D01*
X90726496Y-36851541D01*
X90817041Y-36765241D01*
X90889010Y-36662935D01*
X90939636Y-36548554D01*
X90966976Y-36426494D01*
X91186341Y-34639911D01*
X91189342Y-34514864D01*
X91167891Y-34391633D01*
X91122810Y-34274955D01*
X91055833Y-34169314D01*
X90969533Y-34078769D01*
X90867227Y-34006800D01*
X90854113Y-34000995D01*
X91051911Y-33803197D01*
X91219898Y-33551787D01*
X91313000Y-33327020D01*
X91313000Y-83693000D01*
X85305000Y-83693000D01*
X85305000Y-83673740D01*
X85247932Y-83386842D01*
X85135990Y-83116589D01*
X84973475Y-82873368D01*
X84766632Y-82666525D01*
X84592240Y-82550000D01*
X84766632Y-82433475D01*
X84973475Y-82226632D01*
X85135990Y-81983411D01*
X85247932Y-81713158D01*
X85305000Y-81426260D01*
X85305000Y-81133740D01*
X85247932Y-80846842D01*
X85135990Y-80576589D01*
X84973475Y-80333368D01*
X84766632Y-80126525D01*
X84584466Y-80004805D01*
X84701355Y-79935178D01*
X84917588Y-79740269D01*
X85091641Y-79506920D01*
X85216825Y-79244099D01*
X85261476Y-79096890D01*
X85140155Y-78867000D01*
X83947000Y-78867000D01*
X83947000Y-78887000D01*
X83693000Y-78887000D01*
X83693000Y-78867000D01*
X82499845Y-78867000D01*
X82378524Y-79096890D01*
X82423175Y-79244099D01*
X82548359Y-79506920D01*
X82722412Y-79740269D01*
X82938645Y-79935178D01*
X83055534Y-80004805D01*
X82873368Y-80126525D01*
X82666525Y-80333368D01*
X82541822Y-80520000D01*
X73577722Y-80520000D01*
X73540399Y-80516324D01*
X73503076Y-80520000D01*
X73503067Y-80520000D01*
X73391414Y-80530997D01*
X73248153Y-80574454D01*
X73116124Y-80645026D01*
X73116122Y-80645027D01*
X73116123Y-80645027D01*
X73029396Y-80716201D01*
X73029392Y-80716205D01*
X73000399Y-80739999D01*
X72976605Y-80768992D01*
X64935000Y-88810599D01*
X64935000Y-88758665D01*
X64879853Y-88481426D01*
X64771680Y-88220273D01*
X64614637Y-87985241D01*
X64414759Y-87785363D01*
X64179727Y-87628320D01*
X63918574Y-87520147D01*
X63641335Y-87465000D01*
X63358665Y-87465000D01*
X63081426Y-87520147D01*
X62820273Y-87628320D01*
X62585241Y-87785363D01*
X62385363Y-87985241D01*
X62281957Y-88140000D01*
X59908072Y-88140000D01*
X59908072Y-88050000D01*
X59895812Y-87925518D01*
X59859502Y-87805820D01*
X59800537Y-87695506D01*
X59721185Y-87598815D01*
X59624494Y-87519463D01*
X59514180Y-87460498D01*
X59394482Y-87424188D01*
X59270000Y-87411928D01*
X58810173Y-87411928D01*
X61642102Y-84580000D01*
X62281957Y-84580000D01*
X62385363Y-84734759D01*
X62585241Y-84934637D01*
X62820273Y-85091680D01*
X63081426Y-85199853D01*
X63358665Y-85255000D01*
X63641335Y-85255000D01*
X63918574Y-85199853D01*
X64179727Y-85091680D01*
X64414759Y-84934637D01*
X64614637Y-84734759D01*
X64771680Y-84499727D01*
X64879853Y-84238574D01*
X64935000Y-83961335D01*
X64935000Y-83678665D01*
X64879853Y-83401426D01*
X64771680Y-83140273D01*
X64614637Y-82905241D01*
X64414759Y-82705363D01*
X64179727Y-82548320D01*
X63918574Y-82440147D01*
X63641335Y-82385000D01*
X63358665Y-82385000D01*
X63081426Y-82440147D01*
X62820273Y-82548320D01*
X62585241Y-82705363D01*
X62385363Y-82905241D01*
X62281957Y-83060000D01*
X61887702Y-83060000D01*
X64011004Y-80936698D01*
X64040001Y-80912901D01*
X64134974Y-80797176D01*
X64205546Y-80665147D01*
X64249003Y-80521886D01*
X64260000Y-80410233D01*
X64260000Y-80410224D01*
X64263676Y-80372901D01*
X64260000Y-80335578D01*
X64260000Y-79958043D01*
X64414759Y-79854637D01*
X64614637Y-79654759D01*
X64771680Y-79419727D01*
X64879853Y-79158574D01*
X64935000Y-78881335D01*
X64935000Y-78598665D01*
X74765000Y-78598665D01*
X74765000Y-78881335D01*
X74820147Y-79158574D01*
X74928320Y-79419727D01*
X75085363Y-79654759D01*
X75285241Y-79854637D01*
X75520273Y-80011680D01*
X75781426Y-80119853D01*
X76058665Y-80175000D01*
X76341335Y-80175000D01*
X76618574Y-80119853D01*
X76879727Y-80011680D01*
X77114759Y-79854637D01*
X77314637Y-79654759D01*
X77471680Y-79419727D01*
X77579853Y-79158574D01*
X77635000Y-78881335D01*
X77635000Y-78598665D01*
X77579853Y-78321426D01*
X77471680Y-78060273D01*
X77314637Y-77825241D01*
X77114759Y-77625363D01*
X76879727Y-77468320D01*
X76618574Y-77360147D01*
X76341335Y-77305000D01*
X76058665Y-77305000D01*
X75781426Y-77360147D01*
X75520273Y-77468320D01*
X75285241Y-77625363D01*
X75085363Y-77825241D01*
X74928320Y-78060273D01*
X74820147Y-78321426D01*
X74765000Y-78598665D01*
X64935000Y-78598665D01*
X64879853Y-78321426D01*
X64771680Y-78060273D01*
X64614637Y-77825241D01*
X64414759Y-77625363D01*
X64179727Y-77468320D01*
X63918574Y-77360147D01*
X63641335Y-77305000D01*
X63358665Y-77305000D01*
X63081426Y-77360147D01*
X62820273Y-77468320D01*
X62585241Y-77625363D01*
X62385363Y-77825241D01*
X62228320Y-78060273D01*
X62120147Y-78321426D01*
X62065000Y-78598665D01*
X62065000Y-78881335D01*
X62120147Y-79158574D01*
X62228320Y-79419727D01*
X62385363Y-79654759D01*
X62585241Y-79854637D01*
X62740000Y-79958044D01*
X62740000Y-80058098D01*
X59678120Y-83119979D01*
X59534637Y-82905241D01*
X59334759Y-82705363D01*
X59099727Y-82548320D01*
X58838574Y-82440147D01*
X58561335Y-82385000D01*
X58278665Y-82385000D01*
X58001426Y-82440147D01*
X57740273Y-82548320D01*
X57505241Y-82705363D01*
X57305363Y-82905241D01*
X57148320Y-83140273D01*
X57040147Y-83401426D01*
X56985000Y-83678665D01*
X56985000Y-83961335D01*
X57040147Y-84238574D01*
X57148320Y-84499727D01*
X57305363Y-84734759D01*
X57505241Y-84934637D01*
X57719979Y-85078120D01*
X55833399Y-86964700D01*
X55360522Y-86964700D01*
X55323199Y-86961024D01*
X55285876Y-86964700D01*
X55285867Y-86964700D01*
X55174214Y-86975697D01*
X55045966Y-87014600D01*
X55030953Y-87019154D01*
X54898923Y-87089726D01*
X54815283Y-87158368D01*
X54783199Y-87184699D01*
X54759402Y-87213696D01*
X54250630Y-87722469D01*
X54043411Y-87584010D01*
X53773158Y-87472068D01*
X53486260Y-87415000D01*
X53193740Y-87415000D01*
X52906842Y-87472068D01*
X52636589Y-87584010D01*
X52393368Y-87746525D01*
X52186525Y-87953368D01*
X52070000Y-88127760D01*
X51953475Y-87953368D01*
X51746632Y-87746525D01*
X51553089Y-87617204D01*
X51549003Y-87575714D01*
X51505546Y-87432453D01*
X51434974Y-87300424D01*
X51340001Y-87184699D01*
X51224276Y-87089726D01*
X51150271Y-87050169D01*
X47409104Y-83309003D01*
X47385301Y-83279999D01*
X47269576Y-83185026D01*
X47137547Y-83114454D01*
X46994286Y-83070997D01*
X46941947Y-83065842D01*
X46834637Y-82905241D01*
X46634759Y-82705363D01*
X46399727Y-82548320D01*
X46138574Y-82440147D01*
X45861335Y-82385000D01*
X45578665Y-82385000D01*
X45301426Y-82440147D01*
X45040273Y-82548320D01*
X44805241Y-82705363D01*
X44605363Y-82905241D01*
X44487813Y-83081167D01*
X44454286Y-83070997D01*
X44401947Y-83065842D01*
X44294637Y-82905241D01*
X44094759Y-82705363D01*
X43859727Y-82548320D01*
X43598574Y-82440147D01*
X43321335Y-82385000D01*
X43038665Y-82385000D01*
X42761426Y-82440147D01*
X42500273Y-82548320D01*
X42265241Y-82705363D01*
X42065363Y-82905241D01*
X41908320Y-83140273D01*
X41800147Y-83401426D01*
X41745000Y-83678665D01*
X41745000Y-83961335D01*
X41800147Y-84238574D01*
X41908320Y-84499727D01*
X42065363Y-84734759D01*
X42265241Y-84934637D01*
X42500273Y-85091680D01*
X42761426Y-85199853D01*
X43038665Y-85255000D01*
X43321335Y-85255000D01*
X43598574Y-85199853D01*
X43859727Y-85091680D01*
X44076222Y-84947023D01*
X47096928Y-87967731D01*
X46990000Y-88127760D01*
X46873475Y-87953368D01*
X46666632Y-87746525D01*
X46423411Y-87584010D01*
X46153158Y-87472068D01*
X45866260Y-87415000D01*
X45573740Y-87415000D01*
X45286842Y-87472068D01*
X45016589Y-87584010D01*
X44809311Y-87722509D01*
X35315804Y-78229003D01*
X35292001Y-78199999D01*
X35176276Y-78105026D01*
X35044247Y-78034454D01*
X34900986Y-77990997D01*
X34789333Y-77980000D01*
X34789322Y-77980000D01*
X34752000Y-77976324D01*
X34714678Y-77980000D01*
X26618043Y-77980000D01*
X26514637Y-77825241D01*
X26314759Y-77625363D01*
X26079727Y-77468320D01*
X25818574Y-77360147D01*
X25541335Y-77305000D01*
X25258665Y-77305000D01*
X24981426Y-77360147D01*
X24720273Y-77468320D01*
X24485241Y-77625363D01*
X24285363Y-77825241D01*
X24128320Y-78060273D01*
X24020147Y-78321426D01*
X23965000Y-78598665D01*
X23965000Y-78881335D01*
X24020147Y-79158574D01*
X24128320Y-79419727D01*
X24285363Y-79654759D01*
X24485241Y-79854637D01*
X24720273Y-80011680D01*
X24981426Y-80119853D01*
X25258665Y-80175000D01*
X25541335Y-80175000D01*
X25818574Y-80119853D01*
X26079727Y-80011680D01*
X26314759Y-79854637D01*
X26514637Y-79654759D01*
X26618043Y-79500000D01*
X34437199Y-79500000D01*
X42508140Y-87570941D01*
X42476589Y-87584010D01*
X42269311Y-87722509D01*
X38981104Y-84434303D01*
X38957301Y-84405299D01*
X38841576Y-84310326D01*
X38709547Y-84239754D01*
X38566286Y-84196297D01*
X38454633Y-84185300D01*
X38454622Y-84185300D01*
X38417300Y-84181624D01*
X38379978Y-84185300D01*
X31870450Y-84185300D01*
X31915000Y-83961335D01*
X31915000Y-83678665D01*
X31859853Y-83401426D01*
X31751680Y-83140273D01*
X31594637Y-82905241D01*
X31394759Y-82705363D01*
X31159727Y-82548320D01*
X30898574Y-82440147D01*
X30621335Y-82385000D01*
X30338665Y-82385000D01*
X30061426Y-82440147D01*
X29800273Y-82548320D01*
X29565241Y-82705363D01*
X29365363Y-82905241D01*
X29208320Y-83140273D01*
X29100147Y-83401426D01*
X29045000Y-83678665D01*
X29045000Y-83961335D01*
X29089550Y-84185300D01*
X27965402Y-84185300D01*
X27089104Y-83309002D01*
X27065301Y-83279999D01*
X26949576Y-83185026D01*
X26817547Y-83114454D01*
X26674286Y-83070997D01*
X26621947Y-83065842D01*
X26514637Y-82905241D01*
X26314759Y-82705363D01*
X26079727Y-82548320D01*
X25818574Y-82440147D01*
X25541335Y-82385000D01*
X25258665Y-82385000D01*
X24981426Y-82440147D01*
X24720273Y-82548320D01*
X24485241Y-82705363D01*
X24285363Y-82905241D01*
X24128320Y-83140273D01*
X24020147Y-83401426D01*
X23965000Y-83678665D01*
X23965000Y-83961335D01*
X24020147Y-84238574D01*
X24128320Y-84499727D01*
X24285363Y-84734759D01*
X24485241Y-84934637D01*
X24720273Y-85091680D01*
X24981426Y-85199853D01*
X25258665Y-85255000D01*
X25541335Y-85255000D01*
X25818574Y-85199853D01*
X26079727Y-85091680D01*
X26314759Y-84934637D01*
X26439947Y-84809449D01*
X27086800Y-85456302D01*
X27110599Y-85485301D01*
X27139597Y-85509099D01*
X27226324Y-85580274D01*
X27358353Y-85650846D01*
X27501614Y-85694303D01*
X27650600Y-85708977D01*
X27687933Y-85705300D01*
X38102499Y-85705300D01*
X39968140Y-87570941D01*
X39936589Y-87584010D01*
X39693368Y-87746525D01*
X39486525Y-87953368D01*
X39370000Y-88127760D01*
X39253475Y-87953368D01*
X39046632Y-87746525D01*
X38803411Y-87584010D01*
X38533158Y-87472068D01*
X38246260Y-87415000D01*
X37953740Y-87415000D01*
X37666842Y-87472068D01*
X37396589Y-87584010D01*
X37153368Y-87746525D01*
X36946525Y-87953368D01*
X36824805Y-88135534D01*
X36755178Y-88018645D01*
X36560269Y-87802412D01*
X36326920Y-87628359D01*
X36064099Y-87503175D01*
X35916890Y-87458524D01*
X35687000Y-87579845D01*
X35687000Y-88773000D01*
X35707000Y-88773000D01*
X35707000Y-89027000D01*
X35687000Y-89027000D01*
X35687000Y-89047000D01*
X35433000Y-89047000D01*
X35433000Y-89027000D01*
X35413000Y-89027000D01*
X35413000Y-88773000D01*
X35433000Y-88773000D01*
X35433000Y-87579845D01*
X35203110Y-87458524D01*
X35055901Y-87503175D01*
X34793080Y-87628359D01*
X34559731Y-87802412D01*
X34364822Y-88018645D01*
X34295195Y-88135534D01*
X34173475Y-87953368D01*
X33966632Y-87746525D01*
X33723411Y-87584010D01*
X33453158Y-87472068D01*
X33166260Y-87415000D01*
X32873740Y-87415000D01*
X32586842Y-87472068D01*
X32316589Y-87584010D01*
X32108112Y-87723310D01*
X30649104Y-86264303D01*
X30625301Y-86235299D01*
X30509576Y-86140326D01*
X30377547Y-86069754D01*
X30234286Y-86026297D01*
X30122633Y-86015300D01*
X30122622Y-86015300D01*
X30085300Y-86011624D01*
X30047978Y-86015300D01*
X21126202Y-86015300D01*
X15879904Y-80769003D01*
X15856101Y-80739999D01*
X15740376Y-80645026D01*
X15608347Y-80574454D01*
X15465086Y-80530997D01*
X15353433Y-80520000D01*
X15353422Y-80520000D01*
X15316100Y-80516324D01*
X15278778Y-80520000D01*
X-1261822Y-80520000D01*
X-1386525Y-80333368D01*
X-1593368Y-80126525D01*
X-1775534Y-80004805D01*
X-1658645Y-79935178D01*
X-1442412Y-79740269D01*
X-1268359Y-79506920D01*
X-1143175Y-79244099D01*
X-1098524Y-79096890D01*
X-1219845Y-78867000D01*
X-2413000Y-78867000D01*
X-2413000Y-78613000D01*
X-1219845Y-78613000D01*
X-1212280Y-78598665D01*
X11265000Y-78598665D01*
X11265000Y-78881335D01*
X11320147Y-79158574D01*
X11428320Y-79419727D01*
X11585363Y-79654759D01*
X11785241Y-79854637D01*
X12020273Y-80011680D01*
X12281426Y-80119853D01*
X12558665Y-80175000D01*
X12841335Y-80175000D01*
X13118574Y-80119853D01*
X13379727Y-80011680D01*
X13614759Y-79854637D01*
X13814637Y-79654759D01*
X13971680Y-79419727D01*
X14079853Y-79158574D01*
X14135000Y-78881335D01*
X14135000Y-78598665D01*
X14079853Y-78321426D01*
X13971680Y-78060273D01*
X13814637Y-77825241D01*
X13614759Y-77625363D01*
X13379727Y-77468320D01*
X13118574Y-77360147D01*
X12841335Y-77305000D01*
X12558665Y-77305000D01*
X12281426Y-77360147D01*
X12020273Y-77468320D01*
X11785241Y-77625363D01*
X11585363Y-77825241D01*
X11428320Y-78060273D01*
X11320147Y-78321426D01*
X11265000Y-78598665D01*
X-1212280Y-78598665D01*
X-1098524Y-78383110D01*
X-1143175Y-78235901D01*
X-1268359Y-77973080D01*
X-1442412Y-77739731D01*
X-1658645Y-77544822D01*
X-1775534Y-77475195D01*
X-1593368Y-77353475D01*
X-1386525Y-77146632D01*
X-1345344Y-77085000D01*
X266331Y-77085000D01*
X309800Y-77089281D01*
X353269Y-77085000D01*
X353277Y-77085000D01*
X483290Y-77072195D01*
X650113Y-77021589D01*
X690503Y-77000000D01*
X34121928Y-77000000D01*
X34134188Y-77124482D01*
X34170498Y-77244180D01*
X34229463Y-77354494D01*
X34308815Y-77451185D01*
X34405506Y-77530537D01*
X34515820Y-77589502D01*
X34635518Y-77625812D01*
X34760000Y-77638072D01*
X35274250Y-77635000D01*
X35433000Y-77476250D01*
X35433000Y-76327000D01*
X34283750Y-76327000D01*
X34125000Y-76485750D01*
X34121928Y-77000000D01*
X690503Y-77000000D01*
X803859Y-76939411D01*
X938617Y-76828817D01*
X966334Y-76795044D01*
X6343014Y-71418364D01*
X6397989Y-71694743D01*
X6513701Y-71974095D01*
X6681688Y-72225505D01*
X6895495Y-72439312D01*
X7146905Y-72607299D01*
X7426257Y-72723011D01*
X7722816Y-72782000D01*
X8025184Y-72782000D01*
X8321743Y-72723011D01*
X8601095Y-72607299D01*
X8852505Y-72439312D01*
X8918944Y-72372873D01*
X8924498Y-72391180D01*
X8983463Y-72501494D01*
X9062815Y-72598185D01*
X9159506Y-72677537D01*
X9269820Y-72736502D01*
X9389518Y-72772812D01*
X9514000Y-72785072D01*
X11314000Y-72785072D01*
X11438482Y-72772812D01*
X11558180Y-72736502D01*
X11668494Y-72677537D01*
X11765185Y-72598185D01*
X11844537Y-72501494D01*
X11903502Y-72391180D01*
X11939812Y-72271482D01*
X11952072Y-72147000D01*
X11952072Y-72007000D01*
X14155687Y-72007000D01*
X14301688Y-72225505D01*
X14515495Y-72439312D01*
X14766905Y-72607299D01*
X15046257Y-72723011D01*
X15342816Y-72782000D01*
X15645184Y-72782000D01*
X15941743Y-72723011D01*
X16221095Y-72607299D01*
X16472505Y-72439312D01*
X16538944Y-72372873D01*
X16544498Y-72391180D01*
X16603463Y-72501494D01*
X16682815Y-72598185D01*
X16779506Y-72677537D01*
X16889820Y-72736502D01*
X17009518Y-72772812D01*
X17134000Y-72785072D01*
X18934000Y-72785072D01*
X19058482Y-72772812D01*
X19178180Y-72736502D01*
X19288494Y-72677537D01*
X19385185Y-72598185D01*
X19464537Y-72501494D01*
X19523502Y-72391180D01*
X19559812Y-72271482D01*
X19572072Y-72147000D01*
X19572072Y-72007000D01*
X21902687Y-72007000D01*
X22048688Y-72225505D01*
X22262495Y-72439312D01*
X22513905Y-72607299D01*
X22793257Y-72723011D01*
X23089816Y-72782000D01*
X23392184Y-72782000D01*
X23688743Y-72723011D01*
X23968095Y-72607299D01*
X24219505Y-72439312D01*
X24285944Y-72372873D01*
X24291498Y-72391180D01*
X24350463Y-72501494D01*
X24429815Y-72598185D01*
X24526506Y-72677537D01*
X24636820Y-72736502D01*
X24756518Y-72772812D01*
X24881000Y-72785072D01*
X26681000Y-72785072D01*
X26805482Y-72772812D01*
X26925180Y-72736502D01*
X27035494Y-72677537D01*
X27132185Y-72598185D01*
X27211537Y-72501494D01*
X27270502Y-72391180D01*
X27306812Y-72271482D01*
X27319072Y-72147000D01*
X27319072Y-70837150D01*
X30832470Y-74350549D01*
X30860183Y-74384317D01*
X30893951Y-74412030D01*
X30893953Y-74412032D01*
X30994941Y-74494911D01*
X31148686Y-74577089D01*
X31315510Y-74627695D01*
X31445523Y-74640500D01*
X31445531Y-74640500D01*
X31489000Y-74644781D01*
X31532469Y-74640500D01*
X35248922Y-74640500D01*
X35432998Y-74824576D01*
X35432998Y-74923748D01*
X35274250Y-74765000D01*
X34760000Y-74761928D01*
X34635518Y-74774188D01*
X34515820Y-74810498D01*
X34405506Y-74869463D01*
X34308815Y-74948815D01*
X34229463Y-75045506D01*
X34170498Y-75155820D01*
X34134188Y-75275518D01*
X34121928Y-75400000D01*
X34125000Y-75914250D01*
X34283750Y-76073000D01*
X35433000Y-76073000D01*
X35433000Y-76053000D01*
X35687000Y-76053000D01*
X35687000Y-76073000D01*
X35707000Y-76073000D01*
X35707000Y-76327000D01*
X35687000Y-76327000D01*
X35687000Y-77476250D01*
X35845750Y-77635000D01*
X36360000Y-77638072D01*
X36484482Y-77625812D01*
X36604180Y-77589502D01*
X36714494Y-77530537D01*
X36811185Y-77451185D01*
X36890537Y-77354494D01*
X36949502Y-77244180D01*
X36978661Y-77148057D01*
X37145241Y-77314637D01*
X37380273Y-77471680D01*
X37641426Y-77579853D01*
X37918665Y-77635000D01*
X38201335Y-77635000D01*
X38478574Y-77579853D01*
X38739727Y-77471680D01*
X38974759Y-77314637D01*
X39096694Y-77192702D01*
X44906903Y-77192702D01*
X44978486Y-77436671D01*
X45233996Y-77557571D01*
X45508184Y-77626300D01*
X45790512Y-77640217D01*
X46070130Y-77598787D01*
X46336292Y-77503603D01*
X46461514Y-77436671D01*
X46533097Y-77192702D01*
X45720000Y-76379605D01*
X44906903Y-77192702D01*
X39096694Y-77192702D01*
X39174637Y-77114759D01*
X39331680Y-76879727D01*
X39439853Y-76618574D01*
X39495000Y-76341335D01*
X39495000Y-76270512D01*
X44279783Y-76270512D01*
X44321213Y-76550130D01*
X44416397Y-76816292D01*
X44483329Y-76941514D01*
X44727298Y-77013097D01*
X45540395Y-76200000D01*
X45899605Y-76200000D01*
X46712702Y-77013097D01*
X46956671Y-76941514D01*
X47077571Y-76686004D01*
X47146300Y-76411816D01*
X47160217Y-76129488D01*
X47118787Y-75849870D01*
X47023603Y-75583708D01*
X46956671Y-75458486D01*
X46712702Y-75386903D01*
X45899605Y-76200000D01*
X45540395Y-76200000D01*
X44727298Y-75386903D01*
X44483329Y-75458486D01*
X44362429Y-75713996D01*
X44293700Y-75988184D01*
X44279783Y-76270512D01*
X39495000Y-76270512D01*
X39495000Y-76058665D01*
X39439853Y-75781426D01*
X39331680Y-75520273D01*
X39174637Y-75285241D01*
X39096694Y-75207298D01*
X44906903Y-75207298D01*
X45720000Y-76020395D01*
X46533097Y-75207298D01*
X46461514Y-74963329D01*
X46206004Y-74842429D01*
X45931816Y-74773700D01*
X45649488Y-74759783D01*
X45369870Y-74801213D01*
X45103708Y-74896397D01*
X44978486Y-74963329D01*
X44906903Y-75207298D01*
X39096694Y-75207298D01*
X38974759Y-75085363D01*
X38739727Y-74928320D01*
X38478574Y-74820147D01*
X38201335Y-74765000D01*
X37918665Y-74765000D01*
X37883561Y-74771983D01*
X36272034Y-73160456D01*
X36244317Y-73126683D01*
X36109559Y-73016089D01*
X35955813Y-72933911D01*
X35788990Y-72883305D01*
X35658977Y-72870500D01*
X35658969Y-72870500D01*
X35615500Y-72866219D01*
X35572031Y-72870500D01*
X31855579Y-72870500D01*
X31628321Y-72643242D01*
X31715095Y-72607299D01*
X31966505Y-72439312D01*
X32032944Y-72372873D01*
X32038498Y-72391180D01*
X32097463Y-72501494D01*
X32176815Y-72598185D01*
X32273506Y-72677537D01*
X32383820Y-72736502D01*
X32503518Y-72772812D01*
X32628000Y-72785072D01*
X34428000Y-72785072D01*
X34552482Y-72772812D01*
X34672180Y-72736502D01*
X34782494Y-72677537D01*
X34879185Y-72598185D01*
X34958537Y-72501494D01*
X35017502Y-72391180D01*
X35053812Y-72271482D01*
X35066072Y-72147000D01*
X35066072Y-72007000D01*
X47709678Y-72007000D01*
X47747000Y-72010676D01*
X47784322Y-72007000D01*
X47784333Y-72007000D01*
X47895986Y-71996003D01*
X48039247Y-71952546D01*
X48171276Y-71881974D01*
X48287001Y-71787001D01*
X48310804Y-71757997D01*
X48655735Y-71413066D01*
X48677701Y-71466095D01*
X48845688Y-71717505D01*
X49059495Y-71931312D01*
X49310905Y-72099299D01*
X49590257Y-72215011D01*
X49886816Y-72274000D01*
X50189184Y-72274000D01*
X50485743Y-72215011D01*
X50765095Y-72099299D01*
X51016505Y-71931312D01*
X51082944Y-71864873D01*
X51088498Y-71883180D01*
X51147463Y-71993494D01*
X51226815Y-72090185D01*
X51323506Y-72169537D01*
X51433820Y-72228502D01*
X51553518Y-72264812D01*
X51678000Y-72277072D01*
X53478000Y-72277072D01*
X53602482Y-72264812D01*
X53722180Y-72228502D01*
X53832494Y-72169537D01*
X53929185Y-72090185D01*
X54008537Y-71993494D01*
X54067502Y-71883180D01*
X54103812Y-71763482D01*
X54116072Y-71639000D01*
X54116072Y-71499000D01*
X56319687Y-71499000D01*
X56465688Y-71717505D01*
X56679495Y-71931312D01*
X56930905Y-72099299D01*
X57210257Y-72215011D01*
X57506816Y-72274000D01*
X57809184Y-72274000D01*
X58105743Y-72215011D01*
X58385095Y-72099299D01*
X58636505Y-71931312D01*
X58702944Y-71864873D01*
X58708498Y-71883180D01*
X58767463Y-71993494D01*
X58846815Y-72090185D01*
X58943506Y-72169537D01*
X59053820Y-72228502D01*
X59173518Y-72264812D01*
X59298000Y-72277072D01*
X61098000Y-72277072D01*
X61222482Y-72264812D01*
X61342180Y-72228502D01*
X61452494Y-72169537D01*
X61549185Y-72090185D01*
X61628537Y-71993494D01*
X61687502Y-71883180D01*
X61723812Y-71763482D01*
X61736072Y-71639000D01*
X61736072Y-71499000D01*
X64066687Y-71499000D01*
X64212688Y-71717505D01*
X64426495Y-71931312D01*
X64677905Y-72099299D01*
X64957257Y-72215011D01*
X65253816Y-72274000D01*
X65556184Y-72274000D01*
X65852743Y-72215011D01*
X66132095Y-72099299D01*
X66383505Y-71931312D01*
X66449944Y-71864873D01*
X66455498Y-71883180D01*
X66514463Y-71993494D01*
X66593815Y-72090185D01*
X66690506Y-72169537D01*
X66800820Y-72228502D01*
X66920518Y-72264812D01*
X67045000Y-72277072D01*
X68845000Y-72277072D01*
X68969482Y-72264812D01*
X69089180Y-72228502D01*
X69199494Y-72169537D01*
X69296185Y-72090185D01*
X69375537Y-71993494D01*
X69434502Y-71883180D01*
X69470812Y-71763482D01*
X69483072Y-71639000D01*
X69483072Y-71499000D01*
X71813687Y-71499000D01*
X71959688Y-71717505D01*
X72173495Y-71931312D01*
X72424905Y-72099299D01*
X72704257Y-72215011D01*
X73000816Y-72274000D01*
X73303184Y-72274000D01*
X73599743Y-72215011D01*
X73879095Y-72099299D01*
X74130505Y-71931312D01*
X74196944Y-71864873D01*
X74202498Y-71883180D01*
X74261463Y-71993494D01*
X74340815Y-72090185D01*
X74437506Y-72169537D01*
X74547820Y-72228502D01*
X74667518Y-72264812D01*
X74792000Y-72277072D01*
X76592000Y-72277072D01*
X76716482Y-72264812D01*
X76836180Y-72228502D01*
X76946494Y-72169537D01*
X77043185Y-72090185D01*
X77122537Y-71993494D01*
X77181502Y-71883180D01*
X77217812Y-71763482D01*
X77230072Y-71639000D01*
X77230072Y-70041852D01*
X78914107Y-70248626D01*
X79039154Y-70251627D01*
X79162385Y-70230176D01*
X79279063Y-70185095D01*
X79384704Y-70118118D01*
X79475249Y-70031818D01*
X79547218Y-69929512D01*
X79597844Y-69815131D01*
X79625184Y-69693071D01*
X79844549Y-67906488D01*
X79847550Y-67781441D01*
X79826099Y-67658210D01*
X79781018Y-67541532D01*
X79714041Y-67435891D01*
X79627741Y-67345346D01*
X79525435Y-67273377D01*
X79512321Y-67267572D01*
X79710119Y-67069774D01*
X79878106Y-66818364D01*
X79993818Y-66539012D01*
X80052807Y-66242453D01*
X80052807Y-65940085D01*
X79993818Y-65643526D01*
X79878106Y-65364174D01*
X79710119Y-65112764D01*
X79496312Y-64898957D01*
X79244902Y-64730970D01*
X78965550Y-64615258D01*
X78668991Y-64556269D01*
X78366623Y-64556269D01*
X78070064Y-64615258D01*
X77790712Y-64730970D01*
X77539302Y-64898957D01*
X77325495Y-65112764D01*
X77157508Y-65364174D01*
X77041796Y-65643526D01*
X76982807Y-65940085D01*
X76982807Y-66242453D01*
X77041796Y-66539012D01*
X77157508Y-66818364D01*
X77273001Y-66991212D01*
X77254133Y-66994496D01*
X77137455Y-67039577D01*
X77031814Y-67106554D01*
X76941269Y-67192854D01*
X76869300Y-67295160D01*
X76818674Y-67409541D01*
X76791334Y-67531601D01*
X76586366Y-69200928D01*
X74792000Y-69200928D01*
X74667518Y-69213188D01*
X74547820Y-69249498D01*
X74524216Y-69262115D01*
X74264801Y-69002700D01*
X74241001Y-68973699D01*
X74125276Y-68878726D01*
X73993247Y-68808154D01*
X73849986Y-68764697D01*
X73738333Y-68753700D01*
X73738322Y-68753700D01*
X73701000Y-68750024D01*
X73663678Y-68753700D01*
X65508005Y-68753700D01*
X63984509Y-67230185D01*
X64108676Y-67178753D01*
X64319140Y-67038125D01*
X64498125Y-66859140D01*
X64638753Y-66648676D01*
X64735619Y-66414821D01*
X64785000Y-66166561D01*
X64785000Y-66055000D01*
X64896561Y-66055000D01*
X65144821Y-66005619D01*
X65378676Y-65908753D01*
X65589140Y-65768125D01*
X65768125Y-65589140D01*
X65908753Y-65378676D01*
X66005619Y-65144821D01*
X66055000Y-64896561D01*
X66055000Y-64643439D01*
X66041124Y-64573678D01*
X66281003Y-64333799D01*
X66310001Y-64310001D01*
X66404974Y-64194276D01*
X66475546Y-64062247D01*
X66519003Y-63918986D01*
X66530000Y-63807333D01*
X66533677Y-63770000D01*
X66530000Y-63732667D01*
X66530000Y-59374320D01*
X66574494Y-59350537D01*
X66671185Y-59271185D01*
X66746018Y-59180000D01*
X70155957Y-59180000D01*
X70259363Y-59334759D01*
X70459241Y-59534637D01*
X70694273Y-59691680D01*
X70955426Y-59799853D01*
X71232665Y-59855000D01*
X71515335Y-59855000D01*
X71792574Y-59799853D01*
X72053727Y-59691680D01*
X72288759Y-59534637D01*
X72488637Y-59334759D01*
X72645680Y-59099727D01*
X72753853Y-58838574D01*
X72809000Y-58561335D01*
X72809000Y-58278665D01*
X72753853Y-58001426D01*
X72651767Y-57754968D01*
X81447800Y-66551002D01*
X81471599Y-66580001D01*
X81500597Y-66603799D01*
X81587323Y-66674974D01*
X81713357Y-66742341D01*
X81719353Y-66745546D01*
X81862614Y-66789003D01*
X81974267Y-66800000D01*
X81974276Y-66800000D01*
X82011599Y-66803676D01*
X82048922Y-66800000D01*
X82541822Y-66800000D01*
X82666525Y-66986632D01*
X82873368Y-67193475D01*
X83047760Y-67310000D01*
X82873368Y-67426525D01*
X82666525Y-67633368D01*
X82504010Y-67876589D01*
X82392068Y-68146842D01*
X82335000Y-68433740D01*
X82335000Y-68726260D01*
X82392068Y-69013158D01*
X82504010Y-69283411D01*
X82666525Y-69526632D01*
X82873368Y-69733475D01*
X83047760Y-69850000D01*
X82873368Y-69966525D01*
X82666525Y-70173368D01*
X82504010Y-70416589D01*
X82392068Y-70686842D01*
X82335000Y-70973740D01*
X82335000Y-71266260D01*
X82392068Y-71553158D01*
X82504010Y-71823411D01*
X82666525Y-72066632D01*
X82873368Y-72273475D01*
X83047760Y-72390000D01*
X82873368Y-72506525D01*
X82666525Y-72713368D01*
X82504010Y-72956589D01*
X82392068Y-73226842D01*
X82335000Y-73513740D01*
X82335000Y-73806260D01*
X82392068Y-74093158D01*
X82504010Y-74363411D01*
X82666525Y-74606632D01*
X82873368Y-74813475D01*
X83047760Y-74930000D01*
X82873368Y-75046525D01*
X82666525Y-75253368D01*
X82625344Y-75315000D01*
X51854521Y-75315000D01*
X51834637Y-75285241D01*
X51634759Y-75085363D01*
X51399727Y-74928320D01*
X51138574Y-74820147D01*
X50861335Y-74765000D01*
X50578665Y-74765000D01*
X50301426Y-74820147D01*
X50040273Y-74928320D01*
X49805241Y-75085363D01*
X49605363Y-75285241D01*
X49448320Y-75520273D01*
X49340147Y-75781426D01*
X49285000Y-76058665D01*
X49285000Y-76341335D01*
X49340147Y-76618574D01*
X49448320Y-76879727D01*
X49605363Y-77114759D01*
X49805241Y-77314637D01*
X50040273Y-77471680D01*
X50301426Y-77579853D01*
X50578665Y-77635000D01*
X50861335Y-77635000D01*
X51138574Y-77579853D01*
X51399727Y-77471680D01*
X51634759Y-77314637D01*
X51834637Y-77114759D01*
X51854521Y-77085000D01*
X82625344Y-77085000D01*
X82666525Y-77146632D01*
X82873368Y-77353475D01*
X83055534Y-77475195D01*
X82938645Y-77544822D01*
X82722412Y-77739731D01*
X82548359Y-77973080D01*
X82423175Y-78235901D01*
X82378524Y-78383110D01*
X82499845Y-78613000D01*
X83693000Y-78613000D01*
X83693000Y-78593000D01*
X83947000Y-78593000D01*
X83947000Y-78613000D01*
X85140155Y-78613000D01*
X85261476Y-78383110D01*
X85216825Y-78235901D01*
X85091641Y-77973080D01*
X84917588Y-77739731D01*
X84701355Y-77544822D01*
X84584466Y-77475195D01*
X84766632Y-77353475D01*
X84973475Y-77146632D01*
X85135990Y-76903411D01*
X85247932Y-76633158D01*
X85305000Y-76346260D01*
X85305000Y-76053740D01*
X85247932Y-75766842D01*
X85135990Y-75496589D01*
X84973475Y-75253368D01*
X84766632Y-75046525D01*
X84592240Y-74930000D01*
X84766632Y-74813475D01*
X84973475Y-74606632D01*
X85135990Y-74363411D01*
X85247932Y-74093158D01*
X85305000Y-73806260D01*
X85305000Y-73513740D01*
X85247932Y-73226842D01*
X85135990Y-72956589D01*
X84973475Y-72713368D01*
X84766632Y-72506525D01*
X84592240Y-72390000D01*
X84766632Y-72273475D01*
X84973475Y-72066632D01*
X85135990Y-71823411D01*
X85247932Y-71553158D01*
X85305000Y-71266260D01*
X85305000Y-70973740D01*
X85247932Y-70686842D01*
X85135990Y-70416589D01*
X84997491Y-70209310D01*
X90054803Y-65151999D01*
X90083801Y-65128201D01*
X90137929Y-65062246D01*
X90178774Y-65012477D01*
X90249346Y-64880447D01*
X90268898Y-64815990D01*
X90292803Y-64737186D01*
X90303800Y-64625533D01*
X90303800Y-64625523D01*
X90307476Y-64588200D01*
X90303800Y-64550877D01*
X90303800Y-45064222D01*
X90307476Y-45026899D01*
X90303800Y-44989576D01*
X90303800Y-44989567D01*
X90292803Y-44877914D01*
X90249346Y-44734653D01*
X90178774Y-44602624D01*
X90144437Y-44560784D01*
X90107599Y-44515896D01*
X90107595Y-44515892D01*
X90083801Y-44486899D01*
X90054809Y-44463106D01*
X85720704Y-40129003D01*
X85696901Y-40099999D01*
X85581176Y-40005026D01*
X85449147Y-39934454D01*
X85305886Y-39890997D01*
X85194233Y-39880000D01*
X85194222Y-39880000D01*
X85156900Y-39876324D01*
X85119578Y-39880000D01*
X80278072Y-39880000D01*
X80278072Y-39740000D01*
X80265812Y-39615518D01*
X80229502Y-39495820D01*
X80170537Y-39385506D01*
X80091185Y-39288815D01*
X79994494Y-39209463D01*
X79884180Y-39150498D01*
X79764482Y-39114188D01*
X79640000Y-39101928D01*
X77840000Y-39101928D01*
X77715518Y-39114188D01*
X77595820Y-39150498D01*
X77572216Y-39163115D01*
X77312803Y-38903702D01*
X77289001Y-38874699D01*
X77173276Y-38779726D01*
X77070144Y-38724600D01*
X80141915Y-38724600D01*
X80127969Y-38838184D01*
X80124968Y-38963231D01*
X80146419Y-39086462D01*
X80191500Y-39203140D01*
X80258477Y-39308781D01*
X80344777Y-39399326D01*
X80447083Y-39471295D01*
X80561464Y-39521921D01*
X80683524Y-39549261D01*
X82470107Y-39768626D01*
X82595154Y-39771627D01*
X82718385Y-39750176D01*
X82835063Y-39705095D01*
X82940704Y-39638118D01*
X83031249Y-39551818D01*
X83103218Y-39449512D01*
X83153844Y-39335131D01*
X83181184Y-39213071D01*
X83400549Y-37426488D01*
X83403550Y-37301441D01*
X83382099Y-37178210D01*
X83337018Y-37061532D01*
X83270041Y-36955891D01*
X83183741Y-36865346D01*
X83081435Y-36793377D01*
X83068321Y-36787572D01*
X83266119Y-36589774D01*
X83434106Y-36338364D01*
X83549818Y-36059012D01*
X83608807Y-35762453D01*
X83608807Y-35460085D01*
X83549818Y-35163526D01*
X83434106Y-34884174D01*
X83300700Y-34684518D01*
X83300700Y-32065431D01*
X83414229Y-32079371D01*
X83539276Y-32082372D01*
X83662507Y-32060921D01*
X83779185Y-32015840D01*
X83884826Y-31948863D01*
X83975371Y-31862563D01*
X84047340Y-31760257D01*
X84097966Y-31645876D01*
X84125306Y-31523816D01*
X84344671Y-29737233D01*
X84347672Y-29612186D01*
X84326221Y-29488955D01*
X84281140Y-29372277D01*
X84214163Y-29266636D01*
X84127863Y-29176091D01*
X84025557Y-29104122D01*
X84012443Y-29098317D01*
X84210241Y-28900519D01*
X84378228Y-28649109D01*
X84493940Y-28369757D01*
X84552929Y-28073198D01*
X84552929Y-27770830D01*
X84493940Y-27474271D01*
X84378228Y-27194919D01*
X84210241Y-26943509D01*
X83996434Y-26729702D01*
X83745024Y-26561715D01*
X83465672Y-26446003D01*
X83169113Y-26387014D01*
X82866745Y-26387014D01*
X82570186Y-26446003D01*
X82290834Y-26561715D01*
X82039424Y-26729702D01*
X81825617Y-26943509D01*
X81657630Y-27194919D01*
X81541918Y-27474271D01*
X81482929Y-27770830D01*
X81482929Y-28073198D01*
X81541918Y-28369757D01*
X81657630Y-28649109D01*
X81773123Y-28821957D01*
X81754255Y-28825241D01*
X81637577Y-28870322D01*
X81531936Y-28937299D01*
X81441391Y-29023599D01*
X81369422Y-29125905D01*
X81318796Y-29240286D01*
X81291456Y-29362346D01*
X81072091Y-31148929D01*
X81069090Y-31273976D01*
X81090541Y-31397207D01*
X81135622Y-31513885D01*
X81202599Y-31619526D01*
X81288899Y-31710071D01*
X81391205Y-31782040D01*
X81505586Y-31832666D01*
X81627646Y-31860006D01*
X81780701Y-31878799D01*
X81780700Y-34104499D01*
X81626064Y-34135258D01*
X81346712Y-34250970D01*
X81095302Y-34418957D01*
X80881495Y-34632764D01*
X80713508Y-34884174D01*
X80597796Y-35163526D01*
X80538807Y-35460085D01*
X80538807Y-35762453D01*
X80597796Y-36059012D01*
X80713508Y-36338364D01*
X80829001Y-36511212D01*
X80810133Y-36514496D01*
X80693455Y-36559577D01*
X80587814Y-36626554D01*
X80497269Y-36712854D01*
X80425300Y-36815160D01*
X80374674Y-36929541D01*
X80347334Y-37051601D01*
X80328548Y-37204600D01*
X74429402Y-37204600D01*
X68869104Y-31644303D01*
X68845301Y-31615299D01*
X68729576Y-31520326D01*
X68668072Y-31487451D01*
X68668072Y-31318095D01*
X68678815Y-31331185D01*
X68775506Y-31410537D01*
X68885820Y-31469502D01*
X69005518Y-31505812D01*
X69130000Y-31518072D01*
X70030000Y-31518072D01*
X70154482Y-31505812D01*
X70274180Y-31469502D01*
X70384494Y-31410537D01*
X70481185Y-31331185D01*
X70556018Y-31240000D01*
X72441957Y-31240000D01*
X72545363Y-31394759D01*
X72745241Y-31594637D01*
X72980273Y-31751680D01*
X73241426Y-31859853D01*
X73518665Y-31915000D01*
X73801335Y-31915000D01*
X74078574Y-31859853D01*
X74339727Y-31751680D01*
X74574759Y-31594637D01*
X74774637Y-31394759D01*
X74931680Y-31159727D01*
X75039853Y-30898574D01*
X75095000Y-30621335D01*
X75095000Y-30338665D01*
X75039853Y-30061426D01*
X74931680Y-29800273D01*
X74774637Y-29565241D01*
X74574759Y-29365363D01*
X74339727Y-29208320D01*
X74078574Y-29100147D01*
X73801335Y-29045000D01*
X73518665Y-29045000D01*
X73241426Y-29100147D01*
X72980273Y-29208320D01*
X72745241Y-29365363D01*
X72545363Y-29565241D01*
X72441957Y-29720000D01*
X70556018Y-29720000D01*
X70481185Y-29628815D01*
X70384494Y-29549463D01*
X70274180Y-29490498D01*
X70154482Y-29454188D01*
X70030000Y-29441928D01*
X69130000Y-29441928D01*
X69005518Y-29454188D01*
X68885820Y-29490498D01*
X68775506Y-29549463D01*
X68678815Y-29628815D01*
X68668072Y-29641905D01*
X68668072Y-29130000D01*
X68655812Y-29005518D01*
X68619502Y-28885820D01*
X68560537Y-28775506D01*
X68481185Y-28678815D01*
X68384494Y-28599463D01*
X68274180Y-28540498D01*
X68154482Y-28504188D01*
X68030000Y-28491928D01*
X67130000Y-28491928D01*
X67005518Y-28504188D01*
X66885820Y-28540498D01*
X66775506Y-28599463D01*
X66678815Y-28678815D01*
X66599463Y-28775506D01*
X66540498Y-28885820D01*
X66504188Y-29005518D01*
X66491928Y-29130000D01*
X66491928Y-29930000D01*
X66504188Y-30054482D01*
X66540498Y-30174180D01*
X66599463Y-30284494D01*
X66615002Y-30303428D01*
X66559186Y-30286497D01*
X66447533Y-30275500D01*
X66447522Y-30275500D01*
X66410200Y-30271824D01*
X66372878Y-30275500D01*
X62382436Y-30275500D01*
X62339853Y-30061426D01*
X62231680Y-29800273D01*
X62074637Y-29565241D01*
X61874759Y-29365363D01*
X61639727Y-29208320D01*
X61378574Y-29100147D01*
X61101335Y-29045000D01*
X60818665Y-29045000D01*
X60541426Y-29100147D01*
X60280273Y-29208320D01*
X60045241Y-29365363D01*
X59845363Y-29565241D01*
X59688320Y-29800273D01*
X59580147Y-30061426D01*
X59525000Y-30338665D01*
X59525000Y-30621335D01*
X59566725Y-30831100D01*
X53667986Y-30831100D01*
X53864671Y-29229233D01*
X53867672Y-29104186D01*
X53846221Y-28980955D01*
X53801140Y-28864277D01*
X53734163Y-28758636D01*
X53647863Y-28668091D01*
X53545557Y-28596122D01*
X53532443Y-28590317D01*
X53730241Y-28392519D01*
X53898228Y-28141109D01*
X54013940Y-27861757D01*
X54072929Y-27565198D01*
X54072929Y-27262830D01*
X54013940Y-26966271D01*
X53898228Y-26686919D01*
X53730241Y-26435509D01*
X53516434Y-26221702D01*
X53265024Y-26053715D01*
X52985672Y-25938003D01*
X52689113Y-25879014D01*
X52386745Y-25879014D01*
X52090186Y-25938003D01*
X51810834Y-26053715D01*
X51559424Y-26221702D01*
X51345617Y-26435509D01*
X51177630Y-26686919D01*
X51061918Y-26966271D01*
X51002929Y-27262830D01*
X51002929Y-27565198D01*
X51061918Y-27861757D01*
X51177630Y-28141109D01*
X51293123Y-28313957D01*
X51274255Y-28317241D01*
X51157577Y-28362322D01*
X51051936Y-28429299D01*
X50961391Y-28515599D01*
X50889422Y-28617905D01*
X50838796Y-28732286D01*
X50811456Y-28854346D01*
X50592091Y-30640929D01*
X50589090Y-30765976D01*
X50600426Y-30831100D01*
X46686822Y-30831100D01*
X46649499Y-30827424D01*
X46612176Y-30831100D01*
X46612167Y-30831100D01*
X46500514Y-30842097D01*
X46357253Y-30885554D01*
X46225224Y-30956126D01*
X46109499Y-31051099D01*
X46085701Y-31080097D01*
X41403812Y-35761987D01*
X41385818Y-35671526D01*
X41270106Y-35392174D01*
X41102119Y-35140764D01*
X40888312Y-34926957D01*
X40636902Y-34758970D01*
X40357550Y-34643258D01*
X40060991Y-34584269D01*
X39758623Y-34584269D01*
X39462064Y-34643258D01*
X39182712Y-34758970D01*
X38931302Y-34926957D01*
X38717495Y-35140764D01*
X38549508Y-35392174D01*
X38433796Y-35671526D01*
X38418984Y-35745993D01*
X38354399Y-35667297D01*
X38330601Y-35638299D01*
X38301603Y-35614501D01*
X34469078Y-31781976D01*
X38905090Y-31781976D01*
X38926541Y-31905207D01*
X38971622Y-32021885D01*
X39038599Y-32127526D01*
X39124899Y-32218071D01*
X39227205Y-32290040D01*
X39341586Y-32340666D01*
X39463646Y-32368006D01*
X41250229Y-32587371D01*
X41375276Y-32590372D01*
X41498507Y-32568921D01*
X41615185Y-32523840D01*
X41720826Y-32456863D01*
X41811371Y-32370563D01*
X41883340Y-32268257D01*
X41933966Y-32153876D01*
X41961306Y-32031816D01*
X42180671Y-30245233D01*
X42183672Y-30120186D01*
X42162221Y-29996955D01*
X42117140Y-29880277D01*
X42050163Y-29774636D01*
X41963863Y-29684091D01*
X41861557Y-29612122D01*
X41848443Y-29606317D01*
X42046241Y-29408519D01*
X42214228Y-29157109D01*
X42329940Y-28877757D01*
X42388929Y-28581198D01*
X42388929Y-28278830D01*
X42329940Y-27982271D01*
X42214228Y-27702919D01*
X42080800Y-27503230D01*
X42080800Y-24884174D01*
X42194351Y-24898116D01*
X42319398Y-24901117D01*
X42442629Y-24879666D01*
X42559307Y-24834585D01*
X42664948Y-24767608D01*
X42755493Y-24681308D01*
X42827462Y-24579002D01*
X42878088Y-24464621D01*
X42905428Y-24342561D01*
X43060853Y-23076721D01*
X51533212Y-23076721D01*
X51554663Y-23199952D01*
X51599744Y-23316630D01*
X51666721Y-23422271D01*
X51753021Y-23512816D01*
X51855327Y-23584785D01*
X51969708Y-23635411D01*
X52091768Y-23662751D01*
X53878351Y-23882116D01*
X54003398Y-23885117D01*
X54126629Y-23863666D01*
X54243307Y-23818585D01*
X54348948Y-23751608D01*
X54439493Y-23665308D01*
X54511462Y-23563002D01*
X54562088Y-23448621D01*
X54589428Y-23326561D01*
X54808793Y-21539978D01*
X54811794Y-21414931D01*
X54790343Y-21291700D01*
X54745262Y-21175022D01*
X54678285Y-21069381D01*
X54591985Y-20978836D01*
X54489679Y-20906867D01*
X54476565Y-20901062D01*
X54674363Y-20703264D01*
X54842350Y-20451854D01*
X54958062Y-20172502D01*
X55017051Y-19875943D01*
X55017051Y-19573575D01*
X54958062Y-19277016D01*
X54842350Y-18997664D01*
X54674363Y-18746254D01*
X54460556Y-18532447D01*
X54209146Y-18364460D01*
X53929794Y-18248748D01*
X53633235Y-18189759D01*
X53330867Y-18189759D01*
X53034308Y-18248748D01*
X52754956Y-18364460D01*
X52503546Y-18532447D01*
X52289739Y-18746254D01*
X52121752Y-18997664D01*
X52006040Y-19277016D01*
X51947051Y-19573575D01*
X51947051Y-19875943D01*
X52006040Y-20172502D01*
X52121752Y-20451854D01*
X52237245Y-20624702D01*
X52218377Y-20627986D01*
X52101699Y-20673067D01*
X51996058Y-20740044D01*
X51905513Y-20826344D01*
X51833544Y-20928650D01*
X51782918Y-21043031D01*
X51755578Y-21165091D01*
X51536213Y-22951674D01*
X51533212Y-23076721D01*
X43060853Y-23076721D01*
X43124793Y-22555978D01*
X43127794Y-22430931D01*
X43106343Y-22307700D01*
X43061262Y-22191022D01*
X42994285Y-22085381D01*
X42907985Y-21994836D01*
X42805679Y-21922867D01*
X42792565Y-21917062D01*
X42990363Y-21719264D01*
X43158350Y-21467854D01*
X43274062Y-21188502D01*
X43333051Y-20891943D01*
X43333051Y-20589575D01*
X43274062Y-20293016D01*
X43158350Y-20013664D01*
X42990363Y-19762254D01*
X42776556Y-19548447D01*
X42525146Y-19380460D01*
X42245794Y-19264748D01*
X41949235Y-19205759D01*
X41646867Y-19205759D01*
X41350308Y-19264748D01*
X41070956Y-19380460D01*
X40819546Y-19548447D01*
X40605739Y-19762254D01*
X40437752Y-20013664D01*
X40322040Y-20293016D01*
X40263051Y-20589575D01*
X40263051Y-20891943D01*
X40322040Y-21188502D01*
X40437752Y-21467854D01*
X40553245Y-21640702D01*
X40534377Y-21643986D01*
X40417699Y-21689067D01*
X40312058Y-21756044D01*
X40221513Y-21842344D01*
X40149544Y-21944650D01*
X40098918Y-22059031D01*
X40071578Y-22181091D01*
X39852213Y-23967674D01*
X39849212Y-24092721D01*
X39870663Y-24215952D01*
X39915744Y-24332630D01*
X39982721Y-24438271D01*
X40069021Y-24528816D01*
X40171327Y-24600785D01*
X40285708Y-24651411D01*
X40407768Y-24678751D01*
X40560801Y-24697541D01*
X40560800Y-26923248D01*
X40406186Y-26954003D01*
X40126834Y-27069715D01*
X39875424Y-27237702D01*
X39661617Y-27451509D01*
X39493630Y-27702919D01*
X39377918Y-27982271D01*
X39318929Y-28278830D01*
X39318929Y-28581198D01*
X39377918Y-28877757D01*
X39493630Y-29157109D01*
X39609123Y-29329957D01*
X39590255Y-29333241D01*
X39473577Y-29378322D01*
X39367936Y-29445299D01*
X39277391Y-29531599D01*
X39205422Y-29633905D01*
X39154796Y-29748286D01*
X39127456Y-29870346D01*
X38908091Y-31656929D01*
X38905090Y-31781976D01*
X34469078Y-31781976D01*
X31494404Y-28807303D01*
X31470601Y-28778299D01*
X31354876Y-28683326D01*
X31222847Y-28612754D01*
X31079586Y-28569297D01*
X30967933Y-28558300D01*
X30967922Y-28558300D01*
X30930600Y-28554624D01*
X30893278Y-28558300D01*
X26273725Y-28558300D01*
X26236400Y-28554624D01*
X26199075Y-28558300D01*
X26199067Y-28558300D01*
X26087414Y-28569297D01*
X25944153Y-28612754D01*
X25812124Y-28683326D01*
X25696399Y-28778299D01*
X25672601Y-28807297D01*
X25475479Y-29004419D01*
X25439502Y-28885820D01*
X25380537Y-28775506D01*
X25301185Y-28678815D01*
X25204494Y-28599463D01*
X25094180Y-28540498D01*
X24974482Y-28504188D01*
X24850000Y-28491928D01*
X23950000Y-28491928D01*
X23825518Y-28504188D01*
X23705820Y-28540498D01*
X23595506Y-28599463D01*
X23498815Y-28678815D01*
X23419463Y-28775506D01*
X23360498Y-28885820D01*
X23324188Y-29005518D01*
X23311928Y-29130000D01*
X23311928Y-29930000D01*
X23324188Y-30054482D01*
X23360498Y-30174180D01*
X23419463Y-30284494D01*
X23438179Y-30307300D01*
X19208761Y-30307300D01*
X19159853Y-30061426D01*
X19051680Y-29800273D01*
X18894637Y-29565241D01*
X18694759Y-29365363D01*
X18459727Y-29208320D01*
X18198574Y-29100147D01*
X17921335Y-29045000D01*
X17638665Y-29045000D01*
X17361426Y-29100147D01*
X17100273Y-29208320D01*
X16975400Y-29291757D01*
X16975400Y-23149401D01*
X20634802Y-19490000D01*
X25963982Y-19490000D01*
X26038815Y-19581185D01*
X26135506Y-19660537D01*
X26245820Y-19719502D01*
X26365518Y-19755812D01*
X26490000Y-19768072D01*
X27390000Y-19768072D01*
X27514482Y-19755812D01*
X27634180Y-19719502D01*
X27744494Y-19660537D01*
X27841185Y-19581185D01*
X27920537Y-19484494D01*
X27979502Y-19374180D01*
X28015812Y-19254482D01*
X28028072Y-19130000D01*
X28028072Y-18618095D01*
X28038815Y-18631185D01*
X28135506Y-18710537D01*
X28180001Y-18734320D01*
X28180000Y-21291198D01*
X27882322Y-21588876D01*
X27812561Y-21575000D01*
X27559439Y-21575000D01*
X27311179Y-21624381D01*
X27077324Y-21721247D01*
X26866860Y-21861875D01*
X26687875Y-22040860D01*
X26547247Y-22251324D01*
X26450381Y-22485179D01*
X26434072Y-22567172D01*
X26434072Y-22210000D01*
X26421812Y-22085518D01*
X26385502Y-21965820D01*
X26326537Y-21855506D01*
X26247185Y-21758815D01*
X26150494Y-21679463D01*
X26040180Y-21620498D01*
X25920482Y-21584188D01*
X25796000Y-21571928D01*
X24496000Y-21571928D01*
X24371518Y-21584188D01*
X24251820Y-21620498D01*
X24141506Y-21679463D01*
X24044815Y-21758815D01*
X23965463Y-21855506D01*
X23906498Y-21965820D01*
X23870188Y-22085518D01*
X23857928Y-22210000D01*
X23857928Y-23510000D01*
X23870188Y-23634482D01*
X23906498Y-23754180D01*
X23965463Y-23864494D01*
X24044815Y-23961185D01*
X24141506Y-24040537D01*
X24251820Y-24099502D01*
X24371518Y-24135812D01*
X24496000Y-24148072D01*
X25131000Y-24148072D01*
X25131000Y-24256561D01*
X25180381Y-24504821D01*
X25277247Y-24738676D01*
X25417875Y-24949140D01*
X25596860Y-25128125D01*
X25807324Y-25268753D01*
X26041179Y-25365619D01*
X26289439Y-25415000D01*
X26542561Y-25415000D01*
X26790821Y-25365619D01*
X27024676Y-25268753D01*
X27235140Y-25128125D01*
X27414125Y-24949140D01*
X27554753Y-24738676D01*
X27651619Y-24504821D01*
X27701000Y-24256561D01*
X27701000Y-24145000D01*
X27812561Y-24145000D01*
X28060821Y-24095619D01*
X28294676Y-23998753D01*
X28505140Y-23858125D01*
X28684125Y-23679140D01*
X28824753Y-23468676D01*
X28921619Y-23234821D01*
X28971000Y-22986561D01*
X28971000Y-22733439D01*
X28957124Y-22663678D01*
X29451004Y-22169798D01*
X29480001Y-22146001D01*
X29574974Y-22030276D01*
X29645546Y-21898247D01*
X29689003Y-21754986D01*
X29700000Y-21643333D01*
X29700000Y-21643323D01*
X29703676Y-21606000D01*
X29700000Y-21568677D01*
X29700000Y-18734320D01*
X29744494Y-18710537D01*
X29841185Y-18631185D01*
X29916018Y-18540000D01*
X31801957Y-18540000D01*
X31905363Y-18694759D01*
X32105241Y-18894637D01*
X32340273Y-19051680D01*
X32601426Y-19159853D01*
X32878665Y-19215000D01*
X33161335Y-19215000D01*
X33438574Y-19159853D01*
X33699727Y-19051680D01*
X33934759Y-18894637D01*
X34134637Y-18694759D01*
X34291680Y-18459727D01*
X34399853Y-18198574D01*
X34455000Y-17921335D01*
X34455000Y-17638665D01*
X34399853Y-17361426D01*
X34291680Y-17100273D01*
X34134637Y-16865241D01*
X33934759Y-16665363D01*
X33731454Y-16529519D01*
X40777856Y-16529519D01*
X40799307Y-16652750D01*
X40844388Y-16769428D01*
X40911365Y-16875069D01*
X40997665Y-16965614D01*
X41099971Y-17037583D01*
X41214352Y-17088209D01*
X41336412Y-17115549D01*
X43122995Y-17334914D01*
X43248042Y-17337915D01*
X43371273Y-17316464D01*
X43487951Y-17271383D01*
X43593592Y-17204406D01*
X43684137Y-17118106D01*
X43756106Y-17015800D01*
X43806732Y-16901419D01*
X43834072Y-16779359D01*
X44053437Y-14992776D01*
X44056438Y-14867729D01*
X44034987Y-14744498D01*
X43989906Y-14627820D01*
X43922929Y-14522179D01*
X43836629Y-14431634D01*
X43734323Y-14359665D01*
X43721209Y-14353860D01*
X43919007Y-14156062D01*
X44086994Y-13904652D01*
X44202706Y-13625300D01*
X44261695Y-13328741D01*
X44261695Y-13026373D01*
X44202706Y-12729814D01*
X44086994Y-12450462D01*
X43919007Y-12199052D01*
X43705200Y-11985245D01*
X43453790Y-11817258D01*
X43174438Y-11701546D01*
X42877879Y-11642557D01*
X42575511Y-11642557D01*
X42278952Y-11701546D01*
X41999600Y-11817258D01*
X41748190Y-11985245D01*
X41534383Y-12199052D01*
X41366396Y-12450462D01*
X41250684Y-12729814D01*
X41191695Y-13026373D01*
X41191695Y-13328741D01*
X41250684Y-13625300D01*
X41366396Y-13904652D01*
X41481889Y-14077500D01*
X41463021Y-14080784D01*
X41346343Y-14125865D01*
X41240702Y-14192842D01*
X41150157Y-14279142D01*
X41078188Y-14381448D01*
X41027562Y-14495829D01*
X41000222Y-14617889D01*
X40780857Y-16404472D01*
X40777856Y-16529519D01*
X33731454Y-16529519D01*
X33699727Y-16508320D01*
X33438574Y-16400147D01*
X33161335Y-16345000D01*
X32878665Y-16345000D01*
X32601426Y-16400147D01*
X32340273Y-16508320D01*
X32105241Y-16665363D01*
X31905363Y-16865241D01*
X31801957Y-17020000D01*
X29916018Y-17020000D01*
X29841185Y-16928815D01*
X29744494Y-16849463D01*
X29634180Y-16790498D01*
X29514482Y-16754188D01*
X29390000Y-16741928D01*
X28490000Y-16741928D01*
X28365518Y-16754188D01*
X28245820Y-16790498D01*
X28135506Y-16849463D01*
X28038815Y-16928815D01*
X28028072Y-16941905D01*
X28028072Y-16430000D01*
X28015812Y-16305518D01*
X27979502Y-16185820D01*
X27920537Y-16075506D01*
X27841185Y-15978815D01*
X27744494Y-15899463D01*
X27634180Y-15840498D01*
X27514482Y-15804188D01*
X27390000Y-15791928D01*
X26490000Y-15791928D01*
X26365518Y-15804188D01*
X26245820Y-15840498D01*
X26135506Y-15899463D01*
X26038815Y-15978815D01*
X25959463Y-16075506D01*
X25900498Y-16185820D01*
X25864188Y-16305518D01*
X25851928Y-16430000D01*
X25851928Y-17230000D01*
X25864188Y-17354482D01*
X25900498Y-17474180D01*
X25959463Y-17584494D01*
X26038815Y-17681185D01*
X26135506Y-17760537D01*
X26171918Y-17780000D01*
X26135506Y-17799463D01*
X26038815Y-17878815D01*
X25963982Y-17970000D01*
X21745320Y-17970000D01*
X21755000Y-17921335D01*
X21755000Y-17638665D01*
X21699853Y-17361426D01*
X21591680Y-17100273D01*
X21434637Y-16865241D01*
X21234759Y-16665363D01*
X21042741Y-16537061D01*
X25307502Y-12272300D01*
X38611678Y-12272300D01*
X38649000Y-12275976D01*
X38686322Y-12272300D01*
X38686333Y-12272300D01*
X38797986Y-12261303D01*
X38941247Y-12217846D01*
X39073276Y-12147274D01*
X39189001Y-12052301D01*
X39212803Y-12023298D01*
X39472216Y-11763885D01*
X39495820Y-11776502D01*
X39615518Y-11812812D01*
X39740000Y-11825072D01*
X41540000Y-11825072D01*
X41664482Y-11812812D01*
X41784180Y-11776502D01*
X41894494Y-11717537D01*
X41991185Y-11638185D01*
X42070537Y-11541494D01*
X42129502Y-11431180D01*
X42165812Y-11311482D01*
X42178072Y-11187000D01*
X42178072Y-11047000D01*
X47124299Y-11047000D01*
X54368300Y-18291002D01*
G37*
X54368300Y-18291002D02*
X54392099Y-18320001D01*
X54507824Y-18414974D01*
X54639853Y-18485546D01*
X54783114Y-18529003D01*
X54894767Y-18540000D01*
X54894776Y-18540000D01*
X54932099Y-18543676D01*
X54969422Y-18540000D01*
X62281957Y-18540000D01*
X62385363Y-18694759D01*
X62585241Y-18894637D01*
X62820273Y-19051680D01*
X63081426Y-19159853D01*
X63358665Y-19215000D01*
X63641335Y-19215000D01*
X63918574Y-19159853D01*
X64179727Y-19051680D01*
X64414759Y-18894637D01*
X64614637Y-18694759D01*
X64718043Y-18540000D01*
X69031928Y-18540000D01*
X69031928Y-19130000D01*
X69044188Y-19254482D01*
X69080498Y-19374180D01*
X69139463Y-19484494D01*
X69218815Y-19581185D01*
X69315506Y-19660537D01*
X69425820Y-19719502D01*
X69545518Y-19755812D01*
X69670000Y-19768072D01*
X70570000Y-19768072D01*
X70694482Y-19755812D01*
X70814180Y-19719502D01*
X70924494Y-19660537D01*
X71021185Y-19581185D01*
X71100537Y-19484494D01*
X71159502Y-19374180D01*
X71195812Y-19254482D01*
X71208072Y-19130000D01*
X71208072Y-18618095D01*
X71218815Y-18631185D01*
X71315506Y-18710537D01*
X71360001Y-18734320D01*
X71360000Y-20529198D01*
X70300322Y-21588876D01*
X70230561Y-21575000D01*
X69977439Y-21575000D01*
X69729179Y-21624381D01*
X69495324Y-21721247D01*
X69284860Y-21861875D01*
X69105875Y-22040860D01*
X68965247Y-22251324D01*
X68868381Y-22485179D01*
X68852072Y-22567172D01*
X68852072Y-22210000D01*
X68839812Y-22085518D01*
X68803502Y-21965820D01*
X68744537Y-21855506D01*
X68665185Y-21758815D01*
X68568494Y-21679463D01*
X68458180Y-21620498D01*
X68338482Y-21584188D01*
X68214000Y-21571928D01*
X66914000Y-21571928D01*
X66789518Y-21584188D01*
X66669820Y-21620498D01*
X66559506Y-21679463D01*
X66462815Y-21758815D01*
X66383463Y-21855506D01*
X66324498Y-21965820D01*
X66288188Y-22085518D01*
X66275928Y-22210000D01*
X66275928Y-23510000D01*
X66288188Y-23634482D01*
X66324498Y-23754180D01*
X66383463Y-23864494D01*
X66462815Y-23961185D01*
X66559506Y-24040537D01*
X66669820Y-24099502D01*
X66789518Y-24135812D01*
X66914000Y-24148072D01*
X67549000Y-24148072D01*
X67549000Y-24256561D01*
X67598381Y-24504821D01*
X67695247Y-24738676D01*
X67835875Y-24949140D01*
X68014860Y-25128125D01*
X68225324Y-25268753D01*
X68459179Y-25365619D01*
X68707439Y-25415000D01*
X68960561Y-25415000D01*
X69208821Y-25365619D01*
X69442676Y-25268753D01*
X69653140Y-25128125D01*
X69832125Y-24949140D01*
X69972753Y-24738676D01*
X70069619Y-24504821D01*
X70119000Y-24256561D01*
X70119000Y-24145000D01*
X70230561Y-24145000D01*
X70478821Y-24095619D01*
X70712676Y-23998753D01*
X70923140Y-23858125D01*
X71102125Y-23679140D01*
X71242753Y-23468676D01*
X71339619Y-23234821D01*
X71389000Y-22986561D01*
X71389000Y-22733439D01*
X71375124Y-22663678D01*
X72631004Y-21407798D01*
X72660001Y-21384001D01*
X72754974Y-21268276D01*
X72825546Y-21136247D01*
X72869003Y-20992986D01*
X72880000Y-20881333D01*
X72880000Y-20881332D01*
X72883677Y-20844000D01*
X72880000Y-20806667D01*
X72880000Y-18734320D01*
X72924494Y-18710537D01*
X73021185Y-18631185D01*
X73096018Y-18540000D01*
X74981957Y-18540000D01*
X75085363Y-18694759D01*
X75285241Y-18894637D01*
X75520273Y-19051680D01*
X75781426Y-19159853D01*
X76058665Y-19215000D01*
X76341335Y-19215000D01*
X76618574Y-19159853D01*
X76879727Y-19051680D01*
X77114759Y-18894637D01*
X77314637Y-18694759D01*
X77471680Y-18459727D01*
X77579853Y-18198574D01*
X77635000Y-17921335D01*
X77635000Y-17638665D01*
X77579853Y-17361426D01*
X77471680Y-17100273D01*
X77314637Y-16865241D01*
X77114759Y-16665363D01*
X76879727Y-16508320D01*
X76618574Y-16400147D01*
X76341335Y-16345000D01*
X76058665Y-16345000D01*
X75781426Y-16400147D01*
X75520273Y-16508320D01*
X75285241Y-16665363D01*
X75085363Y-16865241D01*
X74981957Y-17020000D01*
X73096018Y-17020000D01*
X73021185Y-16928815D01*
X72924494Y-16849463D01*
X72849581Y-16809420D01*
X77513702Y-12145300D01*
X80775678Y-12145300D01*
X80813000Y-12148976D01*
X80850322Y-12145300D01*
X80850333Y-12145300D01*
X80961986Y-12134303D01*
X81105247Y-12090846D01*
X81237276Y-12020274D01*
X81353001Y-11925301D01*
X81376803Y-11896298D01*
X81636216Y-11636885D01*
X81659820Y-11649502D01*
X81779518Y-11685812D01*
X81904000Y-11698072D01*
X83693692Y-11698072D01*
X83530396Y-11942462D01*
X83414684Y-12221814D01*
X83355695Y-12518373D01*
X83355695Y-12820741D01*
X83414684Y-13117300D01*
X83530396Y-13396652D01*
X83645889Y-13569500D01*
X83627021Y-13572784D01*
X83510343Y-13617865D01*
X83404702Y-13684842D01*
X83314157Y-13771142D01*
X83242188Y-13873448D01*
X83191562Y-13987829D01*
X83164222Y-14109889D01*
X82944857Y-15896472D01*
X82941856Y-16021519D01*
X82963307Y-16144750D01*
X83008388Y-16261428D01*
X83075365Y-16367069D01*
X83161665Y-16457614D01*
X83263971Y-16529583D01*
X83378352Y-16580209D01*
X83500412Y-16607549D01*
X83653401Y-16626334D01*
X83653400Y-18729081D01*
X83514308Y-18756748D01*
X83234956Y-18872460D01*
X82983546Y-19040447D01*
X82769739Y-19254254D01*
X82601752Y-19505664D01*
X82486040Y-19785016D01*
X82427051Y-20081575D01*
X82427051Y-20383943D01*
X82486040Y-20680502D01*
X82601752Y-20959854D01*
X82717245Y-21132702D01*
X82698377Y-21135986D01*
X82581699Y-21181067D01*
X82476058Y-21248044D01*
X82385513Y-21334344D01*
X82313544Y-21436650D01*
X82262918Y-21551031D01*
X82235578Y-21673091D01*
X82016213Y-23459674D01*
X82013212Y-23584721D01*
X82034663Y-23707952D01*
X82079744Y-23824630D01*
X82146721Y-23930271D01*
X82233021Y-24020816D01*
X82335327Y-24092785D01*
X82449708Y-24143411D01*
X82571768Y-24170751D01*
X84358351Y-24390116D01*
X84483398Y-24393117D01*
X84606629Y-24371666D01*
X84723307Y-24326585D01*
X84828948Y-24259608D01*
X84919493Y-24173308D01*
X84991462Y-24071002D01*
X85042088Y-23956621D01*
X85069428Y-23834561D01*
X85288793Y-22047978D01*
X85291794Y-21922931D01*
X85270343Y-21799700D01*
X85225262Y-21683022D01*
X85158285Y-21577381D01*
X85071985Y-21486836D01*
X84969679Y-21414867D01*
X84956565Y-21409062D01*
X85154363Y-21211264D01*
X85322350Y-20959854D01*
X85438062Y-20680502D01*
X85497051Y-20383943D01*
X85497051Y-20081575D01*
X85438062Y-19785016D01*
X85322350Y-19505664D01*
X85173400Y-19282745D01*
X85173400Y-16812966D01*
X85286995Y-16826914D01*
X85412042Y-16829915D01*
X85535273Y-16808464D01*
X85651951Y-16763383D01*
X85757592Y-16696406D01*
X85848137Y-16610106D01*
X85920106Y-16507800D01*
X85970732Y-16393419D01*
X85998072Y-16271359D01*
X86217437Y-14484776D01*
X86220438Y-14359729D01*
X86198987Y-14236498D01*
X86153906Y-14119820D01*
X86086929Y-14014179D01*
X86000629Y-13923634D01*
X85898323Y-13851665D01*
X85885209Y-13845860D01*
X86083007Y-13648062D01*
X86250994Y-13396652D01*
X86366706Y-13117300D01*
X86425695Y-12820741D01*
X86425695Y-12537697D01*
X87164800Y-13276802D01*
X87164801Y-15959468D01*
X87161124Y-15996800D01*
X87175798Y-16145785D01*
X87219254Y-16289046D01*
X87289826Y-16421076D01*
X87361001Y-16507802D01*
X87384800Y-16536801D01*
X87413798Y-16560599D01*
X90027849Y-19174651D01*
X90000498Y-19225820D01*
X89964188Y-19345518D01*
X89951928Y-19470000D01*
X89951928Y-21170000D01*
X89964188Y-21294482D01*
X90000498Y-21414180D01*
X90059463Y-21524494D01*
X90138815Y-21621185D01*
X90235506Y-21700537D01*
X90345820Y-21759502D01*
X90465518Y-21795812D01*
X90590000Y-21808072D01*
X91313000Y-21808072D01*
X91313000Y-26493894D01*
X91205790Y-26422258D01*
X90926438Y-26306546D01*
X90629879Y-26247557D01*
X90327511Y-26247557D01*
X90030952Y-26306546D01*
X89751600Y-26422258D01*
X89500190Y-26590245D01*
X89286383Y-26804052D01*
X89118396Y-27055462D01*
X89002684Y-27334814D01*
X88943695Y-27631373D01*
X88943695Y-27933741D01*
X89002684Y-28230300D01*
X89118396Y-28509652D01*
X89233889Y-28682500D01*
X89215021Y-28685784D01*
X89098343Y-28730865D01*
X88992702Y-28797842D01*
X88902157Y-28884142D01*
X88830188Y-28986448D01*
X88779562Y-29100829D01*
X88752222Y-29222889D01*
X88532857Y-31009472D01*
X88529856Y-31134519D01*
X88551307Y-31257750D01*
X88596388Y-31374428D01*
X88663365Y-31480069D01*
X88749665Y-31570614D01*
X88851971Y-31642583D01*
X88865086Y-31648388D01*
X88667287Y-31846187D01*
X88499300Y-32097597D01*
X88383588Y-32376949D01*
X88324599Y-32673508D01*
X88324599Y-32975876D01*
X88383588Y-33272435D01*
X88499300Y-33551787D01*
X88614793Y-33724635D01*
X88595925Y-33727919D01*
X88479247Y-33773000D01*
X88373606Y-33839977D01*
X88283061Y-33926277D01*
X88211092Y-34028583D01*
X88160466Y-34142964D01*
X88133126Y-34265024D01*
X87913761Y-36051607D01*
X87910760Y-36176654D01*
X87932211Y-36299885D01*
X87977292Y-36416563D01*
X88044269Y-36522204D01*
X88130569Y-36612749D01*
X88232875Y-36684718D01*
X88347256Y-36735344D01*
X88469316Y-36762684D01*
X90255899Y-36982049D01*
X90380946Y-36985050D01*
X90504177Y-36963599D01*
X90620855Y-36918518D01*
X90726496Y-36851541D01*
X90817041Y-36765241D01*
X90889010Y-36662935D01*
X90939636Y-36548554D01*
X90966976Y-36426494D01*
X91186341Y-34639911D01*
X91189342Y-34514864D01*
X91167891Y-34391633D01*
X91122810Y-34274955D01*
X91055833Y-34169314D01*
X90969533Y-34078769D01*
X90867227Y-34006800D01*
X90854113Y-34000995D01*
X91051911Y-33803197D01*
X91219898Y-33551787D01*
X91313000Y-33327020D01*
X91313000Y-83693000D01*
X85305000Y-83693000D01*
X85305000Y-83673740D01*
X85247932Y-83386842D01*
X85135990Y-83116589D01*
X84973475Y-82873368D01*
X84766632Y-82666525D01*
X84592240Y-82550000D01*
X84766632Y-82433475D01*
X84973475Y-82226632D01*
X85135990Y-81983411D01*
X85247932Y-81713158D01*
X85305000Y-81426260D01*
X85305000Y-81133740D01*
X85247932Y-80846842D01*
X85135990Y-80576589D01*
X84973475Y-80333368D01*
X84766632Y-80126525D01*
X84584466Y-80004805D01*
X84701355Y-79935178D01*
X84917588Y-79740269D01*
X85091641Y-79506920D01*
X85216825Y-79244099D01*
X85261476Y-79096890D01*
X85140155Y-78867000D01*
X83947000Y-78867000D01*
X83947000Y-78887000D01*
X83693000Y-78887000D01*
X83693000Y-78867000D01*
X82499845Y-78867000D01*
X82378524Y-79096890D01*
X82423175Y-79244099D01*
X82548359Y-79506920D01*
X82722412Y-79740269D01*
X82938645Y-79935178D01*
X83055534Y-80004805D01*
X82873368Y-80126525D01*
X82666525Y-80333368D01*
X82541822Y-80520000D01*
X73577722Y-80520000D01*
X73540399Y-80516324D01*
X73503076Y-80520000D01*
X73503067Y-80520000D01*
X73391414Y-80530997D01*
X73248153Y-80574454D01*
X73116124Y-80645026D01*
X73116122Y-80645027D01*
X73116123Y-80645027D01*
X73029396Y-80716201D01*
X73029392Y-80716205D01*
X73000399Y-80739999D01*
X72976605Y-80768992D01*
X64935000Y-88810599D01*
X64935000Y-88758665D01*
X64879853Y-88481426D01*
X64771680Y-88220273D01*
X64614637Y-87985241D01*
X64414759Y-87785363D01*
X64179727Y-87628320D01*
X63918574Y-87520147D01*
X63641335Y-87465000D01*
X63358665Y-87465000D01*
X63081426Y-87520147D01*
X62820273Y-87628320D01*
X62585241Y-87785363D01*
X62385363Y-87985241D01*
X62281957Y-88140000D01*
X59908072Y-88140000D01*
X59908072Y-88050000D01*
X59895812Y-87925518D01*
X59859502Y-87805820D01*
X59800537Y-87695506D01*
X59721185Y-87598815D01*
X59624494Y-87519463D01*
X59514180Y-87460498D01*
X59394482Y-87424188D01*
X59270000Y-87411928D01*
X58810173Y-87411928D01*
X61642102Y-84580000D01*
X62281957Y-84580000D01*
X62385363Y-84734759D01*
X62585241Y-84934637D01*
X62820273Y-85091680D01*
X63081426Y-85199853D01*
X63358665Y-85255000D01*
X63641335Y-85255000D01*
X63918574Y-85199853D01*
X64179727Y-85091680D01*
X64414759Y-84934637D01*
X64614637Y-84734759D01*
X64771680Y-84499727D01*
X64879853Y-84238574D01*
X64935000Y-83961335D01*
X64935000Y-83678665D01*
X64879853Y-83401426D01*
X64771680Y-83140273D01*
X64614637Y-82905241D01*
X64414759Y-82705363D01*
X64179727Y-82548320D01*
X63918574Y-82440147D01*
X63641335Y-82385000D01*
X63358665Y-82385000D01*
X63081426Y-82440147D01*
X62820273Y-82548320D01*
X62585241Y-82705363D01*
X62385363Y-82905241D01*
X62281957Y-83060000D01*
X61887702Y-83060000D01*
X64011004Y-80936698D01*
X64040001Y-80912901D01*
X64134974Y-80797176D01*
X64205546Y-80665147D01*
X64249003Y-80521886D01*
X64260000Y-80410233D01*
X64260000Y-80410224D01*
X64263676Y-80372901D01*
X64260000Y-80335578D01*
X64260000Y-79958043D01*
X64414759Y-79854637D01*
X64614637Y-79654759D01*
X64771680Y-79419727D01*
X64879853Y-79158574D01*
X64935000Y-78881335D01*
X64935000Y-78598665D01*
X74765000Y-78598665D01*
X74765000Y-78881335D01*
X74820147Y-79158574D01*
X74928320Y-79419727D01*
X75085363Y-79654759D01*
X75285241Y-79854637D01*
X75520273Y-80011680D01*
X75781426Y-80119853D01*
X76058665Y-80175000D01*
X76341335Y-80175000D01*
X76618574Y-80119853D01*
X76879727Y-80011680D01*
X77114759Y-79854637D01*
X77314637Y-79654759D01*
X77471680Y-79419727D01*
X77579853Y-79158574D01*
X77635000Y-78881335D01*
X77635000Y-78598665D01*
X77579853Y-78321426D01*
X77471680Y-78060273D01*
X77314637Y-77825241D01*
X77114759Y-77625363D01*
X76879727Y-77468320D01*
X76618574Y-77360147D01*
X76341335Y-77305000D01*
X76058665Y-77305000D01*
X75781426Y-77360147D01*
X75520273Y-77468320D01*
X75285241Y-77625363D01*
X75085363Y-77825241D01*
X74928320Y-78060273D01*
X74820147Y-78321426D01*
X74765000Y-78598665D01*
X64935000Y-78598665D01*
X64879853Y-78321426D01*
X64771680Y-78060273D01*
X64614637Y-77825241D01*
X64414759Y-77625363D01*
X64179727Y-77468320D01*
X63918574Y-77360147D01*
X63641335Y-77305000D01*
X63358665Y-77305000D01*
X63081426Y-77360147D01*
X62820273Y-77468320D01*
X62585241Y-77625363D01*
X62385363Y-77825241D01*
X62228320Y-78060273D01*
X62120147Y-78321426D01*
X62065000Y-78598665D01*
X62065000Y-78881335D01*
X62120147Y-79158574D01*
X62228320Y-79419727D01*
X62385363Y-79654759D01*
X62585241Y-79854637D01*
X62740000Y-79958044D01*
X62740000Y-80058098D01*
X59678120Y-83119979D01*
X59534637Y-82905241D01*
X59334759Y-82705363D01*
X59099727Y-82548320D01*
X58838574Y-82440147D01*
X58561335Y-82385000D01*
X58278665Y-82385000D01*
X58001426Y-82440147D01*
X57740273Y-82548320D01*
X57505241Y-82705363D01*
X57305363Y-82905241D01*
X57148320Y-83140273D01*
X57040147Y-83401426D01*
X56985000Y-83678665D01*
X56985000Y-83961335D01*
X57040147Y-84238574D01*
X57148320Y-84499727D01*
X57305363Y-84734759D01*
X57505241Y-84934637D01*
X57719979Y-85078120D01*
X55833399Y-86964700D01*
X55360522Y-86964700D01*
X55323199Y-86961024D01*
X55285876Y-86964700D01*
X55285867Y-86964700D01*
X55174214Y-86975697D01*
X55045966Y-87014600D01*
X55030953Y-87019154D01*
X54898923Y-87089726D01*
X54815283Y-87158368D01*
X54783199Y-87184699D01*
X54759402Y-87213696D01*
X54250630Y-87722469D01*
X54043411Y-87584010D01*
X53773158Y-87472068D01*
X53486260Y-87415000D01*
X53193740Y-87415000D01*
X52906842Y-87472068D01*
X52636589Y-87584010D01*
X52393368Y-87746525D01*
X52186525Y-87953368D01*
X52070000Y-88127760D01*
X51953475Y-87953368D01*
X51746632Y-87746525D01*
X51553089Y-87617204D01*
X51549003Y-87575714D01*
X51505546Y-87432453D01*
X51434974Y-87300424D01*
X51340001Y-87184699D01*
X51224276Y-87089726D01*
X51150271Y-87050169D01*
X47409104Y-83309003D01*
X47385301Y-83279999D01*
X47269576Y-83185026D01*
X47137547Y-83114454D01*
X46994286Y-83070997D01*
X46941947Y-83065842D01*
X46834637Y-82905241D01*
X46634759Y-82705363D01*
X46399727Y-82548320D01*
X46138574Y-82440147D01*
X45861335Y-82385000D01*
X45578665Y-82385000D01*
X45301426Y-82440147D01*
X45040273Y-82548320D01*
X44805241Y-82705363D01*
X44605363Y-82905241D01*
X44487813Y-83081167D01*
X44454286Y-83070997D01*
X44401947Y-83065842D01*
X44294637Y-82905241D01*
X44094759Y-82705363D01*
X43859727Y-82548320D01*
X43598574Y-82440147D01*
X43321335Y-82385000D01*
X43038665Y-82385000D01*
X42761426Y-82440147D01*
X42500273Y-82548320D01*
X42265241Y-82705363D01*
X42065363Y-82905241D01*
X41908320Y-83140273D01*
X41800147Y-83401426D01*
X41745000Y-83678665D01*
X41745000Y-83961335D01*
X41800147Y-84238574D01*
X41908320Y-84499727D01*
X42065363Y-84734759D01*
X42265241Y-84934637D01*
X42500273Y-85091680D01*
X42761426Y-85199853D01*
X43038665Y-85255000D01*
X43321335Y-85255000D01*
X43598574Y-85199853D01*
X43859727Y-85091680D01*
X44076222Y-84947023D01*
X47096928Y-87967731D01*
X46990000Y-88127760D01*
X46873475Y-87953368D01*
X46666632Y-87746525D01*
X46423411Y-87584010D01*
X46153158Y-87472068D01*
X45866260Y-87415000D01*
X45573740Y-87415000D01*
X45286842Y-87472068D01*
X45016589Y-87584010D01*
X44809311Y-87722509D01*
X35315804Y-78229003D01*
X35292001Y-78199999D01*
X35176276Y-78105026D01*
X35044247Y-78034454D01*
X34900986Y-77990997D01*
X34789333Y-77980000D01*
X34789322Y-77980000D01*
X34752000Y-77976324D01*
X34714678Y-77980000D01*
X26618043Y-77980000D01*
X26514637Y-77825241D01*
X26314759Y-77625363D01*
X26079727Y-77468320D01*
X25818574Y-77360147D01*
X25541335Y-77305000D01*
X25258665Y-77305000D01*
X24981426Y-77360147D01*
X24720273Y-77468320D01*
X24485241Y-77625363D01*
X24285363Y-77825241D01*
X24128320Y-78060273D01*
X24020147Y-78321426D01*
X23965000Y-78598665D01*
X23965000Y-78881335D01*
X24020147Y-79158574D01*
X24128320Y-79419727D01*
X24285363Y-79654759D01*
X24485241Y-79854637D01*
X24720273Y-80011680D01*
X24981426Y-80119853D01*
X25258665Y-80175000D01*
X25541335Y-80175000D01*
X25818574Y-80119853D01*
X26079727Y-80011680D01*
X26314759Y-79854637D01*
X26514637Y-79654759D01*
X26618043Y-79500000D01*
X34437199Y-79500000D01*
X42508140Y-87570941D01*
X42476589Y-87584010D01*
X42269311Y-87722509D01*
X38981104Y-84434303D01*
X38957301Y-84405299D01*
X38841576Y-84310326D01*
X38709547Y-84239754D01*
X38566286Y-84196297D01*
X38454633Y-84185300D01*
X38454622Y-84185300D01*
X38417300Y-84181624D01*
X38379978Y-84185300D01*
X31870450Y-84185300D01*
X31915000Y-83961335D01*
X31915000Y-83678665D01*
X31859853Y-83401426D01*
X31751680Y-83140273D01*
X31594637Y-82905241D01*
X31394759Y-82705363D01*
X31159727Y-82548320D01*
X30898574Y-82440147D01*
X30621335Y-82385000D01*
X30338665Y-82385000D01*
X30061426Y-82440147D01*
X29800273Y-82548320D01*
X29565241Y-82705363D01*
X29365363Y-82905241D01*
X29208320Y-83140273D01*
X29100147Y-83401426D01*
X29045000Y-83678665D01*
X29045000Y-83961335D01*
X29089550Y-84185300D01*
X27965402Y-84185300D01*
X27089104Y-83309002D01*
X27065301Y-83279999D01*
X26949576Y-83185026D01*
X26817547Y-83114454D01*
X26674286Y-83070997D01*
X26621947Y-83065842D01*
X26514637Y-82905241D01*
X26314759Y-82705363D01*
X26079727Y-82548320D01*
X25818574Y-82440147D01*
X25541335Y-82385000D01*
X25258665Y-82385000D01*
X24981426Y-82440147D01*
X24720273Y-82548320D01*
X24485241Y-82705363D01*
X24285363Y-82905241D01*
X24128320Y-83140273D01*
X24020147Y-83401426D01*
X23965000Y-83678665D01*
X23965000Y-83961335D01*
X24020147Y-84238574D01*
X24128320Y-84499727D01*
X24285363Y-84734759D01*
X24485241Y-84934637D01*
X24720273Y-85091680D01*
X24981426Y-85199853D01*
X25258665Y-85255000D01*
X25541335Y-85255000D01*
X25818574Y-85199853D01*
X26079727Y-85091680D01*
X26314759Y-84934637D01*
X26439947Y-84809449D01*
X27086800Y-85456302D01*
X27110599Y-85485301D01*
X27139597Y-85509099D01*
X27226324Y-85580274D01*
X27358353Y-85650846D01*
X27501614Y-85694303D01*
X27650600Y-85708977D01*
X27687933Y-85705300D01*
X38102499Y-85705300D01*
X39968140Y-87570941D01*
X39936589Y-87584010D01*
X39693368Y-87746525D01*
X39486525Y-87953368D01*
X39370000Y-88127760D01*
X39253475Y-87953368D01*
X39046632Y-87746525D01*
X38803411Y-87584010D01*
X38533158Y-87472068D01*
X38246260Y-87415000D01*
X37953740Y-87415000D01*
X37666842Y-87472068D01*
X37396589Y-87584010D01*
X37153368Y-87746525D01*
X36946525Y-87953368D01*
X36824805Y-88135534D01*
X36755178Y-88018645D01*
X36560269Y-87802412D01*
X36326920Y-87628359D01*
X36064099Y-87503175D01*
X35916890Y-87458524D01*
X35687000Y-87579845D01*
X35687000Y-88773000D01*
X35707000Y-88773000D01*
X35707000Y-89027000D01*
X35687000Y-89027000D01*
X35687000Y-89047000D01*
X35433000Y-89047000D01*
X35433000Y-89027000D01*
X35413000Y-89027000D01*
X35413000Y-88773000D01*
X35433000Y-88773000D01*
X35433000Y-87579845D01*
X35203110Y-87458524D01*
X35055901Y-87503175D01*
X34793080Y-87628359D01*
X34559731Y-87802412D01*
X34364822Y-88018645D01*
X34295195Y-88135534D01*
X34173475Y-87953368D01*
X33966632Y-87746525D01*
X33723411Y-87584010D01*
X33453158Y-87472068D01*
X33166260Y-87415000D01*
X32873740Y-87415000D01*
X32586842Y-87472068D01*
X32316589Y-87584010D01*
X32108112Y-87723310D01*
X30649104Y-86264303D01*
X30625301Y-86235299D01*
X30509576Y-86140326D01*
X30377547Y-86069754D01*
X30234286Y-86026297D01*
X30122633Y-86015300D01*
X30122622Y-86015300D01*
X30085300Y-86011624D01*
X30047978Y-86015300D01*
X21126202Y-86015300D01*
X15879904Y-80769003D01*
X15856101Y-80739999D01*
X15740376Y-80645026D01*
X15608347Y-80574454D01*
X15465086Y-80530997D01*
X15353433Y-80520000D01*
X15353422Y-80520000D01*
X15316100Y-80516324D01*
X15278778Y-80520000D01*
X-1261822Y-80520000D01*
X-1386525Y-80333368D01*
X-1593368Y-80126525D01*
X-1775534Y-80004805D01*
X-1658645Y-79935178D01*
X-1442412Y-79740269D01*
X-1268359Y-79506920D01*
X-1143175Y-79244099D01*
X-1098524Y-79096890D01*
X-1219845Y-78867000D01*
X-2413000Y-78867000D01*
X-2413000Y-78613000D01*
X-1219845Y-78613000D01*
X-1212280Y-78598665D01*
X11265000Y-78598665D01*
X11265000Y-78881335D01*
X11320147Y-79158574D01*
X11428320Y-79419727D01*
X11585363Y-79654759D01*
X11785241Y-79854637D01*
X12020273Y-80011680D01*
X12281426Y-80119853D01*
X12558665Y-80175000D01*
X12841335Y-80175000D01*
X13118574Y-80119853D01*
X13379727Y-80011680D01*
X13614759Y-79854637D01*
X13814637Y-79654759D01*
X13971680Y-79419727D01*
X14079853Y-79158574D01*
X14135000Y-78881335D01*
X14135000Y-78598665D01*
X14079853Y-78321426D01*
X13971680Y-78060273D01*
X13814637Y-77825241D01*
X13614759Y-77625363D01*
X13379727Y-77468320D01*
X13118574Y-77360147D01*
X12841335Y-77305000D01*
X12558665Y-77305000D01*
X12281426Y-77360147D01*
X12020273Y-77468320D01*
X11785241Y-77625363D01*
X11585363Y-77825241D01*
X11428320Y-78060273D01*
X11320147Y-78321426D01*
X11265000Y-78598665D01*
X-1212280Y-78598665D01*
X-1098524Y-78383110D01*
X-1143175Y-78235901D01*
X-1268359Y-77973080D01*
X-1442412Y-77739731D01*
X-1658645Y-77544822D01*
X-1775534Y-77475195D01*
X-1593368Y-77353475D01*
X-1386525Y-77146632D01*
X-1345344Y-77085000D01*
X266331Y-77085000D01*
X309800Y-77089281D01*
X353269Y-77085000D01*
X353277Y-77085000D01*
X483290Y-77072195D01*
X650113Y-77021589D01*
X690503Y-77000000D01*
X34121928Y-77000000D01*
X34134188Y-77124482D01*
X34170498Y-77244180D01*
X34229463Y-77354494D01*
X34308815Y-77451185D01*
X34405506Y-77530537D01*
X34515820Y-77589502D01*
X34635518Y-77625812D01*
X34760000Y-77638072D01*
X35274250Y-77635000D01*
X35433000Y-77476250D01*
X35433000Y-76327000D01*
X34283750Y-76327000D01*
X34125000Y-76485750D01*
X34121928Y-77000000D01*
X690503Y-77000000D01*
X803859Y-76939411D01*
X938617Y-76828817D01*
X966334Y-76795044D01*
X6343014Y-71418364D01*
X6397989Y-71694743D01*
X6513701Y-71974095D01*
X6681688Y-72225505D01*
X6895495Y-72439312D01*
X7146905Y-72607299D01*
X7426257Y-72723011D01*
X7722816Y-72782000D01*
X8025184Y-72782000D01*
X8321743Y-72723011D01*
X8601095Y-72607299D01*
X8852505Y-72439312D01*
X8918944Y-72372873D01*
X8924498Y-72391180D01*
X8983463Y-72501494D01*
X9062815Y-72598185D01*
X9159506Y-72677537D01*
X9269820Y-72736502D01*
X9389518Y-72772812D01*
X9514000Y-72785072D01*
X11314000Y-72785072D01*
X11438482Y-72772812D01*
X11558180Y-72736502D01*
X11668494Y-72677537D01*
X11765185Y-72598185D01*
X11844537Y-72501494D01*
X11903502Y-72391180D01*
X11939812Y-72271482D01*
X11952072Y-72147000D01*
X11952072Y-72007000D01*
X14155687Y-72007000D01*
X14301688Y-72225505D01*
X14515495Y-72439312D01*
X14766905Y-72607299D01*
X15046257Y-72723011D01*
X15342816Y-72782000D01*
X15645184Y-72782000D01*
X15941743Y-72723011D01*
X16221095Y-72607299D01*
X16472505Y-72439312D01*
X16538944Y-72372873D01*
X16544498Y-72391180D01*
X16603463Y-72501494D01*
X16682815Y-72598185D01*
X16779506Y-72677537D01*
X16889820Y-72736502D01*
X17009518Y-72772812D01*
X17134000Y-72785072D01*
X18934000Y-72785072D01*
X19058482Y-72772812D01*
X19178180Y-72736502D01*
X19288494Y-72677537D01*
X19385185Y-72598185D01*
X19464537Y-72501494D01*
X19523502Y-72391180D01*
X19559812Y-72271482D01*
X19572072Y-72147000D01*
X19572072Y-72007000D01*
X21902687Y-72007000D01*
X22048688Y-72225505D01*
X22262495Y-72439312D01*
X22513905Y-72607299D01*
X22793257Y-72723011D01*
X23089816Y-72782000D01*
X23392184Y-72782000D01*
X23688743Y-72723011D01*
X23968095Y-72607299D01*
X24219505Y-72439312D01*
X24285944Y-72372873D01*
X24291498Y-72391180D01*
X24350463Y-72501494D01*
X24429815Y-72598185D01*
X24526506Y-72677537D01*
X24636820Y-72736502D01*
X24756518Y-72772812D01*
X24881000Y-72785072D01*
X26681000Y-72785072D01*
X26805482Y-72772812D01*
X26925180Y-72736502D01*
X27035494Y-72677537D01*
X27132185Y-72598185D01*
X27211537Y-72501494D01*
X27270502Y-72391180D01*
X27306812Y-72271482D01*
X27319072Y-72147000D01*
X27319072Y-70837150D01*
X30832470Y-74350549D01*
X30860183Y-74384317D01*
X30893951Y-74412030D01*
X30893953Y-74412032D01*
X30994941Y-74494911D01*
X31148686Y-74577089D01*
X31315510Y-74627695D01*
X31445523Y-74640500D01*
X31445531Y-74640500D01*
X31489000Y-74644781D01*
X31532469Y-74640500D01*
X35248922Y-74640500D01*
X35432998Y-74824576D01*
X35432998Y-74923748D01*
X35274250Y-74765000D01*
X34760000Y-74761928D01*
X34635518Y-74774188D01*
X34515820Y-74810498D01*
X34405506Y-74869463D01*
X34308815Y-74948815D01*
X34229463Y-75045506D01*
X34170498Y-75155820D01*
X34134188Y-75275518D01*
X34121928Y-75400000D01*
X34125000Y-75914250D01*
X34283750Y-76073000D01*
X35433000Y-76073000D01*
X35433000Y-76053000D01*
X35687000Y-76053000D01*
X35687000Y-76073000D01*
X35707000Y-76073000D01*
X35707000Y-76327000D01*
X35687000Y-76327000D01*
X35687000Y-77476250D01*
X35845750Y-77635000D01*
X36360000Y-77638072D01*
X36484482Y-77625812D01*
X36604180Y-77589502D01*
X36714494Y-77530537D01*
X36811185Y-77451185D01*
X36890537Y-77354494D01*
X36949502Y-77244180D01*
X36978661Y-77148057D01*
X37145241Y-77314637D01*
X37380273Y-77471680D01*
X37641426Y-77579853D01*
X37918665Y-77635000D01*
X38201335Y-77635000D01*
X38478574Y-77579853D01*
X38739727Y-77471680D01*
X38974759Y-77314637D01*
X39096694Y-77192702D01*
X44906903Y-77192702D01*
X44978486Y-77436671D01*
X45233996Y-77557571D01*
X45508184Y-77626300D01*
X45790512Y-77640217D01*
X46070130Y-77598787D01*
X46336292Y-77503603D01*
X46461514Y-77436671D01*
X46533097Y-77192702D01*
X45720000Y-76379605D01*
X44906903Y-77192702D01*
X39096694Y-77192702D01*
X39174637Y-77114759D01*
X39331680Y-76879727D01*
X39439853Y-76618574D01*
X39495000Y-76341335D01*
X39495000Y-76270512D01*
X44279783Y-76270512D01*
X44321213Y-76550130D01*
X44416397Y-76816292D01*
X44483329Y-76941514D01*
X44727298Y-77013097D01*
X45540395Y-76200000D01*
X45899605Y-76200000D01*
X46712702Y-77013097D01*
X46956671Y-76941514D01*
X47077571Y-76686004D01*
X47146300Y-76411816D01*
X47160217Y-76129488D01*
X47118787Y-75849870D01*
X47023603Y-75583708D01*
X46956671Y-75458486D01*
X46712702Y-75386903D01*
X45899605Y-76200000D01*
X45540395Y-76200000D01*
X44727298Y-75386903D01*
X44483329Y-75458486D01*
X44362429Y-75713996D01*
X44293700Y-75988184D01*
X44279783Y-76270512D01*
X39495000Y-76270512D01*
X39495000Y-76058665D01*
X39439853Y-75781426D01*
X39331680Y-75520273D01*
X39174637Y-75285241D01*
X39096694Y-75207298D01*
X44906903Y-75207298D01*
X45720000Y-76020395D01*
X46533097Y-75207298D01*
X46461514Y-74963329D01*
X46206004Y-74842429D01*
X45931816Y-74773700D01*
X45649488Y-74759783D01*
X45369870Y-74801213D01*
X45103708Y-74896397D01*
X44978486Y-74963329D01*
X44906903Y-75207298D01*
X39096694Y-75207298D01*
X38974759Y-75085363D01*
X38739727Y-74928320D01*
X38478574Y-74820147D01*
X38201335Y-74765000D01*
X37918665Y-74765000D01*
X37883561Y-74771983D01*
X36272034Y-73160456D01*
X36244317Y-73126683D01*
X36109559Y-73016089D01*
X35955813Y-72933911D01*
X35788990Y-72883305D01*
X35658977Y-72870500D01*
X35658969Y-72870500D01*
X35615500Y-72866219D01*
X35572031Y-72870500D01*
X31855579Y-72870500D01*
X31628321Y-72643242D01*
X31715095Y-72607299D01*
X31966505Y-72439312D01*
X32032944Y-72372873D01*
X32038498Y-72391180D01*
X32097463Y-72501494D01*
X32176815Y-72598185D01*
X32273506Y-72677537D01*
X32383820Y-72736502D01*
X32503518Y-72772812D01*
X32628000Y-72785072D01*
X34428000Y-72785072D01*
X34552482Y-72772812D01*
X34672180Y-72736502D01*
X34782494Y-72677537D01*
X34879185Y-72598185D01*
X34958537Y-72501494D01*
X35017502Y-72391180D01*
X35053812Y-72271482D01*
X35066072Y-72147000D01*
X35066072Y-72007000D01*
X47709678Y-72007000D01*
X47747000Y-72010676D01*
X47784322Y-72007000D01*
X47784333Y-72007000D01*
X47895986Y-71996003D01*
X48039247Y-71952546D01*
X48171276Y-71881974D01*
X48287001Y-71787001D01*
X48310804Y-71757997D01*
X48655735Y-71413066D01*
X48677701Y-71466095D01*
X48845688Y-71717505D01*
X49059495Y-71931312D01*
X49310905Y-72099299D01*
X49590257Y-72215011D01*
X49886816Y-72274000D01*
X50189184Y-72274000D01*
X50485743Y-72215011D01*
X50765095Y-72099299D01*
X51016505Y-71931312D01*
X51082944Y-71864873D01*
X51088498Y-71883180D01*
X51147463Y-71993494D01*
X51226815Y-72090185D01*
X51323506Y-72169537D01*
X51433820Y-72228502D01*
X51553518Y-72264812D01*
X51678000Y-72277072D01*
X53478000Y-72277072D01*
X53602482Y-72264812D01*
X53722180Y-72228502D01*
X53832494Y-72169537D01*
X53929185Y-72090185D01*
X54008537Y-71993494D01*
X54067502Y-71883180D01*
X54103812Y-71763482D01*
X54116072Y-71639000D01*
X54116072Y-71499000D01*
X56319687Y-71499000D01*
X56465688Y-71717505D01*
X56679495Y-71931312D01*
X56930905Y-72099299D01*
X57210257Y-72215011D01*
X57506816Y-72274000D01*
X57809184Y-72274000D01*
X58105743Y-72215011D01*
X58385095Y-72099299D01*
X58636505Y-71931312D01*
X58702944Y-71864873D01*
X58708498Y-71883180D01*
X58767463Y-71993494D01*
X58846815Y-72090185D01*
X58943506Y-72169537D01*
X59053820Y-72228502D01*
X59173518Y-72264812D01*
X59298000Y-72277072D01*
X61098000Y-72277072D01*
X61222482Y-72264812D01*
X61342180Y-72228502D01*
X61452494Y-72169537D01*
X61549185Y-72090185D01*
X61628537Y-71993494D01*
X61687502Y-71883180D01*
X61723812Y-71763482D01*
X61736072Y-71639000D01*
X61736072Y-71499000D01*
X64066687Y-71499000D01*
X64212688Y-71717505D01*
X64426495Y-71931312D01*
X64677905Y-72099299D01*
X64957257Y-72215011D01*
X65253816Y-72274000D01*
X65556184Y-72274000D01*
X65852743Y-72215011D01*
X66132095Y-72099299D01*
X66383505Y-71931312D01*
X66449944Y-71864873D01*
X66455498Y-71883180D01*
X66514463Y-71993494D01*
X66593815Y-72090185D01*
X66690506Y-72169537D01*
X66800820Y-72228502D01*
X66920518Y-72264812D01*
X67045000Y-72277072D01*
X68845000Y-72277072D01*
X68969482Y-72264812D01*
X69089180Y-72228502D01*
X69199494Y-72169537D01*
X69296185Y-72090185D01*
X69375537Y-71993494D01*
X69434502Y-71883180D01*
X69470812Y-71763482D01*
X69483072Y-71639000D01*
X69483072Y-71499000D01*
X71813687Y-71499000D01*
X71959688Y-71717505D01*
X72173495Y-71931312D01*
X72424905Y-72099299D01*
X72704257Y-72215011D01*
X73000816Y-72274000D01*
X73303184Y-72274000D01*
X73599743Y-72215011D01*
X73879095Y-72099299D01*
X74130505Y-71931312D01*
X74196944Y-71864873D01*
X74202498Y-71883180D01*
X74261463Y-71993494D01*
X74340815Y-72090185D01*
X74437506Y-72169537D01*
X74547820Y-72228502D01*
X74667518Y-72264812D01*
X74792000Y-72277072D01*
X76592000Y-72277072D01*
X76716482Y-72264812D01*
X76836180Y-72228502D01*
X76946494Y-72169537D01*
X77043185Y-72090185D01*
X77122537Y-71993494D01*
X77181502Y-71883180D01*
X77217812Y-71763482D01*
X77230072Y-71639000D01*
X77230072Y-70041852D01*
X78914107Y-70248626D01*
X79039154Y-70251627D01*
X79162385Y-70230176D01*
X79279063Y-70185095D01*
X79384704Y-70118118D01*
X79475249Y-70031818D01*
X79547218Y-69929512D01*
X79597844Y-69815131D01*
X79625184Y-69693071D01*
X79844549Y-67906488D01*
X79847550Y-67781441D01*
X79826099Y-67658210D01*
X79781018Y-67541532D01*
X79714041Y-67435891D01*
X79627741Y-67345346D01*
X79525435Y-67273377D01*
X79512321Y-67267572D01*
X79710119Y-67069774D01*
X79878106Y-66818364D01*
X79993818Y-66539012D01*
X80052807Y-66242453D01*
X80052807Y-65940085D01*
X79993818Y-65643526D01*
X79878106Y-65364174D01*
X79710119Y-65112764D01*
X79496312Y-64898957D01*
X79244902Y-64730970D01*
X78965550Y-64615258D01*
X78668991Y-64556269D01*
X78366623Y-64556269D01*
X78070064Y-64615258D01*
X77790712Y-64730970D01*
X77539302Y-64898957D01*
X77325495Y-65112764D01*
X77157508Y-65364174D01*
X77041796Y-65643526D01*
X76982807Y-65940085D01*
X76982807Y-66242453D01*
X77041796Y-66539012D01*
X77157508Y-66818364D01*
X77273001Y-66991212D01*
X77254133Y-66994496D01*
X77137455Y-67039577D01*
X77031814Y-67106554D01*
X76941269Y-67192854D01*
X76869300Y-67295160D01*
X76818674Y-67409541D01*
X76791334Y-67531601D01*
X76586366Y-69200928D01*
X74792000Y-69200928D01*
X74667518Y-69213188D01*
X74547820Y-69249498D01*
X74524216Y-69262115D01*
X74264801Y-69002700D01*
X74241001Y-68973699D01*
X74125276Y-68878726D01*
X73993247Y-68808154D01*
X73849986Y-68764697D01*
X73738333Y-68753700D01*
X73738322Y-68753700D01*
X73701000Y-68750024D01*
X73663678Y-68753700D01*
X65508005Y-68753700D01*
X63984509Y-67230185D01*
X64108676Y-67178753D01*
X64319140Y-67038125D01*
X64498125Y-66859140D01*
X64638753Y-66648676D01*
X64735619Y-66414821D01*
X64785000Y-66166561D01*
X64785000Y-66055000D01*
X64896561Y-66055000D01*
X65144821Y-66005619D01*
X65378676Y-65908753D01*
X65589140Y-65768125D01*
X65768125Y-65589140D01*
X65908753Y-65378676D01*
X66005619Y-65144821D01*
X66055000Y-64896561D01*
X66055000Y-64643439D01*
X66041124Y-64573678D01*
X66281003Y-64333799D01*
X66310001Y-64310001D01*
X66404974Y-64194276D01*
X66475546Y-64062247D01*
X66519003Y-63918986D01*
X66530000Y-63807333D01*
X66533677Y-63770000D01*
X66530000Y-63732667D01*
X66530000Y-59374320D01*
X66574494Y-59350537D01*
X66671185Y-59271185D01*
X66746018Y-59180000D01*
X70155957Y-59180000D01*
X70259363Y-59334759D01*
X70459241Y-59534637D01*
X70694273Y-59691680D01*
X70955426Y-59799853D01*
X71232665Y-59855000D01*
X71515335Y-59855000D01*
X71792574Y-59799853D01*
X72053727Y-59691680D01*
X72288759Y-59534637D01*
X72488637Y-59334759D01*
X72645680Y-59099727D01*
X72753853Y-58838574D01*
X72809000Y-58561335D01*
X72809000Y-58278665D01*
X72753853Y-58001426D01*
X72651767Y-57754968D01*
X81447800Y-66551002D01*
X81471599Y-66580001D01*
X81500597Y-66603799D01*
X81587323Y-66674974D01*
X81713357Y-66742341D01*
X81719353Y-66745546D01*
X81862614Y-66789003D01*
X81974267Y-66800000D01*
X81974276Y-66800000D01*
X82011599Y-66803676D01*
X82048922Y-66800000D01*
X82541822Y-66800000D01*
X82666525Y-66986632D01*
X82873368Y-67193475D01*
X83047760Y-67310000D01*
X82873368Y-67426525D01*
X82666525Y-67633368D01*
X82504010Y-67876589D01*
X82392068Y-68146842D01*
X82335000Y-68433740D01*
X82335000Y-68726260D01*
X82392068Y-69013158D01*
X82504010Y-69283411D01*
X82666525Y-69526632D01*
X82873368Y-69733475D01*
X83047760Y-69850000D01*
X82873368Y-69966525D01*
X82666525Y-70173368D01*
X82504010Y-70416589D01*
X82392068Y-70686842D01*
X82335000Y-70973740D01*
X82335000Y-71266260D01*
X82392068Y-71553158D01*
X82504010Y-71823411D01*
X82666525Y-72066632D01*
X82873368Y-72273475D01*
X83047760Y-72390000D01*
X82873368Y-72506525D01*
X82666525Y-72713368D01*
X82504010Y-72956589D01*
X82392068Y-73226842D01*
X82335000Y-73513740D01*
X82335000Y-73806260D01*
X82392068Y-74093158D01*
X82504010Y-74363411D01*
X82666525Y-74606632D01*
X82873368Y-74813475D01*
X83047760Y-74930000D01*
X82873368Y-75046525D01*
X82666525Y-75253368D01*
X82625344Y-75315000D01*
X51854521Y-75315000D01*
X51834637Y-75285241D01*
X51634759Y-75085363D01*
X51399727Y-74928320D01*
X51138574Y-74820147D01*
X50861335Y-74765000D01*
X50578665Y-74765000D01*
X50301426Y-74820147D01*
X50040273Y-74928320D01*
X49805241Y-75085363D01*
X49605363Y-75285241D01*
X49448320Y-75520273D01*
X49340147Y-75781426D01*
X49285000Y-76058665D01*
X49285000Y-76341335D01*
X49340147Y-76618574D01*
X49448320Y-76879727D01*
X49605363Y-77114759D01*
X49805241Y-77314637D01*
X50040273Y-77471680D01*
X50301426Y-77579853D01*
X50578665Y-77635000D01*
X50861335Y-77635000D01*
X51138574Y-77579853D01*
X51399727Y-77471680D01*
X51634759Y-77314637D01*
X51834637Y-77114759D01*
X51854521Y-77085000D01*
X82625344Y-77085000D01*
X82666525Y-77146632D01*
X82873368Y-77353475D01*
X83055534Y-77475195D01*
X82938645Y-77544822D01*
X82722412Y-77739731D01*
X82548359Y-77973080D01*
X82423175Y-78235901D01*
X82378524Y-78383110D01*
X82499845Y-78613000D01*
X83693000Y-78613000D01*
X83693000Y-78593000D01*
X83947000Y-78593000D01*
X83947000Y-78613000D01*
X85140155Y-78613000D01*
X85261476Y-78383110D01*
X85216825Y-78235901D01*
X85091641Y-77973080D01*
X84917588Y-77739731D01*
X84701355Y-77544822D01*
X84584466Y-77475195D01*
X84766632Y-77353475D01*
X84973475Y-77146632D01*
X85135990Y-76903411D01*
X85247932Y-76633158D01*
X85305000Y-76346260D01*
X85305000Y-76053740D01*
X85247932Y-75766842D01*
X85135990Y-75496589D01*
X84973475Y-75253368D01*
X84766632Y-75046525D01*
X84592240Y-74930000D01*
X84766632Y-74813475D01*
X84973475Y-74606632D01*
X85135990Y-74363411D01*
X85247932Y-74093158D01*
X85305000Y-73806260D01*
X85305000Y-73513740D01*
X85247932Y-73226842D01*
X85135990Y-72956589D01*
X84973475Y-72713368D01*
X84766632Y-72506525D01*
X84592240Y-72390000D01*
X84766632Y-72273475D01*
X84973475Y-72066632D01*
X85135990Y-71823411D01*
X85247932Y-71553158D01*
X85305000Y-71266260D01*
X85305000Y-70973740D01*
X85247932Y-70686842D01*
X85135990Y-70416589D01*
X84997491Y-70209310D01*
X90054803Y-65151999D01*
X90083801Y-65128201D01*
X90137929Y-65062246D01*
X90178774Y-65012477D01*
X90249346Y-64880447D01*
X90268898Y-64815990D01*
X90292803Y-64737186D01*
X90303800Y-64625533D01*
X90303800Y-64625523D01*
X90307476Y-64588200D01*
X90303800Y-64550877D01*
X90303800Y-45064222D01*
X90307476Y-45026899D01*
X90303800Y-44989576D01*
X90303800Y-44989567D01*
X90292803Y-44877914D01*
X90249346Y-44734653D01*
X90178774Y-44602624D01*
X90144437Y-44560784D01*
X90107599Y-44515896D01*
X90107595Y-44515892D01*
X90083801Y-44486899D01*
X90054809Y-44463106D01*
X85720704Y-40129003D01*
X85696901Y-40099999D01*
X85581176Y-40005026D01*
X85449147Y-39934454D01*
X85305886Y-39890997D01*
X85194233Y-39880000D01*
X85194222Y-39880000D01*
X85156900Y-39876324D01*
X85119578Y-39880000D01*
X80278072Y-39880000D01*
X80278072Y-39740000D01*
X80265812Y-39615518D01*
X80229502Y-39495820D01*
X80170537Y-39385506D01*
X80091185Y-39288815D01*
X79994494Y-39209463D01*
X79884180Y-39150498D01*
X79764482Y-39114188D01*
X79640000Y-39101928D01*
X77840000Y-39101928D01*
X77715518Y-39114188D01*
X77595820Y-39150498D01*
X77572216Y-39163115D01*
X77312803Y-38903702D01*
X77289001Y-38874699D01*
X77173276Y-38779726D01*
X77070144Y-38724600D01*
X80141915Y-38724600D01*
X80127969Y-38838184D01*
X80124968Y-38963231D01*
X80146419Y-39086462D01*
X80191500Y-39203140D01*
X80258477Y-39308781D01*
X80344777Y-39399326D01*
X80447083Y-39471295D01*
X80561464Y-39521921D01*
X80683524Y-39549261D01*
X82470107Y-39768626D01*
X82595154Y-39771627D01*
X82718385Y-39750176D01*
X82835063Y-39705095D01*
X82940704Y-39638118D01*
X83031249Y-39551818D01*
X83103218Y-39449512D01*
X83153844Y-39335131D01*
X83181184Y-39213071D01*
X83400549Y-37426488D01*
X83403550Y-37301441D01*
X83382099Y-37178210D01*
X83337018Y-37061532D01*
X83270041Y-36955891D01*
X83183741Y-36865346D01*
X83081435Y-36793377D01*
X83068321Y-36787572D01*
X83266119Y-36589774D01*
X83434106Y-36338364D01*
X83549818Y-36059012D01*
X83608807Y-35762453D01*
X83608807Y-35460085D01*
X83549818Y-35163526D01*
X83434106Y-34884174D01*
X83300700Y-34684518D01*
X83300700Y-32065431D01*
X83414229Y-32079371D01*
X83539276Y-32082372D01*
X83662507Y-32060921D01*
X83779185Y-32015840D01*
X83884826Y-31948863D01*
X83975371Y-31862563D01*
X84047340Y-31760257D01*
X84097966Y-31645876D01*
X84125306Y-31523816D01*
X84344671Y-29737233D01*
X84347672Y-29612186D01*
X84326221Y-29488955D01*
X84281140Y-29372277D01*
X84214163Y-29266636D01*
X84127863Y-29176091D01*
X84025557Y-29104122D01*
X84012443Y-29098317D01*
X84210241Y-28900519D01*
X84378228Y-28649109D01*
X84493940Y-28369757D01*
X84552929Y-28073198D01*
X84552929Y-27770830D01*
X84493940Y-27474271D01*
X84378228Y-27194919D01*
X84210241Y-26943509D01*
X83996434Y-26729702D01*
X83745024Y-26561715D01*
X83465672Y-26446003D01*
X83169113Y-26387014D01*
X82866745Y-26387014D01*
X82570186Y-26446003D01*
X82290834Y-26561715D01*
X82039424Y-26729702D01*
X81825617Y-26943509D01*
X81657630Y-27194919D01*
X81541918Y-27474271D01*
X81482929Y-27770830D01*
X81482929Y-28073198D01*
X81541918Y-28369757D01*
X81657630Y-28649109D01*
X81773123Y-28821957D01*
X81754255Y-28825241D01*
X81637577Y-28870322D01*
X81531936Y-28937299D01*
X81441391Y-29023599D01*
X81369422Y-29125905D01*
X81318796Y-29240286D01*
X81291456Y-29362346D01*
X81072091Y-31148929D01*
X81069090Y-31273976D01*
X81090541Y-31397207D01*
X81135622Y-31513885D01*
X81202599Y-31619526D01*
X81288899Y-31710071D01*
X81391205Y-31782040D01*
X81505586Y-31832666D01*
X81627646Y-31860006D01*
X81780701Y-31878799D01*
X81780700Y-34104499D01*
X81626064Y-34135258D01*
X81346712Y-34250970D01*
X81095302Y-34418957D01*
X80881495Y-34632764D01*
X80713508Y-34884174D01*
X80597796Y-35163526D01*
X80538807Y-35460085D01*
X80538807Y-35762453D01*
X80597796Y-36059012D01*
X80713508Y-36338364D01*
X80829001Y-36511212D01*
X80810133Y-36514496D01*
X80693455Y-36559577D01*
X80587814Y-36626554D01*
X80497269Y-36712854D01*
X80425300Y-36815160D01*
X80374674Y-36929541D01*
X80347334Y-37051601D01*
X80328548Y-37204600D01*
X74429402Y-37204600D01*
X68869104Y-31644303D01*
X68845301Y-31615299D01*
X68729576Y-31520326D01*
X68668072Y-31487451D01*
X68668072Y-31318095D01*
X68678815Y-31331185D01*
X68775506Y-31410537D01*
X68885820Y-31469502D01*
X69005518Y-31505812D01*
X69130000Y-31518072D01*
X70030000Y-31518072D01*
X70154482Y-31505812D01*
X70274180Y-31469502D01*
X70384494Y-31410537D01*
X70481185Y-31331185D01*
X70556018Y-31240000D01*
X72441957Y-31240000D01*
X72545363Y-31394759D01*
X72745241Y-31594637D01*
X72980273Y-31751680D01*
X73241426Y-31859853D01*
X73518665Y-31915000D01*
X73801335Y-31915000D01*
X74078574Y-31859853D01*
X74339727Y-31751680D01*
X74574759Y-31594637D01*
X74774637Y-31394759D01*
X74931680Y-31159727D01*
X75039853Y-30898574D01*
X75095000Y-30621335D01*
X75095000Y-30338665D01*
X75039853Y-30061426D01*
X74931680Y-29800273D01*
X74774637Y-29565241D01*
X74574759Y-29365363D01*
X74339727Y-29208320D01*
X74078574Y-29100147D01*
X73801335Y-29045000D01*
X73518665Y-29045000D01*
X73241426Y-29100147D01*
X72980273Y-29208320D01*
X72745241Y-29365363D01*
X72545363Y-29565241D01*
X72441957Y-29720000D01*
X70556018Y-29720000D01*
X70481185Y-29628815D01*
X70384494Y-29549463D01*
X70274180Y-29490498D01*
X70154482Y-29454188D01*
X70030000Y-29441928D01*
X69130000Y-29441928D01*
X69005518Y-29454188D01*
X68885820Y-29490498D01*
X68775506Y-29549463D01*
X68678815Y-29628815D01*
X68668072Y-29641905D01*
X68668072Y-29130000D01*
X68655812Y-29005518D01*
X68619502Y-28885820D01*
X68560537Y-28775506D01*
X68481185Y-28678815D01*
X68384494Y-28599463D01*
X68274180Y-28540498D01*
X68154482Y-28504188D01*
X68030000Y-28491928D01*
X67130000Y-28491928D01*
X67005518Y-28504188D01*
X66885820Y-28540498D01*
X66775506Y-28599463D01*
X66678815Y-28678815D01*
X66599463Y-28775506D01*
X66540498Y-28885820D01*
X66504188Y-29005518D01*
X66491928Y-29130000D01*
X66491928Y-29930000D01*
X66504188Y-30054482D01*
X66540498Y-30174180D01*
X66599463Y-30284494D01*
X66615002Y-30303428D01*
X66559186Y-30286497D01*
X66447533Y-30275500D01*
X66447522Y-30275500D01*
X66410200Y-30271824D01*
X66372878Y-30275500D01*
X62382436Y-30275500D01*
X62339853Y-30061426D01*
X62231680Y-29800273D01*
X62074637Y-29565241D01*
X61874759Y-29365363D01*
X61639727Y-29208320D01*
X61378574Y-29100147D01*
X61101335Y-29045000D01*
X60818665Y-29045000D01*
X60541426Y-29100147D01*
X60280273Y-29208320D01*
X60045241Y-29365363D01*
X59845363Y-29565241D01*
X59688320Y-29800273D01*
X59580147Y-30061426D01*
X59525000Y-30338665D01*
X59525000Y-30621335D01*
X59566725Y-30831100D01*
X53667986Y-30831100D01*
X53864671Y-29229233D01*
X53867672Y-29104186D01*
X53846221Y-28980955D01*
X53801140Y-28864277D01*
X53734163Y-28758636D01*
X53647863Y-28668091D01*
X53545557Y-28596122D01*
X53532443Y-28590317D01*
X53730241Y-28392519D01*
X53898228Y-28141109D01*
X54013940Y-27861757D01*
X54072929Y-27565198D01*
X54072929Y-27262830D01*
X54013940Y-26966271D01*
X53898228Y-26686919D01*
X53730241Y-26435509D01*
X53516434Y-26221702D01*
X53265024Y-26053715D01*
X52985672Y-25938003D01*
X52689113Y-25879014D01*
X52386745Y-25879014D01*
X52090186Y-25938003D01*
X51810834Y-26053715D01*
X51559424Y-26221702D01*
X51345617Y-26435509D01*
X51177630Y-26686919D01*
X51061918Y-26966271D01*
X51002929Y-27262830D01*
X51002929Y-27565198D01*
X51061918Y-27861757D01*
X51177630Y-28141109D01*
X51293123Y-28313957D01*
X51274255Y-28317241D01*
X51157577Y-28362322D01*
X51051936Y-28429299D01*
X50961391Y-28515599D01*
X50889422Y-28617905D01*
X50838796Y-28732286D01*
X50811456Y-28854346D01*
X50592091Y-30640929D01*
X50589090Y-30765976D01*
X50600426Y-30831100D01*
X46686822Y-30831100D01*
X46649499Y-30827424D01*
X46612176Y-30831100D01*
X46612167Y-30831100D01*
X46500514Y-30842097D01*
X46357253Y-30885554D01*
X46225224Y-30956126D01*
X46109499Y-31051099D01*
X46085701Y-31080097D01*
X41403812Y-35761987D01*
X41385818Y-35671526D01*
X41270106Y-35392174D01*
X41102119Y-35140764D01*
X40888312Y-34926957D01*
X40636902Y-34758970D01*
X40357550Y-34643258D01*
X40060991Y-34584269D01*
X39758623Y-34584269D01*
X39462064Y-34643258D01*
X39182712Y-34758970D01*
X38931302Y-34926957D01*
X38717495Y-35140764D01*
X38549508Y-35392174D01*
X38433796Y-35671526D01*
X38418984Y-35745993D01*
X38354399Y-35667297D01*
X38330601Y-35638299D01*
X38301603Y-35614501D01*
X34469078Y-31781976D01*
X38905090Y-31781976D01*
X38926541Y-31905207D01*
X38971622Y-32021885D01*
X39038599Y-32127526D01*
X39124899Y-32218071D01*
X39227205Y-32290040D01*
X39341586Y-32340666D01*
X39463646Y-32368006D01*
X41250229Y-32587371D01*
X41375276Y-32590372D01*
X41498507Y-32568921D01*
X41615185Y-32523840D01*
X41720826Y-32456863D01*
X41811371Y-32370563D01*
X41883340Y-32268257D01*
X41933966Y-32153876D01*
X41961306Y-32031816D01*
X42180671Y-30245233D01*
X42183672Y-30120186D01*
X42162221Y-29996955D01*
X42117140Y-29880277D01*
X42050163Y-29774636D01*
X41963863Y-29684091D01*
X41861557Y-29612122D01*
X41848443Y-29606317D01*
X42046241Y-29408519D01*
X42214228Y-29157109D01*
X42329940Y-28877757D01*
X42388929Y-28581198D01*
X42388929Y-28278830D01*
X42329940Y-27982271D01*
X42214228Y-27702919D01*
X42080800Y-27503230D01*
X42080800Y-24884174D01*
X42194351Y-24898116D01*
X42319398Y-24901117D01*
X42442629Y-24879666D01*
X42559307Y-24834585D01*
X42664948Y-24767608D01*
X42755493Y-24681308D01*
X42827462Y-24579002D01*
X42878088Y-24464621D01*
X42905428Y-24342561D01*
X43060853Y-23076721D01*
X51533212Y-23076721D01*
X51554663Y-23199952D01*
X51599744Y-23316630D01*
X51666721Y-23422271D01*
X51753021Y-23512816D01*
X51855327Y-23584785D01*
X51969708Y-23635411D01*
X52091768Y-23662751D01*
X53878351Y-23882116D01*
X54003398Y-23885117D01*
X54126629Y-23863666D01*
X54243307Y-23818585D01*
X54348948Y-23751608D01*
X54439493Y-23665308D01*
X54511462Y-23563002D01*
X54562088Y-23448621D01*
X54589428Y-23326561D01*
X54808793Y-21539978D01*
X54811794Y-21414931D01*
X54790343Y-21291700D01*
X54745262Y-21175022D01*
X54678285Y-21069381D01*
X54591985Y-20978836D01*
X54489679Y-20906867D01*
X54476565Y-20901062D01*
X54674363Y-20703264D01*
X54842350Y-20451854D01*
X54958062Y-20172502D01*
X55017051Y-19875943D01*
X55017051Y-19573575D01*
X54958062Y-19277016D01*
X54842350Y-18997664D01*
X54674363Y-18746254D01*
X54460556Y-18532447D01*
X54209146Y-18364460D01*
X53929794Y-18248748D01*
X53633235Y-18189759D01*
X53330867Y-18189759D01*
X53034308Y-18248748D01*
X52754956Y-18364460D01*
X52503546Y-18532447D01*
X52289739Y-18746254D01*
X52121752Y-18997664D01*
X52006040Y-19277016D01*
X51947051Y-19573575D01*
X51947051Y-19875943D01*
X52006040Y-20172502D01*
X52121752Y-20451854D01*
X52237245Y-20624702D01*
X52218377Y-20627986D01*
X52101699Y-20673067D01*
X51996058Y-20740044D01*
X51905513Y-20826344D01*
X51833544Y-20928650D01*
X51782918Y-21043031D01*
X51755578Y-21165091D01*
X51536213Y-22951674D01*
X51533212Y-23076721D01*
X43060853Y-23076721D01*
X43124793Y-22555978D01*
X43127794Y-22430931D01*
X43106343Y-22307700D01*
X43061262Y-22191022D01*
X42994285Y-22085381D01*
X42907985Y-21994836D01*
X42805679Y-21922867D01*
X42792565Y-21917062D01*
X42990363Y-21719264D01*
X43158350Y-21467854D01*
X43274062Y-21188502D01*
X43333051Y-20891943D01*
X43333051Y-20589575D01*
X43274062Y-20293016D01*
X43158350Y-20013664D01*
X42990363Y-19762254D01*
X42776556Y-19548447D01*
X42525146Y-19380460D01*
X42245794Y-19264748D01*
X41949235Y-19205759D01*
X41646867Y-19205759D01*
X41350308Y-19264748D01*
X41070956Y-19380460D01*
X40819546Y-19548447D01*
X40605739Y-19762254D01*
X40437752Y-20013664D01*
X40322040Y-20293016D01*
X40263051Y-20589575D01*
X40263051Y-20891943D01*
X40322040Y-21188502D01*
X40437752Y-21467854D01*
X40553245Y-21640702D01*
X40534377Y-21643986D01*
X40417699Y-21689067D01*
X40312058Y-21756044D01*
X40221513Y-21842344D01*
X40149544Y-21944650D01*
X40098918Y-22059031D01*
X40071578Y-22181091D01*
X39852213Y-23967674D01*
X39849212Y-24092721D01*
X39870663Y-24215952D01*
X39915744Y-24332630D01*
X39982721Y-24438271D01*
X40069021Y-24528816D01*
X40171327Y-24600785D01*
X40285708Y-24651411D01*
X40407768Y-24678751D01*
X40560801Y-24697541D01*
X40560800Y-26923248D01*
X40406186Y-26954003D01*
X40126834Y-27069715D01*
X39875424Y-27237702D01*
X39661617Y-27451509D01*
X39493630Y-27702919D01*
X39377918Y-27982271D01*
X39318929Y-28278830D01*
X39318929Y-28581198D01*
X39377918Y-28877757D01*
X39493630Y-29157109D01*
X39609123Y-29329957D01*
X39590255Y-29333241D01*
X39473577Y-29378322D01*
X39367936Y-29445299D01*
X39277391Y-29531599D01*
X39205422Y-29633905D01*
X39154796Y-29748286D01*
X39127456Y-29870346D01*
X38908091Y-31656929D01*
X38905090Y-31781976D01*
X34469078Y-31781976D01*
X31494404Y-28807303D01*
X31470601Y-28778299D01*
X31354876Y-28683326D01*
X31222847Y-28612754D01*
X31079586Y-28569297D01*
X30967933Y-28558300D01*
X30967922Y-28558300D01*
X30930600Y-28554624D01*
X30893278Y-28558300D01*
X26273725Y-28558300D01*
X26236400Y-28554624D01*
X26199075Y-28558300D01*
X26199067Y-28558300D01*
X26087414Y-28569297D01*
X25944153Y-28612754D01*
X25812124Y-28683326D01*
X25696399Y-28778299D01*
X25672601Y-28807297D01*
X25475479Y-29004419D01*
X25439502Y-28885820D01*
X25380537Y-28775506D01*
X25301185Y-28678815D01*
X25204494Y-28599463D01*
X25094180Y-28540498D01*
X24974482Y-28504188D01*
X24850000Y-28491928D01*
X23950000Y-28491928D01*
X23825518Y-28504188D01*
X23705820Y-28540498D01*
X23595506Y-28599463D01*
X23498815Y-28678815D01*
X23419463Y-28775506D01*
X23360498Y-28885820D01*
X23324188Y-29005518D01*
X23311928Y-29130000D01*
X23311928Y-29930000D01*
X23324188Y-30054482D01*
X23360498Y-30174180D01*
X23419463Y-30284494D01*
X23438179Y-30307300D01*
X19208761Y-30307300D01*
X19159853Y-30061426D01*
X19051680Y-29800273D01*
X18894637Y-29565241D01*
X18694759Y-29365363D01*
X18459727Y-29208320D01*
X18198574Y-29100147D01*
X17921335Y-29045000D01*
X17638665Y-29045000D01*
X17361426Y-29100147D01*
X17100273Y-29208320D01*
X16975400Y-29291757D01*
X16975400Y-23149401D01*
X20634802Y-19490000D01*
X25963982Y-19490000D01*
X26038815Y-19581185D01*
X26135506Y-19660537D01*
X26245820Y-19719502D01*
X26365518Y-19755812D01*
X26490000Y-19768072D01*
X27390000Y-19768072D01*
X27514482Y-19755812D01*
X27634180Y-19719502D01*
X27744494Y-19660537D01*
X27841185Y-19581185D01*
X27920537Y-19484494D01*
X27979502Y-19374180D01*
X28015812Y-19254482D01*
X28028072Y-19130000D01*
X28028072Y-18618095D01*
X28038815Y-18631185D01*
X28135506Y-18710537D01*
X28180001Y-18734320D01*
X28180000Y-21291198D01*
X27882322Y-21588876D01*
X27812561Y-21575000D01*
X27559439Y-21575000D01*
X27311179Y-21624381D01*
X27077324Y-21721247D01*
X26866860Y-21861875D01*
X26687875Y-22040860D01*
X26547247Y-22251324D01*
X26450381Y-22485179D01*
X26434072Y-22567172D01*
X26434072Y-22210000D01*
X26421812Y-22085518D01*
X26385502Y-21965820D01*
X26326537Y-21855506D01*
X26247185Y-21758815D01*
X26150494Y-21679463D01*
X26040180Y-21620498D01*
X25920482Y-21584188D01*
X25796000Y-21571928D01*
X24496000Y-21571928D01*
X24371518Y-21584188D01*
X24251820Y-21620498D01*
X24141506Y-21679463D01*
X24044815Y-21758815D01*
X23965463Y-21855506D01*
X23906498Y-21965820D01*
X23870188Y-22085518D01*
X23857928Y-22210000D01*
X23857928Y-23510000D01*
X23870188Y-23634482D01*
X23906498Y-23754180D01*
X23965463Y-23864494D01*
X24044815Y-23961185D01*
X24141506Y-24040537D01*
X24251820Y-24099502D01*
X24371518Y-24135812D01*
X24496000Y-24148072D01*
X25131000Y-24148072D01*
X25131000Y-24256561D01*
X25180381Y-24504821D01*
X25277247Y-24738676D01*
X25417875Y-24949140D01*
X25596860Y-25128125D01*
X25807324Y-25268753D01*
X26041179Y-25365619D01*
X26289439Y-25415000D01*
X26542561Y-25415000D01*
X26790821Y-25365619D01*
X27024676Y-25268753D01*
X27235140Y-25128125D01*
X27414125Y-24949140D01*
X27554753Y-24738676D01*
X27651619Y-24504821D01*
X27701000Y-24256561D01*
X27701000Y-24145000D01*
X27812561Y-24145000D01*
X28060821Y-24095619D01*
X28294676Y-23998753D01*
X28505140Y-23858125D01*
X28684125Y-23679140D01*
X28824753Y-23468676D01*
X28921619Y-23234821D01*
X28971000Y-22986561D01*
X28971000Y-22733439D01*
X28957124Y-22663678D01*
X29451004Y-22169798D01*
X29480001Y-22146001D01*
X29574974Y-22030276D01*
X29645546Y-21898247D01*
X29689003Y-21754986D01*
X29700000Y-21643333D01*
X29700000Y-21643323D01*
X29703676Y-21606000D01*
X29700000Y-21568677D01*
X29700000Y-18734320D01*
X29744494Y-18710537D01*
X29841185Y-18631185D01*
X29916018Y-18540000D01*
X31801957Y-18540000D01*
X31905363Y-18694759D01*
X32105241Y-18894637D01*
X32340273Y-19051680D01*
X32601426Y-19159853D01*
X32878665Y-19215000D01*
X33161335Y-19215000D01*
X33438574Y-19159853D01*
X33699727Y-19051680D01*
X33934759Y-18894637D01*
X34134637Y-18694759D01*
X34291680Y-18459727D01*
X34399853Y-18198574D01*
X34455000Y-17921335D01*
X34455000Y-17638665D01*
X34399853Y-17361426D01*
X34291680Y-17100273D01*
X34134637Y-16865241D01*
X33934759Y-16665363D01*
X33731454Y-16529519D01*
X40777856Y-16529519D01*
X40799307Y-16652750D01*
X40844388Y-16769428D01*
X40911365Y-16875069D01*
X40997665Y-16965614D01*
X41099971Y-17037583D01*
X41214352Y-17088209D01*
X41336412Y-17115549D01*
X43122995Y-17334914D01*
X43248042Y-17337915D01*
X43371273Y-17316464D01*
X43487951Y-17271383D01*
X43593592Y-17204406D01*
X43684137Y-17118106D01*
X43756106Y-17015800D01*
X43806732Y-16901419D01*
X43834072Y-16779359D01*
X44053437Y-14992776D01*
X44056438Y-14867729D01*
X44034987Y-14744498D01*
X43989906Y-14627820D01*
X43922929Y-14522179D01*
X43836629Y-14431634D01*
X43734323Y-14359665D01*
X43721209Y-14353860D01*
X43919007Y-14156062D01*
X44086994Y-13904652D01*
X44202706Y-13625300D01*
X44261695Y-13328741D01*
X44261695Y-13026373D01*
X44202706Y-12729814D01*
X44086994Y-12450462D01*
X43919007Y-12199052D01*
X43705200Y-11985245D01*
X43453790Y-11817258D01*
X43174438Y-11701546D01*
X42877879Y-11642557D01*
X42575511Y-11642557D01*
X42278952Y-11701546D01*
X41999600Y-11817258D01*
X41748190Y-11985245D01*
X41534383Y-12199052D01*
X41366396Y-12450462D01*
X41250684Y-12729814D01*
X41191695Y-13026373D01*
X41191695Y-13328741D01*
X41250684Y-13625300D01*
X41366396Y-13904652D01*
X41481889Y-14077500D01*
X41463021Y-14080784D01*
X41346343Y-14125865D01*
X41240702Y-14192842D01*
X41150157Y-14279142D01*
X41078188Y-14381448D01*
X41027562Y-14495829D01*
X41000222Y-14617889D01*
X40780857Y-16404472D01*
X40777856Y-16529519D01*
X33731454Y-16529519D01*
X33699727Y-16508320D01*
X33438574Y-16400147D01*
X33161335Y-16345000D01*
X32878665Y-16345000D01*
X32601426Y-16400147D01*
X32340273Y-16508320D01*
X32105241Y-16665363D01*
X31905363Y-16865241D01*
X31801957Y-17020000D01*
X29916018Y-17020000D01*
X29841185Y-16928815D01*
X29744494Y-16849463D01*
X29634180Y-16790498D01*
X29514482Y-16754188D01*
X29390000Y-16741928D01*
X28490000Y-16741928D01*
X28365518Y-16754188D01*
X28245820Y-16790498D01*
X28135506Y-16849463D01*
X28038815Y-16928815D01*
X28028072Y-16941905D01*
X28028072Y-16430000D01*
X28015812Y-16305518D01*
X27979502Y-16185820D01*
X27920537Y-16075506D01*
X27841185Y-15978815D01*
X27744494Y-15899463D01*
X27634180Y-15840498D01*
X27514482Y-15804188D01*
X27390000Y-15791928D01*
X26490000Y-15791928D01*
X26365518Y-15804188D01*
X26245820Y-15840498D01*
X26135506Y-15899463D01*
X26038815Y-15978815D01*
X25959463Y-16075506D01*
X25900498Y-16185820D01*
X25864188Y-16305518D01*
X25851928Y-16430000D01*
X25851928Y-17230000D01*
X25864188Y-17354482D01*
X25900498Y-17474180D01*
X25959463Y-17584494D01*
X26038815Y-17681185D01*
X26135506Y-17760537D01*
X26171918Y-17780000D01*
X26135506Y-17799463D01*
X26038815Y-17878815D01*
X25963982Y-17970000D01*
X21745320Y-17970000D01*
X21755000Y-17921335D01*
X21755000Y-17638665D01*
X21699853Y-17361426D01*
X21591680Y-17100273D01*
X21434637Y-16865241D01*
X21234759Y-16665363D01*
X21042741Y-16537061D01*
X25307502Y-12272300D01*
X38611678Y-12272300D01*
X38649000Y-12275976D01*
X38686322Y-12272300D01*
X38686333Y-12272300D01*
X38797986Y-12261303D01*
X38941247Y-12217846D01*
X39073276Y-12147274D01*
X39189001Y-12052301D01*
X39212803Y-12023298D01*
X39472216Y-11763885D01*
X39495820Y-11776502D01*
X39615518Y-11812812D01*
X39740000Y-11825072D01*
X41540000Y-11825072D01*
X41664482Y-11812812D01*
X41784180Y-11776502D01*
X41894494Y-11717537D01*
X41991185Y-11638185D01*
X42070537Y-11541494D01*
X42129502Y-11431180D01*
X42165812Y-11311482D01*
X42178072Y-11187000D01*
X42178072Y-11047000D01*
X47124299Y-11047000D01*
X54368300Y-18291002D01*
G36*
X52526903Y2262702D02*
G01*
X53340000Y1449605D01*
X54153097Y2262702D01*
X54108998Y2413000D01*
X65167689Y2413000D01*
X65125241Y2384637D01*
X64925363Y2184759D01*
X64768320Y1949727D01*
X64660147Y1688574D01*
X64605000Y1411335D01*
X64605000Y1128665D01*
X64660147Y851426D01*
X64768320Y590273D01*
X64925363Y355241D01*
X65125241Y155363D01*
X65360273Y-1680D01*
X65621426Y-109853D01*
X65898665Y-165000D01*
X66181335Y-165000D01*
X66458574Y-109853D01*
X66719727Y-1680D01*
X66954759Y155363D01*
X67154637Y355241D01*
X67311680Y590273D01*
X67419853Y851426D01*
X67475000Y1128665D01*
X67475000Y1411335D01*
X67419853Y1688574D01*
X67311680Y1949727D01*
X67154637Y2184759D01*
X66954759Y2384637D01*
X66912311Y2413000D01*
X83693000Y2413000D01*
X83693000Y-2970400D01*
X76142597Y-2970400D01*
X76165619Y-2914821D01*
X76215000Y-2666561D01*
X76215000Y-2413439D01*
X76165619Y-2165179D01*
X76068753Y-1931324D01*
X75928125Y-1720860D01*
X75749140Y-1541875D01*
X75538676Y-1401247D01*
X75304821Y-1304381D01*
X75057002Y-1255088D01*
X75057002Y-1126252D01*
X75215750Y-1285000D01*
X75580000Y-1288072D01*
X75704482Y-1275812D01*
X75824180Y-1239502D01*
X75934494Y-1180537D01*
X76031185Y-1101185D01*
X76110537Y-1004494D01*
X76169502Y-894180D01*
X76205812Y-774482D01*
X76218072Y-650000D01*
X76215000Y-285750D01*
X76056250Y-127000D01*
X75057000Y-127000D01*
X75057000Y-147000D01*
X74803000Y-147000D01*
X74803000Y-127000D01*
X74783000Y-127000D01*
X74783000Y127000D01*
X74803000Y127000D01*
X74803000Y1126250D01*
X75057000Y1126250D01*
X75057000Y127000D01*
X76056250Y127000D01*
X76215000Y285750D01*
X76218072Y650000D01*
X76205812Y774482D01*
X76169502Y894180D01*
X76110537Y1004494D01*
X76031185Y1101185D01*
X75934494Y1180537D01*
X75824180Y1239502D01*
X75704482Y1275812D01*
X75580000Y1288072D01*
X75215750Y1285000D01*
X75057000Y1126250D01*
X74803000Y1126250D01*
X74644250Y1285000D01*
X74280000Y1288072D01*
X74155518Y1275812D01*
X74035820Y1239502D01*
X73925506Y1180537D01*
X73828815Y1101185D01*
X73749463Y1004494D01*
X73690498Y894180D01*
X73654188Y774482D01*
X73641928Y650000D01*
X73645000Y285750D01*
X73803748Y127002D01*
X73645000Y127002D01*
X73645000Y15000D01*
X73533439Y15000D01*
X73285179Y-34381D01*
X73051324Y-131247D01*
X72840860Y-271875D01*
X72661875Y-450860D01*
X72521247Y-661324D01*
X72424381Y-895179D01*
X72375000Y-1143439D01*
X72375000Y-1396561D01*
X72424381Y-1644821D01*
X72521247Y-1878676D01*
X72661875Y-2089140D01*
X72840860Y-2268125D01*
X73051324Y-2408753D01*
X73285179Y-2505619D01*
X73533439Y-2555000D01*
X73645000Y-2555000D01*
X73645000Y-2666561D01*
X73694381Y-2914821D01*
X73717403Y-2970400D01*
X67414955Y-2970400D01*
X67419853Y-2958574D01*
X67475000Y-2681335D01*
X67475000Y-2398665D01*
X67419853Y-2121426D01*
X67311680Y-1860273D01*
X67154637Y-1625241D01*
X66954759Y-1425363D01*
X66719727Y-1268320D01*
X66458574Y-1160147D01*
X66181335Y-1105000D01*
X65898665Y-1105000D01*
X65621426Y-1160147D01*
X65360273Y-1268320D01*
X65125241Y-1425363D01*
X64925363Y-1625241D01*
X64768320Y-1860273D01*
X64660147Y-2121426D01*
X64605000Y-2398665D01*
X64605000Y-2681335D01*
X64660147Y-2958574D01*
X64665045Y-2970400D01*
X57722602Y-2970400D01*
X54430274Y321927D01*
X54448977Y340630D01*
X54332704Y456903D01*
X54576671Y528486D01*
X54697571Y783996D01*
X54766300Y1058184D01*
X54780217Y1340512D01*
X54738787Y1620130D01*
X54643603Y1886292D01*
X54576671Y2011514D01*
X54332702Y2083097D01*
X53519605Y1270000D01*
X53533748Y1255857D01*
X53354143Y1076252D01*
X53340000Y1090395D01*
X53325858Y1076252D01*
X53146253Y1255857D01*
X53160395Y1270000D01*
X52347298Y2083097D01*
X52103329Y2011514D01*
X51982429Y1756004D01*
X51913700Y1481816D01*
X51899783Y1199488D01*
X51941213Y919870D01*
X51998385Y760000D01*
X47106181Y760000D01*
X46943227Y1003877D01*
X46723877Y1223227D01*
X46465948Y1395570D01*
X46179352Y1514282D01*
X45875104Y1574800D01*
X45564896Y1574800D01*
X45277223Y1517579D01*
X44381801Y2413000D01*
X52571002Y2413000D01*
X52526903Y2262702D01*
G37*
X52526903Y2262702D02*
X53340000Y1449605D01*
X54153097Y2262702D01*
X54108998Y2413000D01*
X65167689Y2413000D01*
X65125241Y2384637D01*
X64925363Y2184759D01*
X64768320Y1949727D01*
X64660147Y1688574D01*
X64605000Y1411335D01*
X64605000Y1128665D01*
X64660147Y851426D01*
X64768320Y590273D01*
X64925363Y355241D01*
X65125241Y155363D01*
X65360273Y-1680D01*
X65621426Y-109853D01*
X65898665Y-165000D01*
X66181335Y-165000D01*
X66458574Y-109853D01*
X66719727Y-1680D01*
X66954759Y155363D01*
X67154637Y355241D01*
X67311680Y590273D01*
X67419853Y851426D01*
X67475000Y1128665D01*
X67475000Y1411335D01*
X67419853Y1688574D01*
X67311680Y1949727D01*
X67154637Y2184759D01*
X66954759Y2384637D01*
X66912311Y2413000D01*
X83693000Y2413000D01*
X83693000Y-2970400D01*
X76142597Y-2970400D01*
X76165619Y-2914821D01*
X76215000Y-2666561D01*
X76215000Y-2413439D01*
X76165619Y-2165179D01*
X76068753Y-1931324D01*
X75928125Y-1720860D01*
X75749140Y-1541875D01*
X75538676Y-1401247D01*
X75304821Y-1304381D01*
X75057002Y-1255088D01*
X75057002Y-1126252D01*
X75215750Y-1285000D01*
X75580000Y-1288072D01*
X75704482Y-1275812D01*
X75824180Y-1239502D01*
X75934494Y-1180537D01*
X76031185Y-1101185D01*
X76110537Y-1004494D01*
X76169502Y-894180D01*
X76205812Y-774482D01*
X76218072Y-650000D01*
X76215000Y-285750D01*
X76056250Y-127000D01*
X75057000Y-127000D01*
X75057000Y-147000D01*
X74803000Y-147000D01*
X74803000Y-127000D01*
X74783000Y-127000D01*
X74783000Y127000D01*
X74803000Y127000D01*
X74803000Y1126250D01*
X75057000Y1126250D01*
X75057000Y127000D01*
X76056250Y127000D01*
X76215000Y285750D01*
X76218072Y650000D01*
X76205812Y774482D01*
X76169502Y894180D01*
X76110537Y1004494D01*
X76031185Y1101185D01*
X75934494Y1180537D01*
X75824180Y1239502D01*
X75704482Y1275812D01*
X75580000Y1288072D01*
X75215750Y1285000D01*
X75057000Y1126250D01*
X74803000Y1126250D01*
X74644250Y1285000D01*
X74280000Y1288072D01*
X74155518Y1275812D01*
X74035820Y1239502D01*
X73925506Y1180537D01*
X73828815Y1101185D01*
X73749463Y1004494D01*
X73690498Y894180D01*
X73654188Y774482D01*
X73641928Y650000D01*
X73645000Y285750D01*
X73803748Y127002D01*
X73645000Y127002D01*
X73645000Y15000D01*
X73533439Y15000D01*
X73285179Y-34381D01*
X73051324Y-131247D01*
X72840860Y-271875D01*
X72661875Y-450860D01*
X72521247Y-661324D01*
X72424381Y-895179D01*
X72375000Y-1143439D01*
X72375000Y-1396561D01*
X72424381Y-1644821D01*
X72521247Y-1878676D01*
X72661875Y-2089140D01*
X72840860Y-2268125D01*
X73051324Y-2408753D01*
X73285179Y-2505619D01*
X73533439Y-2555000D01*
X73645000Y-2555000D01*
X73645000Y-2666561D01*
X73694381Y-2914821D01*
X73717403Y-2970400D01*
X67414955Y-2970400D01*
X67419853Y-2958574D01*
X67475000Y-2681335D01*
X67475000Y-2398665D01*
X67419853Y-2121426D01*
X67311680Y-1860273D01*
X67154637Y-1625241D01*
X66954759Y-1425363D01*
X66719727Y-1268320D01*
X66458574Y-1160147D01*
X66181335Y-1105000D01*
X65898665Y-1105000D01*
X65621426Y-1160147D01*
X65360273Y-1268320D01*
X65125241Y-1425363D01*
X64925363Y-1625241D01*
X64768320Y-1860273D01*
X64660147Y-2121426D01*
X64605000Y-2398665D01*
X64605000Y-2681335D01*
X64660147Y-2958574D01*
X64665045Y-2970400D01*
X57722602Y-2970400D01*
X54430274Y321927D01*
X54448977Y340630D01*
X54332704Y456903D01*
X54576671Y528486D01*
X54697571Y783996D01*
X54766300Y1058184D01*
X54780217Y1340512D01*
X54738787Y1620130D01*
X54643603Y1886292D01*
X54576671Y2011514D01*
X54332702Y2083097D01*
X53519605Y1270000D01*
X53533748Y1255857D01*
X53354143Y1076252D01*
X53340000Y1090395D01*
X53325858Y1076252D01*
X53146253Y1255857D01*
X53160395Y1270000D01*
X52347298Y2083097D01*
X52103329Y2011514D01*
X51982429Y1756004D01*
X51913700Y1481816D01*
X51899783Y1199488D01*
X51941213Y919870D01*
X51998385Y760000D01*
X47106181Y760000D01*
X46943227Y1003877D01*
X46723877Y1223227D01*
X46465948Y1395570D01*
X46179352Y1514282D01*
X45875104Y1574800D01*
X45564896Y1574800D01*
X45277223Y1517579D01*
X44381801Y2413000D01*
X52571002Y2413000D01*
X52526903Y2262702D01*
G36*
X21425000Y1411335D02*
G01*
X21425000Y1128665D01*
X21480147Y851426D01*
X21588320Y590273D01*
X21745363Y355241D01*
X21945241Y155363D01*
X22180273Y-1680D01*
X22441426Y-109853D01*
X22718665Y-165000D01*
X23001335Y-165000D01*
X23278574Y-109853D01*
X23539727Y-1680D01*
X23774759Y155363D01*
X23974637Y355241D01*
X24131680Y590273D01*
X24239853Y851426D01*
X24295000Y1128665D01*
X24295000Y1411335D01*
X24244244Y1666500D01*
X34179994Y1666500D01*
X34133700Y1481816D01*
X34119783Y1199488D01*
X34161213Y919870D01*
X34256397Y653708D01*
X34323329Y528486D01*
X34567298Y456903D01*
X35380395Y1270000D01*
X35366253Y1284142D01*
X35545858Y1463747D01*
X35560000Y1449605D01*
X35574143Y1463747D01*
X35753748Y1284142D01*
X35739605Y1270000D01*
X36552702Y456903D01*
X36796671Y528486D01*
X36917571Y783996D01*
X36986300Y1058184D01*
X37000217Y1340512D01*
X36958787Y1620130D01*
X36942204Y1666500D01*
X42978699Y1666500D01*
X43070399Y1574800D01*
X43024896Y1574800D01*
X42720648Y1514282D01*
X42434052Y1395570D01*
X42176123Y1223227D01*
X41956773Y1003877D01*
X41784430Y745948D01*
X41665718Y459352D01*
X41605200Y155104D01*
X41605200Y-59500D01*
X36103876Y-59500D01*
X36176292Y-33603D01*
X36301514Y33329D01*
X36373097Y277298D01*
X35560000Y1090395D01*
X34746903Y277298D01*
X34818486Y33329D01*
X35014671Y-59500D01*
X26424523Y-59500D01*
X26387200Y-55824D01*
X26349877Y-59500D01*
X26349867Y-59500D01*
X26238214Y-70497D01*
X26094953Y-113954D01*
X25962923Y-184526D01*
X25887808Y-246172D01*
X25847199Y-279499D01*
X25823401Y-308497D01*
X24172669Y-1959230D01*
X24131680Y-1860273D01*
X23974637Y-1625241D01*
X23774759Y-1425363D01*
X23539727Y-1268320D01*
X23278574Y-1160147D01*
X23001335Y-1105000D01*
X22718665Y-1105000D01*
X22441426Y-1160147D01*
X22180273Y-1268320D01*
X21945241Y-1425363D01*
X21745363Y-1625241D01*
X21588320Y-1860273D01*
X21480147Y-2121426D01*
X21425000Y-2398665D01*
X21425000Y-2681335D01*
X21470823Y-2911700D01*
X16476240Y-2911700D01*
X16525000Y-2666561D01*
X16525000Y-2413439D01*
X16475619Y-2165179D01*
X16378753Y-1931324D01*
X16238125Y-1720860D01*
X16059140Y-1541875D01*
X15848676Y-1401247D01*
X15614821Y-1304381D01*
X15367002Y-1255088D01*
X15367002Y-1126252D01*
X15525750Y-1285000D01*
X15890000Y-1288072D01*
X16014482Y-1275812D01*
X16134180Y-1239502D01*
X16244494Y-1180537D01*
X16341185Y-1101185D01*
X16420537Y-1004494D01*
X16479502Y-894180D01*
X16515812Y-774482D01*
X16528072Y-650000D01*
X16525000Y-285750D01*
X16366250Y-127000D01*
X15367000Y-127000D01*
X15367000Y-147000D01*
X15113000Y-147000D01*
X15113000Y-127000D01*
X15093000Y-127000D01*
X15093000Y127000D01*
X15113000Y127000D01*
X15113000Y147000D01*
X15367000Y147000D01*
X15367000Y127000D01*
X16366250Y127000D01*
X16525000Y285750D01*
X16528072Y650000D01*
X16515812Y774482D01*
X16479502Y894180D01*
X16420537Y1004494D01*
X16341185Y1101185D01*
X16244494Y1180537D01*
X16134180Y1239502D01*
X16014482Y1275812D01*
X15890000Y1288072D01*
X15796687Y1287285D01*
X16175902Y1666500D01*
X21475756Y1666500D01*
X21425000Y1411335D01*
G37*
X21425000Y1411335D02*
X21425000Y1128665D01*
X21480147Y851426D01*
X21588320Y590273D01*
X21745363Y355241D01*
X21945241Y155363D01*
X22180273Y-1680D01*
X22441426Y-109853D01*
X22718665Y-165000D01*
X23001335Y-165000D01*
X23278574Y-109853D01*
X23539727Y-1680D01*
X23774759Y155363D01*
X23974637Y355241D01*
X24131680Y590273D01*
X24239853Y851426D01*
X24295000Y1128665D01*
X24295000Y1411335D01*
X24244244Y1666500D01*
X34179994Y1666500D01*
X34133700Y1481816D01*
X34119783Y1199488D01*
X34161213Y919870D01*
X34256397Y653708D01*
X34323329Y528486D01*
X34567298Y456903D01*
X35380395Y1270000D01*
X35366253Y1284142D01*
X35545858Y1463747D01*
X35560000Y1449605D01*
X35574143Y1463747D01*
X35753748Y1284142D01*
X35739605Y1270000D01*
X36552702Y456903D01*
X36796671Y528486D01*
X36917571Y783996D01*
X36986300Y1058184D01*
X37000217Y1340512D01*
X36958787Y1620130D01*
X36942204Y1666500D01*
X42978699Y1666500D01*
X43070399Y1574800D01*
X43024896Y1574800D01*
X42720648Y1514282D01*
X42434052Y1395570D01*
X42176123Y1223227D01*
X41956773Y1003877D01*
X41784430Y745948D01*
X41665718Y459352D01*
X41605200Y155104D01*
X41605200Y-59500D01*
X36103876Y-59500D01*
X36176292Y-33603D01*
X36301514Y33329D01*
X36373097Y277298D01*
X35560000Y1090395D01*
X34746903Y277298D01*
X34818486Y33329D01*
X35014671Y-59500D01*
X26424523Y-59500D01*
X26387200Y-55824D01*
X26349877Y-59500D01*
X26349867Y-59500D01*
X26238214Y-70497D01*
X26094953Y-113954D01*
X25962923Y-184526D01*
X25887808Y-246172D01*
X25847199Y-279499D01*
X25823401Y-308497D01*
X24172669Y-1959230D01*
X24131680Y-1860273D01*
X23974637Y-1625241D01*
X23774759Y-1425363D01*
X23539727Y-1268320D01*
X23278574Y-1160147D01*
X23001335Y-1105000D01*
X22718665Y-1105000D01*
X22441426Y-1160147D01*
X22180273Y-1268320D01*
X21945241Y-1425363D01*
X21745363Y-1625241D01*
X21588320Y-1860273D01*
X21480147Y-2121426D01*
X21425000Y-2398665D01*
X21425000Y-2681335D01*
X21470823Y-2911700D01*
X16476240Y-2911700D01*
X16525000Y-2666561D01*
X16525000Y-2413439D01*
X16475619Y-2165179D01*
X16378753Y-1931324D01*
X16238125Y-1720860D01*
X16059140Y-1541875D01*
X15848676Y-1401247D01*
X15614821Y-1304381D01*
X15367002Y-1255088D01*
X15367002Y-1126252D01*
X15525750Y-1285000D01*
X15890000Y-1288072D01*
X16014482Y-1275812D01*
X16134180Y-1239502D01*
X16244494Y-1180537D01*
X16341185Y-1101185D01*
X16420537Y-1004494D01*
X16479502Y-894180D01*
X16515812Y-774482D01*
X16528072Y-650000D01*
X16525000Y-285750D01*
X16366250Y-127000D01*
X15367000Y-127000D01*
X15367000Y-147000D01*
X15113000Y-147000D01*
X15113000Y-127000D01*
X15093000Y-127000D01*
X15093000Y127000D01*
X15113000Y127000D01*
X15113000Y147000D01*
X15367000Y147000D01*
X15367000Y127000D01*
X16366250Y127000D01*
X16525000Y285750D01*
X16528072Y650000D01*
X16515812Y774482D01*
X16479502Y894180D01*
X16420537Y1004494D01*
X16341185Y1101185D01*
X16244494Y1180537D01*
X16134180Y1239502D01*
X16014482Y1275812D01*
X15890000Y1288072D01*
X15796687Y1287285D01*
X16175902Y1666500D01*
X21475756Y1666500D01*
X21425000Y1411335D01*
M02*
